<svg xmlns="http://www.w3.org/2000/svg" width="685" height="199" viewBox="0 0 685 199"><defs><clipPath id="a716a"><path d="M511.842 157.627l26.243-167.96 158.08 24.713-26.242 167.96z"/></clipPath><clipPath id="a716b"><path d="M415.446 197.535l-40.443-166.12 155.434-38.06 40.443 166.12z"/></clipPath><clipPath id="a716c"><path d="M254 192V21h162v171z"/></clipPath><clipPath id="a716d"><path d="M120.695 194.533l24.167-168.288L307.21 49.376l-24.167 168.287z"/></clipPath><clipPath id="a716e"><path d="M37.587 247.711L-13.711 84.587l163.124-51.298 51.298 163.124z"/></clipPath></defs><g><g clip-path="url(#clip-241c67ca-1854-4ad4-8455-078131d481a7)"><g/><g clip-path="url(#a716a)"><g><path fill="#fcb017" d="M555.106 56.413l-5.23 18.515.676-19.227L533 50.525l18.294.427 5.238-18.565-.675 19.278 17.551 5.177zM539.87 67.885a3.655 3.655 0 0 1-3.047-4.177 3.655 3.655 0 1 1 7.223 1.13 3.65 3.65 0 0 1-4.176 3.047zM565.51 39.83a3.655 3.655 0 0 1 3.047 4.177 3.655 3.655 0 1 1-7.223-1.13 3.655 3.655 0 0 1 4.176-3.047zm20.653-11.747c.385-2.243 1.56-4.25 3.415-5.962l2.948-18.871c.117-.085.226-.12.327-.156a4.021 4.021 0 0 1-.055-1.579c-33.577 5.155-61.486 31.493-67.027 66.953a80.457 80.457 0 0 0-.475 21.423c3.312-5.797 10.42-8.628 17.075-6.397a14.476 14.476 0 0 1 9.274 9.524l.912-1.255c.146-6.231 3.421-13.172 13.857-19.14l.165-.225c-2.423-4.037-5.343-2.017-6.37-3.886-1.033-1.835 2.884-6.097 2.884-6.097.605-.612 1.431-1.044 2.28-.963 2.498.244 4.668 1.92 6.374 3.809l18.899-26.074c-.86-.85-1.62-1.72-2.254-2.63-1.951-2.746-2.706-5.702-2.23-8.474zm78.18 57.442l-3.875 13.757.507-14.284-13.04-3.867 13.598.297 3.874-13.757-.507 14.283 13.09 3.876zm-17.01-17.428l.405-10.038-9.219-2.71 9.613.184 2.678-9.684-.354 10.047 9.21 2.76-9.605-.234zm12.619-22.638A3.655 3.655 0 0 1 663 49.636a3.655 3.655 0 1 1-7.223-1.13 3.655 3.655 0 0 1 4.176-3.047zm-15.157-34.141l-3.048 19.51c1.338 2.367 1.844 4.81 1.413 7.183-.75 4.196-4.096 7.451-9.092 9.457l13.324 58.12a14.475 14.475 0 0 1 9.959-4.128c7.968-.108 14.515 6.177 14.622 14.044.05 4.037-1.607 7.694-4.312 10.325a41.16 41.16 0 0 1-.534 5.29c8.521-10.598 14.472-23.513 16.724-37.93 5.262-33.734-11.228-65.85-39.056-81.871z"/></g></g><g clip-path="url(#a716a)"><g><path fill="#e6e7e8" d="M580.346 83.806c-.342-.07-.686-.133-1.034-.17 6.76-5.068 15.482-7.518 24.49-6.11 10.43 1.631 18.921 8.057 23.575 16.686l-.1-.024-12.057-2.696c-5.696-1.244-11.32 2.294-12.562 7.983l-.03.133-2.233-.556c1.203-5.488-2.447-11.33-7.983-12.549zm33.722 37.078l-32.499-6.6c.085 3.818 1.752 7.504 4.385 10.52l.306.359a18.96 18.96 0 0 0 2.19 2.05c1.023.842 2.388 1.823 4.021 2.63 1.114.545 2.351 1.015 3.68 1.291.826.173 1.698.275 2.594.285.31.006.622-.006.935-.026 1.456-.1 2.988-.465 4.558-1.185l.008.001.186-.083.055-.026a16.063 16.063 0 0 0 9.581-9.216zm7.485-1.099c2.756.578 5.564.102 7.926-1.383.26-.167.493-.337.728-.516-2.642 10.12-9.91 18.05-19.115 21.83-.451.18-.91.358-1.376.527l-.037.011c-1.222.43-2.477.786-3.756 1.078a32.127 32.127 0 0 1-5.587.765 32.683 32.683 0 0 1-6.06-.291l-.5-.061a32.145 32.145 0 0 1-3.776-.832 32.348 32.348 0 0 1-6.094-2.393 31.87 31.87 0 0 1-3.55-2.117 32.773 32.773 0 0 1-3.947-3.222c-7.454-7.1-11.417-17.614-9.708-28.553.097-.623.22-1.242.35-1.852a10.44 10.44 0 0 0 3.648 4.858 11.057 11.057 0 0 0 3.93 1.779l12.058 2.696c2.746.584 5.562.11 7.929-1.4 2.366-1.511 3.998-3.844 4.633-6.583l.107-.466 2.233.556-.075.316c-.886 4.071.684 8.32 4.051 10.778 1.18.892 2.499 1.504 3.93 1.78l12.058 2.695zm45.555-4.213c.004.475-.034.935-.098 1.4-.378 2.752-1.966 5.135-4.23 6.601a9.59 9.59 0 0 1-5.115 1.547 9.736 9.736 0 0 1-4.454-1.024 9.39 9.39 0 0 1-1.854-1.213c-1.533-1.283-2.659-3.02-3.131-5.018a9.446 9.446 0 0 1-.26-2.042 9.246 9.246 0 0 1 .858-3.998c1.48-3.228 4.748-5.495 8.586-5.55 5.29-.07 9.632 4.093 9.698 9.297zm-9.383 14.354a14.504 14.504 0 0 0 4.741-.872 35.252 35.252 0 0 1-2.687 9.526l-5.21-1.651-3.977-1.26a24.776 24.776 0 0 0 2.195-6.541c1.547.535 3.208.83 4.938.798zM540.855 88.07c4.745 1.588 7.43 6.476 6.299 11.182-.06.275-.136.539-.22.802a9.278 9.278 0 0 1-.859 1.85 9.292 9.292 0 0 1-3.102 3.13 9.693 9.693 0 0 1-3.594 1.31 9.703 9.703 0 0 1-4.517-.396 9.645 9.645 0 0 1-4.427-3.073c-1.685-2.075-2.458-4.801-1.991-7.515a9.02 9.02 0 0 1 .339-1.396c1.65-4.935 7.056-7.575 12.072-5.894zm-2.604 23.178zm0 0a2.023 2.023 0 0 0-.034.383 24.417 24.417 0 0 0 .139 6.509l-4.397-.015h-.448l-4.8-.018c-.35-3.29-.236-6.61.347-9.9.24.183.479.359.729.527a14.646 14.646 0 0 0 3.552 1.772c1.63.548 3.286.772 4.912.742z"/></g></g><g clip-path="url(#a716a)"><g><path fill="#b1b3b3" d="M600.841 124.182a9.186 9.186 0 0 1 1.93 2.061 9.459 9.459 0 0 1 1.093 2.328l-.128.049c-2.058.696-5.555 1.383-9.446.015l-.148-.049c-2.072-.755-4.242-2.104-6.367-4.342a6.123 6.123 0 0 1 1.664-1.655c2.126-1.41 5.017-1.312 8.072-.222 1.316.465 2.41 1.084 3.33 1.815zm-13.908 1.638l.254.256-.265-.24zm17.302 4.405l.01-.008"/></g></g><g clip-path="url(#a716a)"><path d="M630.692 105.781l-1.142 5.05c-.34 1.516-1.248 2.797-2.548 3.664-1.3.866-2.866 1.122-4.383.79l-12.058-2.696c-3.085-.733-5.118-3.949-4.437-6.982l1.142-5.05c.697-3.134 3.796-5.143 6.939-4.444l12.057 2.696c.784.174 1.537.542 2.182.996 1.077.781 1.798 1.903 2.148 3.14.105.378.183.761.218 1.146a6.954 6.954 0 0 1-.118 1.69zm-38.547.927c-1.3.866-2.866 1.122-4.384.79l-12.058-2.696c-3.134-.697-5.126-3.899-4.443-6.94l1.142-5.05c.34-1.516 1.256-2.848 2.548-3.664 1.3-.867 2.866-1.122 4.383-.79l12.058 2.696c.783.174 1.537.542 2.181.996 1.86 1.404 2.764 3.728 2.272 5.937l-1.142 5.049c-.343 1.534-1.259 2.814-2.557 3.672zm35.232-12.496l-.1-.024-12.057-2.696c-5.688-1.243-11.32 2.294-12.562 7.983l-.03.133-2.233-.556c1.203-5.488-2.448-11.321-7.983-12.549l-12.057-2.696c-.343-.07-.696-.126-1.034-.17a10.518 10.518 0 0 0-6.8 1.516l-.095.055a10.46 10.46 0 0 0-4.1 4.94 11.28 11.28 0 0 0-.533 1.642l-1.143 5.049a10.552 10.552 0 0 0 .403 5.92 10.342 10.342 0 0 0 3.648 4.858c1.188.841 2.514 1.463 3.93 1.779l12.059 2.696c2.746.584 5.562.11 7.928-1.4 2.366-1.51 3.999-3.844 4.634-6.583l.107-.466 2.233.556-.075.316c-.887 4.071.674 8.327 4.05 10.778 1.18.892 2.508 1.505 3.931 1.78l12.058 2.695c2.746.585 5.562.11 7.929-1.4.249-.16.492-.337.727-.516a10.527 10.527 0 0 0 3.907-6.075l1.143-5.049c1.203-5.436-2.4-11.244-7.885-12.516z"/></g><g clip-path="url(#a716a)"><g><path fill="#373737" d="M619.61 98.778a8.572 8.572 0 0 0-10.573 5.955l-1.01 3.543 3.196.957 1.01-3.543c.512-1.947 2.556-4.319 6.036-3.576 3.142.646 4.335 3.11 3.525 6.029l-.984 3.702 3.744 1.042 1.01-3.542c1.276-4.572-1.383-9.3-5.955-10.567zm-31.781 1.165l-.984 3.702 3.744 1.043 1.01-3.543c1.267-4.573-1.392-9.302-5.962-10.577a8.572 8.572 0 0 0-10.572 5.956l-1.055 3.493 3.197.957 1.054-3.493c.512-1.947 2.555-4.32 6.036-3.577 3.148.656 4.342 3.12 3.532 6.039zm-.896 25.877l.254.256-.265-.24zm2.506-3.231c2.126-1.41 5.009-1.313 8.072-.222a11.322 11.322 0 0 1 3.33 1.815 8.778 8.778 0 0 1 1.912 2.058 8.926 8.926 0 0 1 1.094 2.328l-.128.049c-2.058.696-5.555 1.383-9.446.016l-.148-.05c-2.072-.755-4.242-2.103-6.367-4.342a6.339 6.339 0 0 1 1.681-1.652zm-3.478 2.225l.306.359c.679.735 1.408 1.419 2.19 2.05a20.158 20.158 0 0 0 4.021 2.63c1.114.545 2.351 1.015 3.68 1.291.826.173 1.698.274 2.594.285.31.005.613-.008.935-.026 1.456-.1 2.988-.465 4.558-1.186l.01-.007.185-.083.056-.026a16.124 16.124 0 0 0 9.588-9.206l-32.5-6.6c.077 3.817 1.744 7.502 4.377 10.52zm76.818-1.24a9.59 9.59 0 0 1-5.114 1.546 9.511 9.511 0 0 1-4.454-1.024 10.034 10.034 0 0 1-1.854-1.213 9.413 9.413 0 0 1-3.131-5.018 9.446 9.446 0 0 1-.26-2.042 9.238 9.238 0 0 1 .858-3.998 9.568 9.568 0 0 1 8.586-5.55c5.29-.07 9.632 4.093 9.698 9.297.004.475-.035.943-.098 1.4-.378 2.752-1.966 5.135-4.23 6.601zm-2.993 15.016l-5.21-1.651-3.976-1.26a24.83 24.83 0 0 0 2.194-6.541l.002-.009a14.48 14.48 0 0 0 4.936.807 14.504 14.504 0 0 0 4.742-.872 35.253 35.253 0 0 1-2.688 9.526zm-48.692 1.109c-.452.188-.91.367-1.376.527l-.036.011a31.12 31.12 0 0 1-3.756 1.078 32.69 32.69 0 0 1-5.587.766 32.684 32.684 0 0 1-6.06-.292l-.5-.061a32.144 32.144 0 0 1-3.777-.832 32.484 32.484 0 0 1-6.094-2.393 31.87 31.87 0 0 1-3.55-2.117 32.25 32.25 0 0 1-3.946-3.222c-7.446-7.099-11.417-17.614-9.708-28.553.097-.623.22-1.242.35-1.852a10.702 10.702 0 0 1-.404-5.92l1.143-5.05c.131-.565.312-1.115.532-1.641a10.428 10.428 0 0 1 4.101-4.94l.095-.055a10.48 10.48 0 0 1 6.8-1.516c6.76-5.068 15.481-7.517 24.49-6.11 10.43 1.632 18.92 8.066 23.575 16.687 5.484 1.271 9.087 7.08 7.881 12.533l-1.142 5.049a10.547 10.547 0 0 1-3.907 6.074c-2.65 10.119-9.918 18.05-19.124 21.829zm-68.12-34.674a9.555 9.555 0 0 1-3.593 1.31 9.592 9.592 0 0 1-4.518-.396 9.645 9.645 0 0 1-4.427-3.073c-1.685-2.075-2.458-4.8-1.99-7.514.081-.47.18-.938.338-1.396 1.65-4.935 7.057-7.575 12.072-5.894 4.745 1.587 7.431 6.475 6.3 11.181-.068.266-.136.531-.221.802a9.356 9.356 0 0 1-3.96 4.98zm-9.022 13.09h-.448l-4.8-.018c-.35-3.28-.236-6.61.347-9.9a14.645 14.645 0 0 0 4.28 2.3c1.631.547 3.295.773 4.913.741l-.05.372a25.203 25.203 0 0 0 .139 6.509l-4.38-.003zm138.014-2.612c-.108-7.867-6.654-14.153-14.623-14.044a14.497 14.497 0 0 0-9.959 4.128c-2.687 2.625-4.343 6.274-4.283 10.303.055 4.34 2.085 8.185 5.218 10.762-.885 8.204-6.546 14.41-13.067 17.453-3.986 1.827-9.212 1.666-14.694.101l-.025-2.272a38.862 38.862 0 0 0 14.216-17.3c2.825-6.71 3.623-13.745 2.635-20.447-1.278-9.041-5.726-17.5-12.685-23.687-10.15-36.101-40.773-19.107-50.776-12.38a24.28 24.28 0 0 0-2.176-2.85c-1.706-1.89-3.876-3.566-6.373-3.81-.85-.08-1.676.351-2.281.964 0 0-3.909 4.263-2.884 6.096 1.028 1.86 3.947-.15 6.37 3.886l.062.096-.217.121c-10.435 5.96-13.712 12.91-13.857 19.142-.224 9.6 7.009 17.511 7.009 17.511l.229-.749a39.13 39.13 0 0 0 9.266 26.302l-.215.492c-7.483.539-14.366-.779-18.426-4.493-5.283-4.88-8.78-12.518-7.121-20.6 3.76-1.492 6.857-4.536 8.232-8.643.967-2.877.94-5.848.114-8.566a14.476 14.476 0 0 0-9.275-9.524c-6.654-2.23-13.763.6-17.075 6.397-.45.784-.832 1.63-1.134 2.514-1.29 3.836-.81 7.836.963 11.167-4.098 14.585.219 30.339 12.228 41.404a45.102 45.102 0 0 0 5.475 4.254c5.048 3.352 10.855 5.76 16.812 7.045l-3.628 8.258 64.873 10.142-.101-9.013c5.412.302 10.917-.27 16.078-1.731a45.091 45.091 0 0 0 6.512-2.38c13.073-6.066 21.551-17.439 23.738-30.442.29-1.74.47-3.506.534-5.29 2.703-2.623 4.37-6.28 4.31-10.317z"/></g></g><g clip-path="url(#a716a)"><path fill="#808184" d="M644.609 11.194c-8.238-4.739-17.463-8.062-27.414-9.617C610.561.54 603.99.375 597.563.94c-1.594.156-3.197.311-4.756.577a4.12 4.12 0 0 0 .055 1.578c-.109.035-.218.07-.326.156l-2.949 18.871c.966-.884 2.094-1.7 3.42-2.407l.82-.38c5.766-2.8 14.006-3.6 22.72-2.237l.892.14c7.654 1.351 14.7 4.273 19.38 8.101l.345.054.52.59c1.753 1.534 3.118 3.171 4.065 4.837l3.047-19.502a.441.441 0 0 0-.187-.124z"/></g><g clip-path="url(#a716a)"><g><path fill="#ffce13" d="M613.156 40.73c8.225 1.286 18.016.936 18.835-4.31.82-5.246-8.448-8.575-16.622-9.853-8.175-1.278-18.015-.945-18.836 4.31-.82 5.246 8.457 8.577 16.623 9.854zm21.499-10.648c2.669 2.402 3.896 4.923 3.539 7.1-.382 2.055-2.27 3.933-5.287 5.3-4.39 1.987-11.162 2.887-19.176 1.634l-1.044-.163c-5.282-.912-10.174-2.67-13.998-4.906-2.718-1.59-4.9-3.414-6.26-5.361-1.215-1.665-1.672-3.263-1.39-4.738.306-1.625 1.453-3.12 3.636-4.452l.676-.403c4.806-2.5 12.39-3.29 20.311-2.052l.842.131c7.114 1.216 13.544 3.946 17.564 7.413l.536.49.05.007zm-8.01 5.503zm0 0c-1.721.645-6.225 1.209-12.665.202-6.49-1.015-10.557-2.918-12-4.058 1.738-.695 6.175-1.218 12.666-.203 6.49 1.015 10.557 2.919 12 4.059z"/></g></g><g clip-path="url(#a716a)"><path fill="#6d6e70" d="M612.704 43.955c-5.282-.912-10.18-2.678-13.998-4.905-2.719-1.59-4.899-3.423-6.26-5.361-1.215-1.665-1.674-3.255-1.39-4.738.306-1.626 1.453-3.12 3.636-4.452l.676-.403c4.805-2.493 12.38-3.293 20.31-2.053l.843.132c7.114 1.216 13.535 3.945 17.564 7.413l.536.489.05.008c2.671 2.393 3.897 4.922 3.556 7.103-.38 2.046-2.27 3.933-5.286 5.298-4.39 1.988-11.17 2.887-19.177 1.635zm29.044-13.126c-.946-1.675-2.304-3.302-4.065-4.837l-.52-.59-.346-.054c-4.68-3.829-11.724-6.759-19.38-8.102l-.892-.14c-8.713-1.362-16.952-.57-22.72 2.237l-.819.38a16.599 16.599 0 0 0-3.42 2.408c-1.854 1.711-3.03 3.718-3.415 5.961-.484 2.763.27 5.727 2.23 8.467.626.908 1.394 1.788 2.254 2.63 4.641 4.572 12.444 8.173 21.232 9.72l1.086.17c8.182 1.278 15.628.596 21.094-1.603 4.988-2.006 8.335-5.27 9.093-9.456.432-2.383-.074-4.825-1.412-7.191z"/></g><g clip-path="url(#a716a)"><g><path fill="#ffe99e" d="M614.646 31.526c6.49 1.015 10.548 2.917 12 4.059-1.722.645-6.226 1.209-12.666.202-6.49-1.015-10.549-2.917-12-4.058 1.738-.695 6.183-1.216 12.666-.203zm-1.49 9.205c8.216 1.284 18.016.935 18.835-4.31.82-5.247-8.448-8.576-16.622-9.854-8.175-1.278-18.016-.936-18.836 4.31-.82 5.246 8.457 8.577 16.623 9.854zm-46.57 31.685l-.165.224.217-.121zm-6.783 36.12l-.229.749s-7.234-7.903-7.009-17.512l-.912 1.255a14.11 14.11 0 0 1-.113 8.565c-1.375 4.107-4.472 7.151-8.233 8.643-1.65 8.075 1.84 15.711 7.122 20.6 4.06 3.714 10.942 5.032 18.426 4.494l.215-.493c-6.174-7.288-9.52-16.68-9.267-26.301zm88.524 18.118c-3.134-2.57-5.162-6.423-5.218-10.762-.051-4.028 1.597-7.679 4.284-10.304l-13.324-58.12c-5.467 2.199-12.912 2.881-21.095 1.602l-1.086-.17c-8.788-1.546-16.59-5.147-21.232-9.72l-18.903 26.107c.852.945 1.576 1.946 2.176 2.85 9.994-6.727 40.619-23.73 50.776 12.381 6.959 6.187 11.406 14.646 12.684 23.688.98 6.7.192 13.729-2.634 20.447a38.936 38.936 0 0 1-14.216 17.299l.024 2.273c5.484 1.555 10.718 1.727 14.694-.101 6.524-3.06 12.178-9.277 13.07-17.47z"/></g></g><g clip-path="url(#a716a)"><g><path fill="#fff" d="M659.667 58.656l-9.605-.234-2.728 9.675.405-10.038-9.219-2.71 9.613.184 2.676-9.675-.352 10.038zM678 85.83l-13.656-.306-3.873 13.749.506-14.276-13.04-3.867 13.598.297 3.874-13.757-.507 14.283zM555.85 51.664l17.56 5.178-18.303-.429-5.223 18.525.669-19.237L533 50.525l18.294.427 5.238-18.565zm69.724 57.682c1.267-4.573-1.392-9.302-5.955-10.567a8.572 8.572 0 0 0-10.572 5.956l-1.011 3.543 3.197.957 1.01-3.543c.504-1.957 2.548-4.33 6.035-3.577 3.152.64 4.335 3.11 3.526 6.029l-.984 3.702 3.744 1.043 1.01-3.543zm5.004-6.412c.104.378.182.761.202 1.135.04.567.013 1.132-.102 1.701l-1.143 5.05c-.333 1.526-1.248 2.797-2.547 3.664-1.3.866-2.867 1.13-4.384.79l-12.058-2.696c-3.076-.731-5.119-3.94-4.437-6.983l1.143-5.049c.697-3.134 3.804-5.141 6.938-4.444l12.058 2.695c.793.168 1.545.544 2.181.997 1.077.78 1.807 1.904 2.149 3.14zm-38.986-1.79c1.275-4.572-1.384-9.3-5.955-10.567a8.572 8.572 0 0 0-10.573 5.955l-1.054 3.493 3.197.957 1.054-3.493c.504-1.957 2.548-4.329 6.035-3.576 3.152.639 4.335 3.11 3.525 6.028l-.983 3.703 3.743 1.042 1.011-3.543zm1.979-9.077c1.859 1.404 2.764 3.728 2.262 5.944l-1.142 5.049c-.334 1.526-1.248 2.798-2.548 3.665-1.3.866-2.867 1.13-4.384.79l-12.057-2.696c-3.134-.697-5.126-3.899-4.444-6.94l1.142-5.05a5.792 5.792 0 0 1 2.548-3.665c1.3-.866 2.867-1.13 4.384-.79l12.057 2.697c.794.167 1.545.543 2.182.996z"/></g><g><path fill="#fff" d="M561.335 42.877a3.655 3.655 0 1 1 7.223 1.13 3.655 3.655 0 1 1-7.223-1.13z"/></g><g><path fill="#fff" d="M655.777 48.506a3.655 3.655 0 1 1 7.223 1.13 3.655 3.655 0 1 1-7.223-1.13z"/></g><g><path fill="#fff" d="M536.822 63.708a3.655 3.655 0 1 1 7.223 1.13 3.655 3.655 0 1 1-7.223-1.13z"/></g></g></g><g clip-path="url(#clip-241c67ca-1854-4ad4-8455-078131d481a7)"><g/><g clip-path="url(#a716b)"><g><path fill="#20a0db" d="M415.164 127.456l1.12 9.48-3.311-8.943-9.073.987 8.505-3.318-1.182-9.517 3.373 8.98 9.073-.986zm-1.491-32.31a2.5 2.5 0 0 1-3.025-1.843 2.509 2.509 0 0 1 1.838-3.034 2.5 2.5 0 0 1 3.025 1.843 2.509 2.509 0 0 1-1.838 3.034zm-18.8-27.878c-3.902 12.58-4.613 26.238-1.43 39.852l10.477-4.065-1.425-11.777 4.147 11.11 11.175-1.237-10.474 4.117 1.415 11.736-4.137-11.07-11.178 1.186.158.684c4.174 17.146 13.914 31.509 26.91 41.758.13-.87.431-1.728.914-2.526 1.478-2.381 4.313-3.49 6.892-3.116l1.72-2.837c-5.285-21.813-10.691-44.019-12.636-52.009a80.32 80.32 0 0 1-1.229-6.128l-.74-.26c-6.206-2.193-15.395-7.43-20.558-15.418zm18.747-22.114a11.02 11.02 0 0 1 1.724-2.345l1.772-1.827a10.465 10.465 0 0 1 2.425-1.811c.3-2.816 1.049-7.145 2.88-11.288a80.475 80.475 0 0 0-16.082 16.55 29.085 29.085 0 0 1 7.281.721zm126.237 39.74a2.5 2.5 0 0 1-3.025-1.843 2.509 2.509 0 0 1 1.838-3.034 2.5 2.5 0 0 1 3.025 1.843 2.509 2.509 0 0 1-1.838 3.034zM523.32 44.45l1.133 9.53-3.324-8.993-9.072.987 8.505-3.318-1.183-9.517 3.374 8.981 9.03-.977zm-15.935-8.383a2.5 2.5 0 0 1-3.025-1.843 2.509 2.509 0 0 1 1.837-3.034 2.5 2.5 0 0 1 3.026 1.843 2.509 2.509 0 0 1-1.838 3.034zm-54.445-22.8a82.636 82.636 0 0 0-16.366 5.885 47.04 47.04 0 0 1 6.72 4.987 55.979 55.979 0 0 1 9.04-3.034c32.25-7.897 53.164 6.958 62.225 44.179l1.899 7.798 8.131-3.19-1.704-14.188 4.99 13.383 13.541-1.455L528.73 72.6l1.704 14.188-5.007-13.379-8.683.927c2.724 11.221 6.338 26.176 9.869 40.824l5.565 3.391c2.178-1.53 5.217-1.727 7.49-.37a6.766 6.766 0 0 1 3.093 4.323c8.07-15.832 10.754-34.356 6.274-52.759-10.152-41.698-53.156-66.992-96.096-56.478z"/></g></g><g clip-path="url(#a716b)"><g><path fill="#b3b3b3" d="M417.545 82.477c.322-.193.623-.4.933-.608a15.958 15.958 0 0 0 2.247-1.934c.347 2.693.843 5.34 1.469 7.913 1.811 7.44 6.587 27.058 11.48 47.229l-1.838 3.034-1.8 2.972c-5.284-21.813-10.69-44.019-12.635-52.009a79.974 79.974 0 0 1-1.229-6.128l.385.135.988-.604zm34.78-61.37c32.25-7.897 53.163 6.958 62.22 44.197l2.203 9.048c2.722 11.213 6.338 26.175 9.869 40.824l-3.717-2.265a14.08 14.08 0 0 0-2.292-1.106c-4.246-17.621-8.479-35.079-10.981-45.358-.865-3.554-1.84-6.87-2.92-9.974l1.77-2.444 1.685-2.326-2.453.327-2.538.34c-9.693-23.882-26.708-32.548-51.721-26.423a53.42 53.42 0 0 0-6.374 1.993 39.748 39.748 0 0 0-1.805-1.922 43.963 43.963 0 0 0-1.987-1.877c2.781-1.219 5.787-2.237 9.04-3.034zm66.193 129.794c.277.232.56.454.857.628.504.3 1.043.53 1.602.693-.662.497-1.332.996-2 1.468a83.358 83.358 0 0 1-21.409 10.887c.98-1.069 1.8-2.284 2.462-3.575 6.298-2.45 12.16-5.606 17.471-9.367.345-.243.682-.484 1.017-.734zM475.76 166.46c.477.368.974.714 1.489 1.02.743.453 1.52.827 2.312 1.154a82.27 82.27 0 0 1-25.06-.964l.216-.343a7.09 7.09 0 0 0 .78-2 80.906 80.906 0 0 0 20.263 1.133z"/></g></g><g clip-path="url(#a716b)"><g><path fill="#c4c4c4" d="M469.931 157.507a15.997 15.997 0 0 0 3.333 6.539 15.752 15.752 0 0 0 2.505 2.412c-6.9.481-13.7.074-20.264-1.132a6.916 6.916 0 0 0-.027-3.142 6.819 6.819 0 0 0-1.112-2.4l5.59-9.227c2.146-3.462 2.735-7.584 1.774-11.529a14.746 14.746 0 0 0-3.8-6.98c1.829.69 3.9 1.25 6.198 1.622l2.616 10.745c-.822.563-1.518 1.28-2.005 2.131-1.003 1.586-1.306 3.521-.856 5.369a7.053 7.053 0 0 0 5.985 5.334l.063.258zm-23.746-33.82c.646.848 1.989 2.424 4.12 4.098a15.622 15.622 0 0 0-5.559-.147c-.54.089-1.068.2-1.597.339.393-.626.807-1.239 1.23-1.845.581-.83 1.174-1.646 1.806-2.444zm70.542 24.769c.061.144.131.285.197.41.4.776.936 1.464 1.592 2.027l-1.017.734c-5.31 3.761-11.173 6.916-17.47 9.367.53-1.038.966-2.133 1.26-3.272.663-2.517.725-5.222.069-7.92l-.063-.257c2.348-1.625 3.57-4.587 2.863-7.492a7.054 7.054 0 0 0-5.985-5.334l-2.556-10.495c1.677-1.24 3.258-2.659 4.646-4.251a15.267 15.267 0 0 0-.079 7.586c.911 3.957 3.385 7.329 6.885 9.462l9.2 5.605a6.624 6.624 0 0 0-.077 1.633c.02.374.077.748.168 1.123.091.374.222.73.367 1.074zm-10.117-41.557a46.626 46.626 0 0 1 8.19 3.912c-2.367.068-4.712.66-6.827 1.725a15.21 15.21 0 0 0-3.648 2.569c.91-2.587 1.296-5.477.949-8.673.45.154.893.31 1.336.467z"/></g></g><g clip-path="url(#a716b)"><g><path fill="#aaabb0" d="M449.967 120.328a2.417 2.417 0 0 0-.42-.462c-.844-.755-2.08-.92-3.06-.283a2.542 2.542 0 0 0-.742 3.49c.043.068.196.296.442.623.638.85 1.98 2.426 4.122 4.106 1.575.329 3.113.905 4.528 1.766a15.58 15.58 0 0 1 3.084 2.482 32.49 32.49 0 0 0 6.199 1.622l-.138-.566a17.314 17.314 0 0 1-.344-1.989c-.104-.9-.137-1.792-.088-2.677-9.394-1.994-13.353-7.745-13.583-8.112zm52.279-17.194a2.43 2.43 0 0 0-2.056 1.924 2.559 2.559 0 0 0-.02.966c1.16 6.965-2.151 11.93-6.343 15.338.19.35.392.706.56 1.07.432.945.789 1.942 1.04 2.974l.199.816c1.677-1.24 3.257-2.659 4.646-4.251.37-1.37.932-2.707 1.695-3.943a14.293 14.293 0 0 1 2.376-2.92c.91-2.585 1.288-5.474.95-8.671-.046-.404-.09-.799-.156-1.215-.249-1.385-1.506-2.32-2.89-2.088z"/></g></g><g clip-path="url(#a716b)"><g><path fill="#d1d2d4" d="M484.974 85.686zm0 0l-31.055 7.71c1.744 3.339 4.849 5.939 8.547 7.406a17.858 17.858 0 0 0 5.878 1.312l.016-.004a15.762 15.762 0 0 0 4.95-.507 16.19 16.19 0 0 0 6.166-3.211 15.495 15.495 0 0 0 5.498-12.706zm-18.127 20.648c-11.463.523-21.7-5.084-27.524-13.906l1.4-1.251.7-.63c1.08 1.217 3.386 1.984 6.03 1.866 2.958-.133 5.405-1.35 6.151-2.908l7.445 1.898-4.685-9.744-2.268-4.657 3.09-4.426 1.577-2.229.32-.457 11.66-2.855 2.835 1.422 4.69 2.361.118 4.928.246 10.726 4.447-3.911c1.456.816 3.993.689 6.482-.467 3.128-1.454 5.054-3.98 4.484-5.817l2.649.657.16.04c-.91 15.7-13.76 28.584-30.007 29.36zm26.97-2.247c2.002.172 3.97.457 5.887.852l.476.112a2.653 2.653 0 0 0-.02.967c1.16 6.965-2.152 11.93-6.343 15.337a15.804 15.804 0 0 0-5.726-5.926c-3.686-2.246-8.023-2.94-12.247-1.905-7.08 1.733-11.925 7.947-12.288 14.906-9.4-1.984-13.36-7.735-13.59-8.102a2.614 2.614 0 0 0-.42-.462c2.161-2.249 4.57-4.276 7.161-6.092a49.504 49.504 0 0 1 2.618-1.673 38.022 38.022 0 0 0 30.11-8.202c.458.003.918.013 1.37.026 1.008.027 2.015.08 3.011.162z"/></g></g><g clip-path="url(#a716b)"><g><path fill="#aaaaab" d="M491.05 75.53l-4.365 3.855-3.606 3.176c1.456.816 3.985.69 6.482-.467 3.128-1.454 5.057-3.973 4.484-5.817zm-46.026 11.78l-3.615 3.214c1.08 1.217 3.385 1.984 6.03 1.866 2.957-.133 5.405-1.35 6.15-2.908l-2.98-.76zm27.362 6.053c-4.555.216-7.995 2.16-8.185 6.546 8.208 1.747 13.62-1.853 15.749-3.688-1.715-2.456-3.728-2.995-7.564-2.858z"/></g></g><g clip-path="url(#a716b)"><g><path fill="#e8e8e8" d="M434.449 64.245l-4.847 1.187 1.054 4.328 2.84-1.048zm8.82-2.927l3.433 4.169.246-.034-2.06-8.465c-1.36.122-2.867.182-4.474.117l-.58-.035.325.397zm8.206-5.625c.062.037-.506.23-1.436.457-.548.134-1.232.284-2.008.421l2.057 8.448 2.34-.317 2.642-.347-2.303-9.464-.154.417zm8.588 8.004l3.204-.423-.13-.065 1.802-.653-1.327-5.452-4.864 1.19zm3.434-.056l.332-.082-.2-.1zm6.17-2.799l4.444-1.608.282-.105-2.257-9.272-4.855 1.19zm11.006-8.683l.794-3.563.317-1.41-1.115-4.577-4.863 1.19 3.319 13.634.43-.15zm6.036-5.87l.163.666 2.536 3.012 3.409 4.07.893-.123-2.146-8.814zm2.734 57.608c.458.003.916.005 1.37.026a49.327 49.327 0 0 1 8.91 1.02l.476.113a2.43 2.43 0 0 1 2.055-1.924c1.386-.233 2.64.695 2.873 2.084.064.407.11.81.155 1.214.449.146.891.302 1.336.467l-5.104-20.966c-2.171 7.084-6.422 13.32-12.07 17.966zm-51.169-2.842zm6.106 25.077c.58-.83 1.173-1.646 1.805-2.444a12.957 12.957 0 0 1-.442-.624c-.748-1.157-.411-2.739.743-3.489.979-.637 2.215-.472 3.058.283a49.155 49.155 0 0 1 7.161-6.093c.851-.587 1.72-1.135 2.618-1.672-8.22-1.295-15.542-5.287-21.049-11.038z"/></g></g><g clip-path="url(#a716b)"><g><path fill="#fff" d="M418.93 54.578a5.477 5.477 0 0 1-1.11-1.633 5.976 5.976 0 0 1-.445-3.816 5.832 5.832 0 0 1 1.514-2.849l1.567-1.618.196-.207a5.758 5.758 0 0 1 1.11-.862c.236-.147.494-.28.758-.389.286-.123.585-.231.892-.307a5.803 5.803 0 0 1 1.605-.163l.207.02c.787.054 1.56.27 2.263.627.515.271 1 .602 1.433 1.008a5.895 5.895 0 0 1 1.622 5.22 5.8 5.8 0 0 1-.963 2.29 6.429 6.429 0 0 1-.611.741l-1.146 1.18-.626.648c-.29.291-.614.547-.955.771a5.897 5.897 0 0 1-2.56.9 6.135 6.135 0 0 1-1.754-.055 5.705 5.705 0 0 1-2.295-.937 5.677 5.677 0 0 1-.701-.57zm-1.215 20.255l.543.282c-.156.223-.325.432-.494.641a11.445 11.445 0 0 1-1.808 1.748 8.994 8.994 0 0 1-.498-.204c-4.122-1.76-14.78-7.176-18.297-16.421-1.056-2.785-1.472-5.902-.867-9.375a31.113 31.113 0 0 1 6.483-1.728c2.77-.432 6.07-.534 9.492.233-.029.748.015 1.504.143 2.25-2.92.396-8.046 1.625-12.835 5.506l.976 1.877s3.89-4.392 12.858-4.33c.2.392.408.773.655 1.136l-9.37 8.582 1.15 1.112 10.026-7.658c.156.138.305.278.468.406.62.492 1.294.909 1.992 1.25-.336 4.65-1.8 7.778-3.11 9.695-1.167 1.705-2.207 2.454-2.207 2.454l1.606 1.106c.213-.21.407-.426.609-.643a22.123 22.123 0 0 0 2.405-3.014 24.495 24.495 0 0 0 2.876-5.96c.364-1.14.57-2.063.688-2.7.248.045.493.073.745.1-.028 2.952-.388 7-1.83 10.58a15.858 15.858 0 0 1-1.08 2.206l-1.327.475-.436.16zm24.515-44.728c2.338 2.382 4.531 5.25 5.922 8.507a19.213 19.213 0 0 1 1.105 3.416c.49 2.19.563 4.519.098 6.978-.138.731-.31 1.47-.549 2.225-.846.207-2.018.45-3.426.627-.529.068-1.095.127-1.683.166a28.318 28.318 0 0 1-6.944-.346 24.22 24.22 0 0 1-1.465-.312c.216-.811.33-1.642.355-2.477.011-.461.005-.918-.036-1.376.399-.062.828-.14 1.28-.234l.127-.022a27.5 27.5 0 0 0 5.122-1.642 25.581 25.581 0 0 0 5.748-3.445l-.976-1.878s-1.999 2.192-6.355 3.444c-1.577.457-3.46.777-5.671.833-.24-.62-.55-1.215-.91-1.788l8.78-7.927-1.161-1.161-9.297 7.038a10.572 10.572 0 0 0-1.818-1.363l-.062-.037c.284-1.798.715-3.35 1.217-4.681 1.787-4.689 4.475-6.582 4.475-6.582l-.066-.019-1.689-1.191a25.945 25.945 0 0 0-4.753 6.376 26.831 26.831 0 0 0-2.02 4.957 11.45 11.45 0 0 0-2.091-.317c-.25-.018-.5-.028-.746-.03.745-4.741 2.708-11.995 8.108-15.063a51.662 51.662 0 0 1 5.507 3.837c.664.525 1.34 1.1 2.027 1.717a37.31 37.31 0 0 1 1.847 1.77zm2.664 26.873a35.441 35.441 0 0 0 3.143-.417l2.057 8.448-3.14.433zm-12.053-1.106c.228.068.457.144.691.202.865.229 1.71.41 2.554.556l-1.45 6.793-.18.82-4.846 1.187 1.054 4.328-2.421.892-.179.062-.994.358-1.665.602c1.265-4.05 1.533-8.19 1.518-11.14a11.083 11.083 0 0 0 2.916-1.676c.333-.258.651-.538.95-.832l1.77-1.827.282-.325zm60.853-1.954l-2.146-8.814-4.855 1.189.162.666-3.91-4.643-.073-.088-.015.048-1.098 4.917-1.115-4.578-4.855 1.189 3.32 13.633-4.732 1.696-2.257-9.272-4.855 1.19 2.383 9.787-4.728 1.713-1.327-5.451-4.855 1.189 1.313 5.393-4.985.656-2.302-9.455.253-.661c1.034-2.688 1.527-5.287 1.596-7.782a22.244 22.244 0 0 0-.726-6.27 24.867 24.867 0 0 0-1.188-3.474c-1.367-3.228-3.358-6.171-5.634-8.762a53.421 53.421 0 0 1 6.374-1.993c25.014-6.125 42.03 2.54 51.721 26.422l-6.575.878-1.242.172-1.182.166-2.45.335zM434.598 96.61a37.183 37.183 0 0 0 3.668 4.447l6.107 25.085a45.24 45.24 0 0 0-1.23 1.845c-3.756.972-7.169 3.281-9.245 6.709l-.232.383c-4.893-20.171-9.67-39.789-11.48-47.23a75.224 75.224 0 0 1-1.47-7.912 17.47 17.47 0 0 0 2.018-2.514l4.715 2.426 4.776 2.5.127 5.18.32 10.814zm72.115-40.147a110.747 110.747 0 0 1 2.92 9.974c2.503 10.279 6.735 27.736 10.981 45.358-1.854-.719-3.83-1.029-5.796-.98a46.652 46.652 0 0 0-8.2-3.918l-5.104-20.966a36.689 36.689 0 0 0 1.456-7.456l4.134 1.016-4.71-9.632-2.16-4.428 3.077-4.264 3.402-4.704z"/></g></g><g clip-path="url(#a716b)"><g><path fill="#ffe687" d="M448.146 70.336l3.135-.415 1.943-.255-.26.373-1.137 1.618-1.763 2.513-.73 1.044a2.639 2.639 0 0 0-.224 2.691l2.878 5.901-6.635-1.682a2.927 2.927 0 0 0-1.444-.008c-.44.108-.947.337-1.278.674l-3.396 3.028-.094.085-1.626 1.447-.157-6.567a2.501 2.501 0 0 0-.206-.92 2.833 2.833 0 0 0-1.228-1.357l-3.946-1.98-1.802-.899-.411-.208 2.084-.757 1.325-.483 1.131-.41 1.987-.724.274-.138a2.924 2.924 0 0 0 1.592-1.915l.253-1.2 1.106-5.28 2.19 2.639 1.258 1.517.784.946c.59.728 1.604 1.098 2.6.96l1.797-.238zm51.114-12.048l-.361.503-1.17 1.627-1.814 2.516-.578.803c-.577.812-.652 1.765-.236 2.642l2.854 5.801-6.624-1.632a2.927 2.927 0 0 0-1.444-.008c-.199.049-.392.122-.575.202l-.03.017c-.254.115-.483.259-.673.455l-5.252 4.435-.132-6.468c-.024-.929-.589-1.77-1.424-2.235l-3.51-1.777-1.785-.904-.693-.35 4.493-1.63 2.037-.737a2.913 2.913 0 0 0 1.866-2.053l.09-.384.124-.577.053-.25 1.087-5.038 3.246 3.87.237.286.16.19.023.021.321.38.22.255c.591.728 1.604 1.098 2.6.96l2.546-.342z"/></g></g><g clip-path="url(#a716b)"><g><path fill="#c9c9c9" d="M436.743 51.671c.416.084.834.14 1.25.188a28.32 28.32 0 0 0 5.702.156 35.76 35.76 0 0 0 1.683-.165c1.408-.177 2.58-.42 3.426-.627.239-.755.41-1.494.55-2.225a17.44 17.44 0 0 0-.1-6.978 19.159 19.159 0 0 0-1.104-3.416c-1.393-3.266-3.586-6.134-5.916-8.517a40.498 40.498 0 0 0-1.847-1.77 46.663 46.663 0 0 0-2.027-1.718 50.636 50.636 0 0 0-5.507-3.837c-5.4 3.068-7.37 10.324-8.108 15.064.255 0 .498.02.746.03.704.038 1.408.148 2.091.316a26.316 26.316 0 0 1 2.02-4.957 25.772 25.772 0 0 1 4.753-6.376l1.689 1.192.051.031s-2.687 1.893-4.474 6.581a23.638 23.638 0 0 0-1.217 4.681l.062.038c.646.38 1.257.83 1.818 1.363l9.296-7.039 1.162 1.162-8.78 7.927c.359.573.662 1.17.91 1.788 2.21-.057 4.092-.385 5.671-.833 4.358-1.244 6.355-3.444 6.355-3.444l.976 1.878a25.475 25.475 0 0 1-5.748 3.444 26.225 26.225 0 0 1-5.123 1.643l-.126.022c-.452.093-.89.174-1.28.234.041.457.047.915.036 1.376a10.91 10.91 0 0 1-.355 2.477c.494.117.978.228 1.465.311zm-8.938 2.154l1.146-1.18a5.81 5.81 0 0 0 .611-.741 5.772 5.772 0 0 0 .964-2.29 5.895 5.895 0 0 0-1.623-5.221 5.882 5.882 0 0 0-1.432-1.008 5.906 5.906 0 0 0-2.264-.627l-.207-.02a6.199 6.199 0 0 0-1.604.163 5.725 5.725 0 0 0-.893.307c-.264.109-.513.24-.758.389-.406.249-.778.525-1.11.862l-.195.207-1.567 1.618a5.832 5.832 0 0 0-1.514 2.849 6.033 6.033 0 0 0 .445 3.816 5.784 5.784 0 0 0 1.125 1.62c.218.212.457.4.7.57a5.814 5.814 0 0 0 2.296.937c.58.105 1.172.119 1.754.055a5.908 5.908 0 0 0 2.56-.9c.343-.216.668-.472.955-.772zm26.819-7.379c-.07 2.496-.563 5.095-1.597 7.782l-.265.647-.153.417-1.138.384c.054.04-.515.232-1.436.457-.548.135-1.232.285-2.008.422a35.44 35.44 0 0 1-3.143.416 34.63 34.63 0 0 1-4.474.117l-.58-.034-.842-1.038-1.398-1.73-.806-1.002-.181.847-.53 2.484a29.586 29.586 0 0 1-2.553-.556l-.683-.203-.282.324-1.77 1.827c-.307.296-.625.577-.95.833-.883.71-1.87 1.278-2.916 1.675.013 2.942-.253 7.09-1.518 11.14l-2.975 1.072-2.263.82-1.132.408c.419-.702.775-1.442 1.082-2.205 1.44-3.58 1.8-7.628 1.83-10.58a9.884 9.884 0 0 1-.746-.1 19.92 19.92 0 0 1-.688 2.7 24.226 24.226 0 0 1-2.876 5.96 22.808 22.808 0 0 1-2.405 3.014c-.202.217-.396.432-.609.643l-1.606-1.106s1.04-.749 2.208-2.455c1.301-1.915 2.765-5.042 3.11-9.695-.7-.34-1.37-.75-1.993-1.25-.163-.127-.312-.267-.468-.405l-10.025 7.658-1.15-1.112 9.369-8.582a9.989 9.989 0 0 1-.655-1.136c-8.965-.054-12.858 4.33-12.858 4.33l-.976-1.878c4.79-3.88 9.916-5.109 12.835-5.506a10.995 10.995 0 0 1-.143-2.25c-3.429-.756-6.728-.654-9.492-.233a31.114 31.114 0 0 0-6.483 1.729c-.605 3.473-.187 6.598.867 9.374 3.517 9.246 14.175 14.662 18.297 16.422l.498.204a11.186 11.186 0 0 0 1.808-1.748c.169-.209.336-.426.494-.641l2.042 1.052.231.12 2.192 1.13a17.025 17.025 0 0 1-2.017 2.513 15.958 15.958 0 0 1-2.246 1.935c-.3.214-.61.422-.932.616l-.988.603-.384-.135-.74-.26c-6.198-2.195-15.396-7.43-20.55-15.42-3.23-4.994-4.876-11.064-3.214-18.147l.282-1.154 1.073-.466c.158-.074 5.795-2.891 13.324-3.068a29.085 29.085 0 0 1 7.28.722 10.791 10.791 0 0 1 1.725-2.345l1.771-1.827a10.465 10.465 0 0 1 2.426-1.811c.3-2.816 1.048-7.145 2.88-11.289 1.852-4.166 4.796-8.15 9.513-10.196l1.073-.465 1.05.519c.804.411 1.649.884 2.518 1.42a47.564 47.564 0 0 1 6.719 4.987 43.969 43.969 0 0 1 1.987 1.877c.616.617 1.22 1.254 1.805 1.922 2.275 2.591 4.267 5.534 5.633 8.763.476 1.126.88 2.28 1.189 3.474a22.32 22.32 0 0 1 .726 6.27zm16.117 20.58l-11.66 2.855 1.144-1.62.706-1.002 2.566-3.618.332-.082 1.541.77 3.286 1.647.291.149z"/></g></g><g clip-path="url(#a716b)"><g><path fill="#d0d2d3" d="M540.65 129.616c2.133 1.427 3.61 3.596 4.216 6.085.653 2.68.238 5.419-1.192 7.78-1.788 2.95-5.088 4.676-8.456 4.821-1.784.076-3.579-.287-5.188-1.154l10.62-17.532zm-65.765 26.89l.002.008zm.002.008l21.652-5.302c.734 3.233-.033 6.473-1.84 8.988a11.254 11.254 0 0 1-1.99 2.119 11.035 11.035 0 0 1-8.786 2.38 11.034 11.034 0 0 1-3.592-1.246l-.477-.262a11.052 11.052 0 0 1-4.967-6.677zM443.29 168.29c-1.009 1.526-2.449 2.69-4.073 3.458-3.054 1.436-6.807 1.446-9.76-.353a10.182 10.182 0 0 1-4.633-6.353c-.614-2.522-.229-5.13 1.006-7.39z"/></g></g><g clip-path="url(#a716b)"><g><path fill="#818385" d="M520.295 117.2l8.768 5.35-10.645 17.572-8.766-5.34a10.182 10.182 0 0 1-4.634-6.354 10.195 10.195 0 0 1 1.193-7.78 10.188 10.188 0 0 1 2.986-3.156c.997-.676 2.12-1.19 3.34-1.488a10.116 10.116 0 0 1 7.758 1.196zm-30.594 6.936c.254.502.47 1.031.648 1.578.096.286.183.573.256.873l2.645 10.861-21.661 5.304-2.673-10.978c-.212-.91-.3-1.814-.29-2.707.053-4.987 3.447-9.504 8.493-10.74 2.912-.713 5.906-.265 8.458 1.333a11.013 11.013 0 0 1 4.124 4.476zm-43.777 8.338c2.183-.243 4.427.16 6.345 1.321a10.182 10.182 0 0 1 4.634 6.353c.652 2.68.237 5.419-1.193 7.78l-5.326 8.792-13.454-8.198-4.068-2.478 2.478-4.09 2.848-4.702a9.175 9.175 0 0 1 1.016-1.351c1.724-1.948 4.17-3.138 6.72-3.427z"/></g></g><g clip-path="url(#a716b)"><g><path fill="#b8b9ba" d="M537.067 122.486c.723.405 1.021 1.267.752 2.038a1.94 1.94 0 0 1-.162.348l-4.59 7.553-1.645 2.705-1.884 3.098-2.649 4.362-1.286 2.123-.541.882-.671 1.108-.08.108c-.33.45-.899.714-1.46.719a1.624 1.624 0 0 1-.89-.223c-.382-.268-.678-.654-.786-1.096a1.864 1.864 0 0 1-.048-.596c.016-.26.09-.498.24-.747l13.255-21.88c.267-.384.61-.67 1.142-.8.431-.106.856-.06 1.303.298zm-40.2 19.236a2.042 2.042 0 0 1 2.486 1.508 2.03 2.03 0 0 1-1.505 2.485l-26.574 6.507a2.024 2.024 0 0 1-2.478-1.51c-.132-.541-.009-1.083.286-1.57.245-.474.688-.785 1.22-.915l26.565-6.505zm-49.497 19.016l2.578 1.556c.381.268.678.655.785 1.096.077.316.078.607-.003.891l.002.008a1.716 1.716 0 0 1-.182.442c-.527.8-1.647 1.074-2.432.595L426.3 152.034c-.784-.478-1.046-1.552-.581-2.389.257-.425.61-.67 1.142-.8a1.625 1.625 0 0 1 1.281.207l4.49 2.728 2.953 1.8.826.502 2.187 1.326 8.772 5.33z"/></g></g><g clip-path="url(#a716b)"><g><path fill="#373737" d="M535.227 148.3c3.357-.151 6.659-1.868 8.455-4.822a10.21 10.21 0 0 0 1.193-7.78c-.606-2.488-2.084-4.657-4.217-6.084l-10.62 17.532c1.601.869 3.404 1.23 5.189 1.154zm-30.219-19.878c.653 2.68 2.28 4.919 4.633 6.353l8.767 5.341 10.645-17.573-8.767-5.34a10.13 10.13 0 0 0-7.757-1.197 10.15 10.15 0 0 0-3.34 1.488 10.188 10.188 0 0 0-2.986 3.157 10.19 10.19 0 0 0-1.195 7.771zm17.832 19.102c.57-.008 1.133-.26 1.453-.718l.079-.107.671-1.108.542-.883 1.286-2.122 2.649-4.362 1.884-3.098 1.645-2.705 4.59-7.553c.069-.114.119-.232.161-.348.27-.772-.02-1.636-.743-2.04-.437-.352-.864-.406-1.304-.299-.53.13-.872.426-1.142.8l-13.254 21.88c-.15.25-.222.496-.24.747-.014.198-.002.389.048.597.106.433.412.825.786 1.095.266.156.583.228.89.223zm15.734 5.46c-.705.173-1.419.277-2.11.323l1.926 7.915 5.146-1.26a3.193 3.193 0 0 1 3.872 2.36 3.203 3.203 0 0 1-2.353 3.882l-18.557 4.544a3.193 3.193 0 0 1-3.872-2.359 3.204 3.204 0 0 1 2.353-3.883l5.145-1.26-2.91-11.952-.181-.096-.093-.057a7.064 7.064 0 0 1-2.472 1.152 6.705 6.705 0 0 1-3.483-.073 6.338 6.338 0 0 1-2.469-1.327 6.718 6.718 0 0 1-1.592-2.027l-.199-.418a6.182 6.182 0 0 1-.367-1.075 7.043 7.043 0 0 1-.09-2.755l-9.2-5.606c-3.51-2.13-5.975-5.504-6.886-9.461a15.267 15.267 0 0 1 .08-7.587c.37-1.369.926-2.696 1.695-3.942a14.15 14.15 0 0 1 2.376-2.92 15.208 15.208 0 0 1 3.649-2.568 16.007 16.007 0 0 1 6.826-1.725c1.966-.05 3.943.27 5.796.98a14.08 14.08 0 0 1 2.292 1.105l9.282 5.656c2.17-1.528 5.217-1.727 7.49-.37a6.793 6.793 0 0 1 3.168 6.87c3.509 2.131 5.962 5.455 6.885 9.462.96 3.945.362 8.06-1.774 11.53a14.985 14.985 0 0 1-9.373 6.942zm-40.726-7.27a2.03 2.03 0 0 0 1.505-2.484 2.024 2.024 0 0 0-2.478-1.51l-26.574 6.507c-.53.13-.974.441-1.219.916-.295.486-.416 1.036-.286 1.569a2.024 2.024 0 0 0 2.478 1.51zm-26.261-2.97l21.669-5.306-2.644-10.862c-.071-.291-.16-.587-.257-.872a11.07 11.07 0 0 0-.654-1.568 11.082 11.082 0 0 0-4.124-4.476c-2.55-1.59-5.546-2.046-8.458-1.333-5.046 1.236-8.44 5.753-8.492 10.74-.012.893.077 1.798.29 2.707l.016.067zm23.127 17.443a11.217 11.217 0 0 0 1.846-8.998l-21.66 5.304a11 11 0 0 0 4.968 6.686c.155.094.316.178.478.262a11.403 11.403 0 0 0 3.592 1.246c1.439.238 2.92.184 4.38-.173a11.113 11.113 0 0 0 4.406-2.208 10.944 10.944 0 0 0 1.99-2.119zm3.459-23.468a7.044 7.044 0 0 1 5.987 5.342c.705 2.897-.523 5.87-2.863 7.492l.063.258a16.075 16.075 0 0 1-.068 7.919 16.495 16.495 0 0 1-1.262 3.272 16.544 16.544 0 0 1-2.462 3.575 16.268 16.268 0 0 1-3.582 2.95l.944 3.878 5.536-1.355c1.842-.451 3.671.706 4.121 2.554a3.414 3.414 0 0 1-2.496 4.121l-19.918 4.877c-1.843.451-3.67-.698-4.11-2.504a3.414 3.414 0 0 1 2.497-4.121l5.535-1.355-.922-3.787a15.916 15.916 0 0 1-5.62-1.2 16.54 16.54 0 0 1-2.313-1.153 14.977 14.977 0 0 1-1.488-1.02 16.206 16.206 0 0 1-2.504-2.412 16.097 16.097 0 0 1-3.317-6.543l-.063-.258a7.041 7.041 0 0 1-5.985-5.334c-.45-1.848-.147-3.783.856-5.369a6.73 6.73 0 0 1 2.005-2.131l-2.754-11.311a15.62 15.62 0 0 1-.343-1.989c-.105-.9-.138-1.792-.09-2.677.356-6.957 5.201-13.17 12.289-14.906 4.224-1.034 8.561-.341 12.247 1.905a15.759 15.759 0 0 1 5.726 5.927c.199.348.392.706.56 1.07.44.943.787 1.934 1.04 2.974l2.754 11.311zm-47.789 20l5.328-8.783a10.21 10.21 0 0 0 1.193-7.78c-.653-2.68-2.28-4.918-4.634-6.352-1.922-1.179-4.166-1.582-6.347-1.33-2.54.296-4.985 1.485-6.72 3.427a9.676 9.676 0 0 0-1.016 1.351l-2.848 4.702-2.478 4.09 4.068 2.478 13.454 8.198zm.157 8.014c.088-.145.14-.29.185-.433l-.002-.009c.08-.284.08-.575.003-.891-.106-.433-.412-.825-.786-1.095l-2.58-1.565-8.772-5.33-2.187-1.326-.826-.503-2.953-1.8-4.49-2.727a1.599 1.599 0 0 0-1.28-.207c-.532.13-.885.376-1.143.8-.464.837-.203 1.91.582 2.389l21.818 13.292c.784.479 1.905.204 2.431-.595zm-11.324 7.015c1.634-.762 3.064-1.932 4.073-3.458l-17.46-10.638c-1.235 2.26-1.62 4.868-1.006 7.39.653 2.68 2.28 4.919 4.633 6.353 2.953 1.8 6.706 1.789 9.76.353zm22.513-32.72c.96 3.945.362 8.06-1.764 11.535l-5.59 9.227a6.787 6.787 0 0 1 1.225 2.972c.132.867.105 1.73-.086 2.57a7.088 7.088 0 0 1-.78 1.999l-.215.344c-.882 1.362-2.265 2.327-3.875 2.721-.896.22-1.812.25-2.709.108l-.1.165-.08.108 2.908 11.944 5.146-1.26c1.701-.417 3.456.653 3.872 2.359a3.204 3.204 0 0 1-2.353 3.883l-18.556 4.544a3.193 3.193 0 0 1-3.872-2.36 3.204 3.204 0 0 1 2.352-3.882l5.145-1.26-1.925-7.907c-.664.268-1.345.506-2.05.678-3.984.976-8.056.324-11.546-1.767-3.509-2.13-5.975-5.505-6.885-9.462-.96-3.945-.362-8.06 1.774-11.53l.063-.103a6.746 6.746 0 0 1-.393-7.611c1.476-2.39 4.312-3.49 6.892-3.117l1.718-2.837 1.8-2.972 2.07-3.417c2.077-3.428 5.49-5.736 9.246-6.709.529-.138 1.053-.258 1.597-.338a15.622 15.622 0 0 1 5.558.147c1.575.329 3.114.905 4.528 1.766a15.415 15.415 0 0 1 3.084 2.482 14.746 14.746 0 0 1 3.801 6.98zm2.099-75.469l-.202-.109-.132.182-2.564 3.627-.708.993-1.153 1.623-.32.458-1.576 2.229-3.09 4.425 2.267 4.657 4.685 9.745-7.444-1.899-2.982-.76-5.595-1.417-3.614 3.213-.7.63-1.401 1.252c5.844 8.834 16.082 14.44 27.537 13.92 16.246-.777 29.089-13.658 30.006-29.36l-.16-.04-2.648-.657-2.996-.748-4.364 3.855-3.606 3.176-4.447 3.911-.246-10.725-.118-4.928-4.69-2.361-2.836-1.423-1.793-.901-.291-.15-3.286-1.647-1.533-.77zm20.598-5.043l-.137.554-.085.409a2.939 2.939 0 0 1-1.866 2.053l-2.037.736-4.493 1.63.693.35 1.785.904 3.51 1.777c.835.466 1.402 1.315 1.424 2.236l.132 6.467 5.252-4.434c.184-.186.419-.34.672-.456l.031-.016a3.64 3.64 0 0 1 .575-.203c.44-.108.946-.126 1.444.008l6.624 1.633-2.855-5.801c-.417-.886-.34-1.83.237-2.642l.578-.803 1.814-2.517 1.17-1.627.36-.503-4.335.577-2.546.341c-.993.146-2.007-.223-2.6-.96l-.22-.254-.32-.38-.023-.021-.161-.19-.237-.286-3.246-3.87-1.086 5.036-.054.252zM443.75 69.614l-.776-.948-1.257-1.517-2.19-2.64-1.107 5.281-.253 1.2a2.924 2.924 0 0 1-1.591 1.915l-.275.138-1.987.725-1.131.409-1.325.483-2.084.757.411.208 1.802.9 3.947 1.979c.557.304.992.789 1.227 1.357.123.288.198.596.206.92l.157 6.567 1.626-1.447.094-.085 3.396-3.028c.331-.337.838-.567 1.278-.674.44-.108.945-.126 1.444.008l6.636 1.682-2.88-5.9c-.417-.886-.351-1.881.225-2.692l.73-1.044 1.763-2.513 1.136-1.618.261-.373-1.942.255-3.144.417-1.798.238c-.993.146-2.006-.223-2.599-.96zm-25.474 5.497l-.533-.275-.453-.234.436-.16 1.327-.474 3.395-1.228 2.975-1.073 1.665-.601.994-.358.179-.062 2.42-.892 2.832-1.047.961-4.468.179-.82 1.45-6.793.53-2.485.18-.846.807 1.002 1.398 1.73.842 1.037.325.397 3.107 3.843 3.434 4.168.246-.034 3.14-.433 2.34-.318 2.642-.347 4.985-.656 3.195-.42-.122-.068 1.794-.65 4.727-1.714 4.445-1.609.283-.104 4.731-1.697.43-.149 1.118-5.124.796-3.555.317-1.41 1.098-4.916.015-.048.074.088 3.91 4.643 2.535 3.012 3.41 4.069.893-.122 2.45-.335 1.183-.166 1.242-.172 6.575-.878 2.538-.34 2.453-.327-1.685 2.327-1.77 2.444-3.402 4.704-3.077 4.264 2.16 4.428 4.71 9.632-4.134-1.016a36.689 36.689 0 0 1-1.456 7.456c-2.173 7.076-6.416 13.31-12.07 17.966a37.947 37.947 0 0 1-22.374 8.627 37.591 37.591 0 0 1-7.736-.425c-8.231-1.3-15.544-5.295-21.051-11.047a37.183 37.183 0 0 1-3.668-4.446l-1.937 1.727-.32-10.814-.126-5.18-4.777-2.5-4.715-2.426-2.192-1.13-.232-.12-2.041-1.052zm45.926 24.798c8.208 1.747 13.62-1.853 15.749-3.688-1.715-2.456-3.72-2.997-7.564-2.858-4.555.216-7.995 2.16-8.185 6.546zm-1.743.895c-3.699-1.467-6.803-4.067-8.548-7.406l31.056-7.71a15.495 15.495 0 0 1-5.498 12.706 16.19 16.19 0 0 1-6.165 3.211 15.656 15.656 0 0 1-3.98.525 21.2 21.2 0 0 1-.971-.018l-.017.004c-.427-.019-.832-.06-1.224-.115a17.677 17.677 0 0 1-4.653-1.197z"/></g></g><g clip-path="url(#a716b)"><g><path fill="#49b7eb" d="M408.756 116.996l-1.415-11.736 10.476-4.109-11.175 1.237-4.147-11.11 1.425 11.777-10.477 4.065 11.176-1.194zm112.38-72.011l3.324 8.993-1.14-9.528 8.46-3.315-9.03.977-3.366-8.983 1.183 9.517-8.505 3.317zm-109.915 71.152l1.182 9.517-8.505 3.317 9.075-.978 3.311 8.943-1.12-9.48 8.503-3.325-9.073.987zm116.654-47.05l-5.007-13.379 1.704 14.188-8.132 3.19.304 1.249 8.683-.927 5.007 13.379-1.704-14.188 12.685-4.967z"/></g><g><path fill="#49b7eb" d="M536.832 83.05a2.503 2.503 0 1 1 4.863-1.19 2.503 2.503 0 1 1-4.863 1.19z"/></g><g><path fill="#49b7eb" d="M410.648 93.303a2.503 2.503 0 1 1 4.863-1.19 2.503 2.503 0 1 1-4.863 1.19z"/></g><g><path fill="#49b7eb" d="M504.359 34.224a2.503 2.503 0 1 1 4.863-1.19 2.503 2.503 0 1 1-4.863 1.19z"/></g></g></g><g clip-path="url(#clip-241c67ca-1854-4ad4-8455-078131d481a7)"><g/><g clip-path="url(#a716c)"><g><path fill="#bbd758" d="M364.763 135.15c.376 1.319.658 2.672.846 4.06m-.009 0c.188 1.388.29 2.801.29 4.24m-89.141-20.526c0-11.797 3.322-21.572 10.204-29.942v60.115c-6.438-8.653-10.204-19.027-10.204-30.173zm131.59-64.321c4.766 2.596 7.66 7.333 7.66 12.525v71.303c.052 5.192-2.894 9.98-7.668 12.525l-4.816 2.613c6.575-10.126 10.35-21.889 10.35-34.396.05-.609.555-5.955-2.238-9.116-2.536-2.853-7.514-2.853-10.204-.051-2.998 3.101-2.844 8.404-2.844 8.91 0 13.784-5.747 26.369-15.183 35.981V71.985c0-7.025-5.687-12.731-12.69-12.731h-22.842V56.71c0-7.025-5.687-12.731-12.69-12.731-6.609 0-12.04 5.08-12.629 11.557a81.243 81.243 0 0 0-13.569 3.718h-9.333c-6.917 0-12.536 5.551-12.681 12.456-15.576 12.603-25.396 30.893-25.396 51.206 0 14.692 5.14 28.33 13.876 39.52l-13.774-7.48c-4.773-2.596-7.668-7.333-7.668-12.525V71.128c0-5.14 2.946-9.93 7.668-12.525l65.65-35.656c4.766-2.596 10.606-2.596 15.38 0l65.642 35.656zm-57.76 76.658c.189.993.35 2.03.487 3.084m-21.305 53.338h10.486"/></g></g><g clip-path="url(#a716c)"><g><path fill="#dbdbdb" d="M266.647 122.924c0-17.297 7.753-33 20.306-44.488v6.648c-1.059 1.216-1.64 2.013-1.725 2.141-9.137 9.672-13.552 21.34-13.552 35.7 0 14.486 5.739 27.782 15.277 38.122v6.366c-12.553-11.489-20.306-27.192-20.306-44.489zm141.18-5.449c1.068 1.123 1.119 3.976.974 5.458 0 15.497-6.225 29.719-16.55 40.77a68.614 68.614 0 0 1-8.838 7.933v-5.8c12.476-10.88 20.256-26.13 20.256-43.015-.052-1.165.247-4.018 1.417-5.243.863-.865 2.331-.565 2.741-.103z"/></g></g><g clip-path="url(#a716c)"><g><path fill="#a6a8ab" d="M365.848 144.213c-.307 14.615-10.862 26.686-24.773 29.282l-3.364 3.975-2.118 2.502-2.092 2.467-3.22 3.804-.298.351h40.74c3.4 0 6.269-2.227 7.25-5.303.231-.737.368-1.516.368-2.339V129.53l-12.493 14.684zm-61.124-.762c0-16.963 13.705-30.713 30.613-30.713a30.066 30.066 0 0 1 17.873 5.86l11.186-13.493h-72.37v73.847c0 3.316 2.1 6.126 5.038 7.18l2.912-3.513 1.64-1.979 1.69-2.039.59-.71 2.168-2.622 3.348-4.044 4.748-5.723a30.346 30.346 0 0 1-9.436-22.051z"/></g></g><g clip-path="url(#a716c)"><path fill="#009435" d="M370.715 64.351h-22.842v7.642c0 .54-.043 1.062-.111 1.585a15.264 15.264 0 0 1 2.647 8.601c0 8.439-6.823 15.284-15.234 15.284s-15.226-6.845-15.226-15.284c0-3.195.982-6.15 2.647-8.601a12.145 12.145 0 0 1-.11-1.585v-7.642h-22.843c-.897 0-1.75.163-2.545.446a7.59 7.59 0 0 0-2.553 1.533 7.596 7.596 0 0 0-2.434 4.626 8.358 8.358 0 0 0-.077 1.046v28.014h86.307V72.002c-.009-4.232-3.407-7.65-7.626-7.65z"/></g><g clip-path="url(#a716c)"><path fill="#e6e7e8" d="M342.664 55.313c-.658-3.555-3.749-6.237-7.48-6.237-3.536 0-6.49 2.408-7.353 5.672a7.836 7.836 0 0 0-.265 1.97v15.284c0 4.223 3.399 7.641 7.617 7.641 4.219 0 7.617-3.41 7.617-7.641V56.718c0-.48-.05-.95-.136-1.405z"/></g><g clip-path="url(#a716c)"><g><path fill="#4b4e49" d="M341.067 173.504c13.91-2.596 24.465-14.667 24.772-29.282m-19.384-19.208c.256.155.504.412.76.712l5.995-7.128a30.066 30.066 0 0 0-17.873-5.86c-16.908 0-30.613 13.75-30.613 30.713a30.32 30.32 0 0 0 9.444 22.051l7.463-8.91c-4.064-5.097-4.927-12.379-1.468-18.333.965-1.628 2.33-3.11 2.638-3.41.205-.205 1.119.412.811.866-1.468 5.294-.76 8.96 1.017 12.482.153.051.81.36.913.103.359-10.898 6.038-17.674 12.792-22.309 3.8-1.182 7.002-1.585 8.121-.977z"/></g></g><g clip-path="url(#a716c)"><path fill="#a4cc40" d="M346.455 125.014c-1.118-.608-4.312-.205-8.12.969-6.755 4.634-12.443 11.41-12.793 22.308-.102.257-.76-.051-.913-.103-1.776-3.512-2.485-7.179-1.016-12.482.307-.463-.607-1.07-.812-.865-.307.308-1.673 1.782-2.638 3.41-3.45 5.962-2.588 13.244 1.468 18.333l25.584-30.867c-.256-.291-.512-.548-.76-.703z"/></g><g clip-path="url(#a716c)"/><g clip-path="url(#a716c)"><path fill="#b4db53" d="M351.28 140.47a43.599 43.599 0 0 0-.214-2.125 43.047 43.047 0 0 0-.486-3.084c-.829-4.318-2.152-7.942-3.365-9.535l-25.584 30.867c1.324 1.679 2.998 3.16 4.979 4.223 7.967 4.48 18.069 1.576 22.492-6.417.3-.53.564-1.096.795-1.679.23-.59.435-1.2.614-1.833.18-.634.325-1.285.444-1.953.12-.669.214-1.354.282-2.048.069-.694.12-1.405.145-2.116.026-.711.026-1.43.009-2.15-.026-.711-.06-1.431-.111-2.15z"/></g><g clip-path="url(#a716c)"><g><path fill="#b5b7ba" d="M364.396 105.096h13.936v24.425l-12.484 14.684.043-.309.008-.308v-.154c0-3.838-.7-7.514-1.98-10.898a30.49 30.49 0 0 0-1.47-3.28 30.594 30.594 0 0 0-9.24-10.667l11.187-13.493zm-29.059 69.016c1.52 0 3.04-.103 4.517-.368.41-.052.812-.155 1.221-.257l-3.364 3.975-2.118 2.501-2.092 2.468-3.22 3.803-.298.352H299.65a7.558 7.558 0 0 1-2.579-.454l2.912-3.513 1.64-1.979 1.69-2.039.59-.71 2.169-2.622 3.347-4.044 4.748-5.723c5.482 5.355 12.894 8.61 21.169 8.61z"/></g></g><g clip-path="url(#a716c)"><path fill="#373737" d="M286.953 153.097c-6.438-8.653-10.204-19.027-10.204-30.173 0-11.797 3.322-21.572 10.204-29.942zm40.613-96.379c0-.685.094-1.336.265-1.97a7.596 7.596 0 0 1 7.352-5.672 7.596 7.596 0 0 1 7.48 6.237c.086.454.137.925.137 1.397v15.283c0 4.224-3.398 7.642-7.617 7.642-4.218 0-7.617-3.41-7.617-7.642zm-33.021 9.612a7.674 7.674 0 0 1 2.553-1.533 7.566 7.566 0 0 1 2.545-.446h22.842v7.642c0 .54.043 1.062.111 1.585a15.264 15.264 0 0 0-2.647 8.601c0 8.439 6.823 15.284 15.234 15.284s15.234-6.845 15.234-15.284c0-3.195-.982-6.15-2.647-8.601.069-.523.111-1.045.111-1.585v-7.642h22.843c4.21 0 7.617 3.41 7.617 7.642v28.014h-86.315V71.993c0-.351.034-.702.076-1.045a7.652 7.652 0 0 1 2.443-4.618zm-7.592 12.106v6.648c-1.059 1.216-1.64 2.013-1.725 2.141-9.137 9.681-13.552 21.34-13.552 35.7 0 14.486 5.747 27.782 15.277 38.122v6.366c-12.553-11.489-20.306-27.192-20.306-44.489 0-17.297 7.753-33 20.306-44.488zm91.38 100.516c0 .814-.129 1.602-.368 2.34a7.601 7.601 0 0 1-7.25 5.302h-71.072a7.625 7.625 0 0 1-7.617-7.633v-73.848h86.306zm5.08-7.316v-5.8c12.476-10.871 20.256-26.13 20.256-43.015-.052-1.173.256-4.026 1.417-5.243.863-.865 2.331-.557 2.741-.103 1.068 1.123 1.119 3.976.965 5.45 0 15.497-6.225 29.718-16.549 40.77a67.97 67.97 0 0 1-8.83 7.941zm28.223-57.57c-2.536-2.853-7.515-2.853-10.205-.052-2.997 3.11-2.843 8.405-2.843 8.91 0 13.784-5.739 26.378-15.183 35.982V71.993c0-7.025-5.687-12.73-12.69-12.73h-22.842v-2.545c0-7.025-5.687-12.73-12.69-12.73-6.61 0-12.04 5.08-12.63 11.556a81.242 81.242 0 0 0-13.568 3.719h-9.342c-6.917 0-12.536 5.56-12.681 12.456-15.576 12.602-25.396 30.893-25.396 51.205 0 14.693 5.14 28.331 13.876 39.52a72.418 72.418 0 0 0 11.503 11.677v4.831c0 7.025 5.687 12.731 12.69 12.731h71.072c7.002 0 12.69-5.706 12.69-12.73v-1.029c8.112-5.5 14.969-12.422 20.11-20.346 6.575-10.127 10.349-21.89 10.349-34.397.06-.608.572-5.963-2.22-9.115z"/></g></g><g clip-path="url(#clip-241c67ca-1854-4ad4-8455-078131d481a7)"><g/><g clip-path="url(#a716d)"><g><path fill="#64c9d7" d="M154.606 172.633a94.549 94.549 0 0 1-2.148-2.38 53.513 53.513 0 0 0 2.7 2.7l-.552-.32zm39.087-108.017c-.451 2.779.346 5.743 2.34 8.472.65.914 1.443 1.787 2.335 2.64l-9.795 13.853-7.538-4.046-3.781 7.004-13.809-3.868.429-19.352-5.036 18.696-18.439-.191 17.754 4.966-.421 19.301 5.028-18.645 13.926.144-29.396 54.371-5.192 7.339c-7.811-14.583-11.21-31.741-8.68-49.369 5.118-35.635 32.87-62.42 66.611-68.041a4.096 4.096 0 0 0 .079 1.566c-.101.037-.21.074-.327.16l-2.72 18.949c-1.847 1.741-3.01 3.796-3.368 6.051zm99.734 60.743c-1.993-4.422-6.116-8.811-13.654-12.555 2.24-4.303 5.277-2.375 6.254-4.344.931-1.898-3.232-5.947-3.232-5.947-.625-.599-1.49-.973-2.325-.84-3.767.56-6.636 4.35-8.28 7.165-3.474-2.024-9.285-5.046-15.777-6.956l2.064-7.663 9.688.058-9.324-2.598.226-10.085-2.572 9.75-9.681-.109 9.317 2.65-.218 7.857c-3.125-.886-6.394-1.499-9.622-1.613l-4.074-16.685c4.998-2.07 8.326-5.371 9.024-9.566.375-2.374-.155-4.782-1.478-7.105l2.834-19.735c27.333 15.204 44.168 45.655 40.83 78.321z"/></g></g><g clip-path="url(#a716d)"><path fill="#addfe6" d="M222.058 177.19l-2.981 9.346c-4.124 1.054-8.043 1.16-11.3-.02-5.898-2.171-11.333-6.782-13.69-13.26l15.14 8.127 3.144-5.833zm-11.14-87.138c-4.545.121-8.54 2.274-11.118 5.544l-11.21-6.02 9.797-13.854c4.738 4.511 12.632 8.012 21.49 9.446l1.096.157c8.262 1.177 15.757.387 21.244-1.881l4.074 16.685c-7.414-.253-14.626 2.132-19.434 10l-1.876-1.01c.587-1.61.907-3.353.855-5.166-.211-7.892-6.89-14.114-14.918-13.9zm-37.194 80.82a39.884 39.884 0 0 0 3.804 12.897c-8.548-3.351-16.153-7.234-22.36-10.814a57.87 57.87 0 0 1-2.701-2.7 81.766 81.766 0 0 1-10.369-14.955l5.192-7.339-.072.137 21.316 11.443c-.012.448-.009.906.022 1.36.278 4.04 2.245 7.56 5.168 9.972zm-18.565 2.082c6.208 3.58 13.812 7.462 22.36 10.814a39.361 39.361 0 0 0 2.15 3.875c-9.045-3.457-17.671-8.315-24.51-14.69z"/></g><g clip-path="url(#a716d)"><g><path fill="#3cbfd1" d="M234.575 71.607c-1.47-1.125-5.592-2.982-12.145-3.916-6.553-.933-11.068-.358-12.76.368 1.47 1.125 5.591 2.983 12.145 3.916 6.553.934 11.033.302 12.76-.368zm-30.396-4.33c.759-5.283 10.67-5.746 18.923-4.57 8.254 1.176 17.636 4.396 16.879 9.67-.758 5.275-10.62 5.754-18.924 4.57-8.253-1.175-17.636-4.387-16.878-9.67zm38.495-1.272l-.051-.007-.546-.484c-4.097-3.426-10.611-6.082-17.796-7.21l-.799-.113c-7.998-1.14-15.63-.249-20.44 2.323l-.82.393c-2.189 1.416-3.318 2.88-3.554 4.522-.265 1.483.217 3.08 1.462 4.735 1.404 1.946 3.641 3.76 6.418 5.321 3.876 2.185 8.82 3.874 14.129 4.717l1.054.15c8.05 1.147 14.86.174 19.263-1.86 3.056-1.413 4.963-3.336 5.296-5.414.374-2.184-.952-4.663-3.616-7.073z"/></g></g><g clip-path="url(#a716d)"><path fill="#6d6e70" d="M220.685 80.203c-5.317-.844-10.26-2.541-14.128-4.717-2.777-1.562-5.014-3.384-6.418-5.32-1.246-1.655-1.729-3.245-1.463-4.736.236-1.642 1.366-3.106 3.555-4.522l.82-.393c4.81-2.563 12.433-3.464 20.44-2.323l.799.114c7.184 1.127 13.69 3.782 17.795 7.21l.546.483.051.007c2.664 2.41 3.99 4.889 3.625 7.074-.342 2.077-2.24 4.001-5.296 5.414-4.404 2.034-11.214 3.008-19.263 1.86zm29.078-13.43l-.043-.066c-.98-1.695-2.383-3.338-4.2-4.875l-.532-.586-.298-.042c-4.765-3.78-11.902-6.63-19.633-7.878l-.901-.128c-8.798-1.253-17.09-.353-22.865 2.54l-.82.392a16.015 16.015 0 0 0-3.351 2.383l-.06.052c-1.846 1.741-3.007 3.787-3.367 6.051-.451 2.779.346 5.743 2.35 8.465.649.913 1.442 1.795 2.335 2.64 4.739 4.51 12.632 8.011 21.49 9.446l1.097.156c8.262 1.178 15.755.396 21.243-1.88 4.999-2.07 8.326-5.371 9.024-9.566.374-2.366-.146-4.781-1.47-7.104z"/></g><g clip-path="url(#a716d)"><path fill="#9cdde6" d="M221.815 71.975c-6.554-.933-10.667-2.79-12.145-3.916 1.683-.728 6.207-1.301 12.76-.368 6.553.934 10.667 2.79 12.145 3.916-1.727.67-6.207 1.302-12.76.368zm1.287-9.268c-8.253-1.176-18.165-.705-18.923 4.57-.757 5.274 8.625 8.495 16.878 9.67 8.296 1.182 18.166.705 18.924-4.57.757-5.274-8.634-8.495-16.879-9.67z"/></g><g clip-path="url(#a716d)"><g><path fill="#fff" d="M259.057 81.601l-2.571 9.75-9.682-.108 9.317 2.649-.218 7.857.5.14 2.064-7.663 9.689.059-9.324-2.599zm-82.37 11.989l.568-1.06-13.808-3.868.437-19.35-5.036 18.695-18.44-.182 17.753 4.966-.42 19.301 5.019-18.646z"/></g><g><path fill="#fff" d="M168.86 79.783a3.681 3.681 0 0 1 4.167-3.112 3.671 3.671 0 0 1 3.125 4.151 3.681 3.681 0 0 1-4.168 3.113 3.671 3.671 0 0 1-3.125-4.152z"/></g><g><path fill="#fff" d="M264.096 84.203a3.681 3.681 0 0 1 4.168-3.113 3.671 3.671 0 0 1 3.125 4.152 3.681 3.681 0 0 1-4.168 3.112 3.671 3.671 0 0 1-3.125-4.151z"/></g><g><path fill="#fff" d="M144.44 100.996a3.681 3.681 0 0 1 4.169-3.112 3.671 3.671 0 0 1 3.125 4.151 3.681 3.681 0 0 1-4.169 3.113 3.671 3.671 0 0 1-3.124-4.152z"/></g><g><path fill="#fff" d="M211.924 134.145c.491-1.303-.115-2.763-1.407-3.25-1.551-.61-3.54-1.256-5.638-1.926l1.525-6.03a2.499 2.499 0 0 0-1.808-3.056c-1.272-.38-2.715.425-3.069 1.8l-1.46 5.753c-1.657-.538-3.212-1.062-4.45-1.567-1.308-.489-2.774.115-3.265 1.419-.49 1.303.115 2.763 1.424 3.252 1.412.556 3.185 1.136 5.067 1.742l-1.557 6.128a2.499 2.499 0 0 0 1.808 3.057l.246.035c1.25.178 2.482-.614 2.814-1.837l1.481-5.845c1.841.59 3.604 1.178 4.973 1.736.196.08.392.108.596.137a2.54 2.54 0 0 0 2.72-1.548zm12.697-19.496c-1.344 3.377-2.365 7.465-2.964 12.364-.887 1.464-1.342 2.522-1.48 2.874-1.115 1.664-2.127 3.395-2.977 5.209l-.301.708-6.42 11.31c.39-1.334-.373-2.661-1.655-3.095a86.95 86.95 0 0 0-15.437-3.4c.397-.591.556-1.338.356-2.057-2.476-9.096-4.348-18.409-5.661-27.745-.14-1.143-1.006-1.872-2.19-2.144-1.155-.113-2.215.505-2.67 1.555l-6.12 14.895a2.532 2.532 0 0 0-1.846 2.165 2.452 2.452 0 0 0 .329 1.516l-3.35 8.162a2.503 2.503 0 0 0 1.366 3.296l.114.051c-1.778.179-3.553.401-5.32.685-1.416.256-2.313 1.554-2.1 2.906a2.576 2.576 0 0 0 2.147 2.086c.246.035.509.02.762.005 12.64-2.062 25.816-1.048 38.062 2.83a2.615 2.615 0 0 0 2.655-.727l-12.158 21.422-2.754-1.48a14.053 14.053 0 0 0 2.574-9.103c-.536-7.87-7.47-13.817-15.485-13.274-5.686.391-10.376 3.939-12.441 8.777l-15.574-8.362 17.749-32.816 11.29-20.88 2.521 1.352 11.79 6.328a13.951 13.951 0 0 0-.677 4.655c.202 7.891 6.89 14.114 14.917 13.902a14.608 14.608 0 0 0 10.765-5.136zm-47.67 24.268l3.5-8.539 6.2.668a241.98 241.98 0 0 0 2.207 8.859l.1.265a87.48 87.48 0 0 0-13.119-.03 2.78 2.78 0 0 0 1.113-1.223zm7.54-18.434a230.11 230.11 0 0 0 1.032 5.374l-3.091-.337z"/></g></g><g clip-path="url(#a716d)"><g><path fill="#808184" d="M199.667 173.411l-3.752-.63.604-1.062 1.243-2.19-2.754-1.481c-.5.697-1.062 1.352-1.669 1.956l-.113.122c.209 1.084.501 2.128.86 3.13l15.14 8.127 3.145-5.833-2.66-.448-10.044-1.69zm24.227-61.976a14.552 14.552 0 0 1-1.458 2.056l2.175 1.165c.323-.8.658-1.565 1.023-2.29.39-.783.793-1.538 1.223-2.237l-1.876-1.01c-.29.814-.652 1.583-1.087 2.316zm-42.85-25.907l-3.78 7.004-.57 1.06-29.396 54.37-.072.137 21.317 11.443c.026-.912.147-1.81.34-2.673.19-.837.453-1.646.791-2.427L154.1 146.08l17.732-32.818 11.29-20.88 2.521 1.352 11.79 6.328c.255-.81.583-1.584.975-2.323.404-.755.871-1.474 1.392-2.143l-11.21-6.02-7.545-4.048zM252.357 46.9c-8.362-4.647-17.701-7.861-27.748-9.293-6.698-.954-13.322-1.034-19.79-.383-1.606.186-3.219.362-4.786.649l-.003.017a4.063 4.063 0 0 0 .079 1.566c-.11.036-.219.072-.327.16l-2.72 18.949.059-.052a16.003 16.003 0 0 1 3.351-2.383l.82-.392c5.775-2.884 14.067-3.793 22.865-2.54l.9.128c7.73 1.257 14.869 4.097 19.634 7.878l.298.042.532.586c1.809 1.536 3.22 3.18 4.2 4.875l2.826-19.676a.39.39 0 0 0-.19-.13z"/></g></g><g clip-path="url(#a716d)"><path fill="#231f20" d="M293.417 125.366c-2.002-4.415-6.116-8.81-13.653-12.554 2.24-4.303 5.285-2.375 6.253-4.345.931-1.898-3.232-5.947-3.232-5.947-.625-.598-1.49-.972-2.325-.84-3.767.56-6.636 4.35-8.28 7.166-3.474-2.025-9.285-5.047-15.776-6.957l-.5-.14c-3.126-.886-6.386-1.497-9.622-1.613-7.414-.261-14.627 2.132-19.435 10-.43.7-.832 1.446-1.223 2.237a33.643 33.643 0 0 0-1.023 2.29c-1.352 3.376-2.364 7.465-2.964 12.365 1.514-2.506 4.283-6.146 8.82-9.224a31.887 31.887 0 0 1 5.28-2.885c3.66-1.569 8.094-2.674 13.443-2.897a51.647 51.647 0 0 1 4.328.004c.051.007 28.38 1.149 34.798 22.842a39.48 39.48 0 0 1 2.125 5.495c.293.983.557 1.98.774 3.004.144.574.258 1.169.355 1.761 2.495-4.569 5.282-12.198 1.857-19.762z"/></g><g clip-path="url(#a716d)"><path fill="#b1b3b3" d="M242.358 168.349a8.862 8.862 0 0 1 2.237-2.29l.006.003-.007.005 8.8 4.955c-5.142.877-9.044-1.216-11.036-2.673zm2.243-2.287c1.505-1.061 3.381-1.7 5.7-1.8 4.234-.192 7.706 1.115 8.829 4.653-2.039 1.153-3.954 1.804-5.725 2.113l-.01-.006.012-.002zm14.563 4.793l.319-.17-.002.017zm-17.667-1.04l.007.01"/></g><g clip-path="url(#a716d)"><g><path fill="#e6e7e8" d="M211.04 94.882c5.328-.14 9.759 3.982 9.892 9.21a9 9 0 0 1-.326 2.693c-.232.831-.579 1.62-1.013 2.344a9.686 9.686 0 0 1-8.06 4.666c-5.328.14-9.758-3.982-9.893-9.203a9.701 9.701 0 0 1 .205-2.156 9.294 9.294 0 0 1 .847-2.394 9.556 9.556 0 0 1 1.488-2.086 9.698 9.698 0 0 1 6.86-3.074zm68.49 54.83l.014-3.66c.12-4.761-3.651-8.702-8.43-8.822-4.78-.119-8.737 3.637-8.857 8.398l-.07 3.696 3.914.1.144-3.842c.08-3.038 1.957-5.051 5.175-4.748 3.572.31 4.842 3.186 4.76 5.205l-.014 3.661zm-16.57 18.686c2.344-1.947 4.145-4.403 5.075-7.19l-6.998-.678-26.264-2.541a16.167 16.167 0 0 0 6.524 11.651l.199.184.008.001c.346.309.696.592 1.05.85 1.224.891 2.5 1.496 3.762 1.883 3.389 1.045 6.767.533 9.337-.268.718-.226 1.368-.47 1.94-.708a20.678 20.678 0 0 0 2.715-1.324 19.336 19.336 0 0 0 2.652-1.86zm-21.934-24.473l-.072 3.696 3.363.021.071-3.696c.12-4.76-3.651-8.702-8.43-8.822a8.963 8.963 0 0 0-1.862.159 8.505 8.505 0 0 0-3.791 1.758 8.58 8.58 0 0 0-3.154 5.831c-.022.213-.045.434-.05.65l-.07 3.696.612.018 3.302.082.144-3.841c.08-3.039 1.957-5.052 5.175-4.75 3.58.312 4.85 3.189 4.762 5.198zm44.503 8.95a32.008 32.008 0 0 1-.308 3.411c-1.979 13.784-12.336 24.3-25.207 27.192-1.218.267-2.454.48-3.705.613l-.193.015-.176.018c-1.653.154-3.332.19-5.026.088a36.274 36.274 0 0 1-2.729-.268 32.692 32.692 0 0 1-10.62-3.422 40.762 40.762 0 0 1-1.875-1.071c-.781-.483-1.541-.989-2.27-1.525a32.755 32.755 0 0 1-13.105-22.42 31.948 31.948 0 0 1-.21-4.825c.042-1.195.138-2.408.313-3.627a32.382 32.382 0 0 1 7.367-16.386l3.009.248 2.709.221 2.709.222 1.791.152 7.026-8.4 1.176 9.568 36.252 5.165a32.241 32.241 0 0 1 3.072 15.03zm-101.82 16.483a9.617 9.617 0 0 1-5.338-1.184c-2.253-1.228-3.957-3.311-4.626-5.843l-.094-.428a9.334 9.334 0 0 1-.2-1.333c-.034-.42-.019-.832.006-1.243.058-.89.235-1.755.533-2.568 1.25-3.442 4.49-6.013 8.44-6.28 5.316-.357 9.911 3.581 10.265 8.79.046.706.007 1.4-.098 2.068a9.342 9.342 0 0 1-1.93 4.382 9.593 9.593 0 0 1-1.919 1.826c-.223.166-.461.314-.7.461a9.585 9.585 0 0 1-2.047.91 9.478 9.478 0 0 1-2.292.442zm5.177 3.632a24.524 24.524 0 0 0 2.73 6.35l-9.001 3.677a35.141 35.141 0 0 1-3.489-9.353c1.56.43 3.207.621 4.914.51a14.764 14.764 0 0 0 4.846-1.184z"/></g></g><g clip-path="url(#a716d)"><g><path fill="#a6ce42" d="M175.83 140.14zm0 0a88.634 88.634 0 0 1 13.121.02l-.1-.265a220.514 220.514 0 0 1-2.207-8.859l-6.201-.668-3.5 8.548c-.251.543-.64.954-1.112 1.223zm6.603-14.629l3.091.337a193.85 193.85 0 0 1-1.032-5.374zm26.39 18.508c1.283.434 2.046 1.76 1.655 3.096l-.02.083a2.37 2.37 0 0 1-.537.9 2.632 2.632 0 0 1-2.655.728c-12.245-3.879-25.414-4.891-38.062-2.831-.253.015-.516.03-.762-.005a2.585 2.585 0 0 1-2.147-2.086c-.213-1.352.684-2.65 2.1-2.906a84.149 84.149 0 0 1 5.32-.685l-.114-.05a2.503 2.503 0 0 1-1.365-3.297l3.349-8.162a2.452 2.452 0 0 1-.329-1.516 2.545 2.545 0 0 1 1.846-2.165l6.12-14.895c.456-1.058 1.515-1.668 2.67-1.555 1.184.272 2.05 1.01 2.19 2.144 1.313 9.336 3.194 18.65 5.661 27.745a2.493 2.493 0 0 1-.356 2.057 87.726 87.726 0 0 1 15.437 3.4zm-15.056-13.48c-1.308-.489-1.914-1.949-1.44-3.255.49-1.304 1.956-1.907 3.265-1.418 1.237.504 2.792 1.037 4.45 1.567l1.46-5.754c.353-1.375 1.797-2.189 3.069-1.8a2.493 2.493 0 0 1 1.807 3.057l-1.525 6.029c2.09.67 4.087 1.317 5.639 1.926 1.309.49 1.915 1.95 1.424 3.253a2.531 2.531 0 0 1-2.72 1.548c-.205-.03-.4-.057-.597-.137-1.368-.558-3.123-1.145-4.972-1.737l-1.481 5.846c-.332 1.223-1.565 2.015-2.814 1.837l-.247-.036a2.493 2.493 0 0 1-1.807-3.056l1.556-6.129c-1.882-.605-3.654-1.186-5.067-1.741z"/></g></g><g clip-path="url(#a716d)"><g><path fill="#373737" d="M201.854 102.437c.172-.84.461-1.645.846-2.393a9.397 9.397 0 0 1 1.488-2.086 9.678 9.678 0 0 1 6.86-3.075c5.329-.14 9.759 3.982 9.894 9.202a9.602 9.602 0 0 1-.326 2.693 8.96 8.96 0 0 1-1.013 2.344 9.404 9.404 0 0 1-1.595 1.984 9.686 9.686 0 0 1-6.465 2.682c-5.328.14-9.759-3.982-9.894-9.203a9.602 9.602 0 0 1 .205-2.148zm9.82 16.182a14.608 14.608 0 0 0 10.764-5.136c.543-.64 1.032-1.33 1.457-2.056.427-.735.797-1.503 1.086-2.308.588-1.618.898-3.354.855-5.166-.211-7.892-6.89-14.114-14.918-13.9a14.625 14.625 0 0 0-11.118 5.543 14.224 14.224 0 0 0-2.367 4.466 13.952 13.952 0 0 0-.677 4.655c.202 7.891 6.89 14.114 14.917 13.902zm29.35 25.314l-.07 3.696 3.362.021.07-3.696c.12-4.76-3.65-8.702-8.43-8.821a9.097 9.097 0 0 0-1.861.158 8.591 8.591 0 0 0-3.792 1.758 8.58 8.58 0 0 0-3.153 5.832c-.022.213-.044.425-.05.65l-.071 3.695.613.019 3.302.081.144-3.841c.08-3.038 1.95-5.062 5.175-4.749 3.582.303 4.852 3.18 4.761 5.197zm30.097-6.693c-4.78-.12-8.737 3.637-8.856 8.397l-.072 3.697 3.915.1.144-3.842c.081-3.038 1.95-5.061 5.175-4.749 3.582.303 4.852 3.18 4.76 5.206l-.013 3.66 3.362.022.014-3.661c.12-4.76-3.651-8.702-8.43-8.83zm-11.966 33.614l.32-.17-.003.017zm-5.748.166c-5.15.882-9.055-1.212-11.049-2.671a9.434 9.434 0 0 1 2.237-2.29c1.506-1.065 3.385-1.704 5.707-1.806 4.225-.192 7.705 1.124 8.83 4.654-2.041 1.16-3.956 1.812-5.725 2.113zm-18.633-13.04zm3.815 9.132c.801.943 1.712 1.79 2.709 2.52l.199.184.007.01c.346.308.696.59 1.05.849a12.618 12.618 0 0 0 3.762 1.883c3.389 1.045 6.776.534 9.337-.268.718-.226 1.368-.47 1.94-.708a19.136 19.136 0 0 0 2.715-1.324 21.506 21.506 0 0 0 2.652-1.86c2.344-1.947 4.145-4.403 5.076-7.2l-6.998-.676-26.264-2.541a16.2 16.2 0 0 0 3.815 9.13zm21.426 16.358c-1.21.276-2.446.48-3.705.612l-.193.016-.176.018a33.92 33.92 0 0 1-7.755-.18 32.767 32.767 0 0 1-10.62-3.423 27.193 27.193 0 0 1-1.875-1.07 28.337 28.337 0 0 1-2.27-1.525 32.683 32.683 0 0 1-13.105-22.42 31.948 31.948 0 0 1-.21-4.826c.035-1.204.139-2.408.314-3.627a32.404 32.404 0 0 1 7.366-16.385l3.009.247 2.71.222 2.708.222 1.791.151 7.026-8.399 1.177 9.568 36.252 5.165a32.344 32.344 0 0 1 3.071 15.03 31.965 31.965 0 0 1-.306 3.404c-1.98 13.783-12.338 24.307-25.209 27.2zm-77.402-.445a35.292 35.292 0 0 1-3.488-9.352c1.56.43 3.207.62 4.914.51a14.658 14.658 0 0 0 4.836-1.177 24.97 24.97 0 0 0 2.73 6.35l-8.992 3.67zm-4.252-14.844c-2.244-1.227-3.947-3.318-4.625-5.842l-.095-.429a9.333 9.333 0 0 1-.199-1.333c-.027-.418-.02-.832.005-1.243.059-.89.235-1.755.534-2.568 1.257-3.44 4.489-6.013 8.439-6.28 5.316-.356 9.913 3.573 10.265 8.79a9.366 9.366 0 0 1-.097 2.068 9.367 9.367 0 0 1-1.93 4.382 9.594 9.594 0 0 1-1.92 1.826c-.223.167-.46.314-.699.462a9.584 9.584 0 0 1-2.047.909 9.89 9.89 0 0 1-2.293.442 9.78 9.78 0 0 1-5.338-1.184zm113.126-9.74c.606-3.44.773-7.018.42-10.662a42.353 42.353 0 0 0-.338-2.658 21.936 21.936 0 0 0-.354-1.76 36.558 36.558 0 0 0-.774-3.005 37.972 37.972 0 0 0-2.125-5.496c-6.418-21.692-34.756-22.836-34.798-22.842a47.82 47.82 0 0 0-4.328-.003c-5.34.224-9.784 1.328-13.444 2.897a31.883 31.883 0 0 0-5.28 2.885c-4.528 3.079-7.297 6.719-8.819 9.224-.887 1.463-1.342 2.521-1.48 2.873a39.09 39.09 0 0 0-2.977 5.209c-.111.235-.198.473-.3.709l-6.422 11.31-.02.083a2.63 2.63 0 0 1-.537.9l-12.158 21.422-1.242 2.19-.604 1.064 3.752.63 10.044 1.69 2.66.447 9.688 1.631-2.981 9.347c-4.126 1.062-8.043 1.161-11.3-.02-5.898-2.171-11.326-6.772-13.69-13.26a21.05 21.05 0 0 1-.861-3.13l.113-.121a14.056 14.056 0 0 0 1.669-1.957c1.818-2.575 2.802-5.744 2.573-9.102-.535-7.87-7.47-13.817-15.485-13.274-5.684.382-10.375 3.939-12.44 8.776-.33.783-.602 1.59-.792 2.428a14.15 14.15 0 0 0-.318 4.032c.278 4.04 2.244 7.569 5.168 9.972a40.273 40.273 0 0 0 3.795 12.896 41.049 41.049 0 0 0 2.15 3.874c4.772 7.54 12.11 13.58 21.373 16.964 2.181.82 4.434 1.444 6.723 1.874a49.38 49.38 0 0 0 4.727.664l-.142.447 65.5 9.332-3.668-31.116 13.132 2.174c.009 0 3.618-14.924 4.19-29.539z"/></g></g></g><g clip-path="url(#clip-241c67ca-1854-4ad4-8455-078131d481a7)"><g/><g clip-path="url(#a716e)"><g><path fill="#f58345" d="M166.195 102.958zm0 0l14.822 45.764c1.603 4.927-.087 10.783-3.925 14.679l-30.321 31.153-21.658 22.218-1.17 1.156a16.337 16.337 0 0 1-2.318 2.002l-16.359-30.814c1.157.03 2.303.028 3.44-.033 17.56-.88 32.042-10.946 38.738-25.85 3.817-1.515 7.005-4.516 8.597-8.602 3.077-7.887-.935-16.825-8.962-19.947-8.03-3.13-17.022.737-20.096 8.632-1.68 4.32-1.229 8.946.834 12.77-4.201 7.873-12.375 11.806-20.113 12.168-4.3.206-8.957-1.664-13.424-4.866 4.472-10.378 4.731-22.407.073-33.257 1.674.62 3.43 1.072 5.246 1.29.773 6.82.232 10.628.247 10.677l-.58 4.028 3.827-1.257c12.684-4.097 20.736-10.841 24.042-20.109l24.603-7.952c6.931-2.242 12.075-7.49 14.457-13.85zm-94.127-13.34l7.154 22.21c-1.307-.88-2.65-1.703-4.05-2.42-12.672-6.608-28.502-6.64-41.62 1.437-1.363.85-2.712 1.75-3.94 2.718a36.484 36.484 0 0 0-3.406 3.079C13.59 128.99 9.891 148.24 17.531 164.498a40.036 40.036 0 0 0 2.283 4.238 41.931 41.931 0 0 0 19.829 16.853c-3.8 4.162-11.182 13.806-8.394 23.415-4.108-1.522-7.297-4.651-8.582-8.738l-21.214-67.46c-1.604-4.927-.493-10.6 3.346-14.496l30.329-31.156L56.767 64.96l1.169-1.156c3.808-3.994 9.542-5.851 14.969-4.87l2.968.546 9.53 1.664C74.29 65.589 68.32 78.016 72.069 89.618z"/></g></g><g clip-path="url(#a716e)"><g><path fill="#bbd758" d="M119.469 90.549l-1.157-.371c-.927-.3-3.107-1.246-4.592-2.661l1.751-.56 8.535-2.729c-.053.286-.12.585-.196.887-.3 1.214-.773 2.501-1.562 3.583l-.03.046-.734.974 3.254 10.064.232.707-2.113.664zm34.483-12.216a1.909 1.909 0 0 0 1.31-2.222l-.043-.22a2.175 2.175 0 0 0-.592-.942l-.153-.114c-.445-.335-1.038-.453-1.686-.204l-7.982 2.465c-.636.2-1.093.684-1.276 1.27-.109.366-.119.764.007 1.163.283 1.014 1.398 1.595 2.401 1.28l8.014-2.476zm2.282 15.694l.003-.02a1.741 1.741 0 0 0-1.583-1.814l-7.8-.522a1.724 1.724 0 0 0-1.792 1.343l-.042.237a1.73 1.73 0 0 0 1.58 1.834l7.801.522c.227.036.433.007.628-.054a1.732 1.732 0 0 0 1.205-1.526zm-37.447 19.036s1.228 3.763 4.452 3.897a4.956 4.956 0 0 0 1.692-.236l8.968-2.92s4.486-1.464 2.84-6.53l-1.954-6.099-.07-.22c.446-.436.876-.893 1.281-1.37 4.647-5.432 6.443-13.087 4.09-20.369a21.035 21.035 0 0 0-6.519-9.673c-5.42-4.551-13.007-6.306-20.224-3.974-.283.098-.566.196-.846.302-10.591 3.913-16.31 15.597-12.801 26.442a20.651 20.651 0 0 0 1.694 3.876c3.247 5.764 8.987 9.597 15.358 10.56l.392 1.248 1.647 5.066zm-17.576-3.705c.165-.132.292-.298.39-.472.334-.589.307-1.36-.151-1.933a1.73 1.73 0 0 0-2.408-.247l-6.098 4.893a1.73 1.73 0 0 0-.246 2.408 1.724 1.724 0 0 0 1.596.6l.265-.038c.196-.061.381-.156.546-.315l6.106-4.896zm-7.62-12.088c.425-.133.768-.411.998-.761.316-.476.438-1.088.231-1.66a1.923 1.923 0 0 0-2.434-1.269l-7.955 2.547c-1.173.288-1.595 1.398-1.27 2.434.05.155.12.294.196.422a1.905 1.905 0 0 0 2.238.847zM82.88 76.915a1.98 1.98 0 0 0-2.285 1.57 1.982 1.982 0 0 0 1.576 2.274l8.744 1.525c.34.055.664.033.958-.059.277-.087.52-.253.73-.445.29-.27.51-.626.598-1.03a1.968 1.968 0 0 0-1.567-2.277l-8.754-1.558zm53.566-12.158a1.96 1.96 0 0 0 .345 2.294 1.97 1.97 0 0 0 1.934.45c.293-.093.572-.261.82-.5l6.296-6.256c.204-.207.351-.45.44-.712a1.95 1.95 0 0 0-.45-2.054 1.968 1.968 0 0 0-2.764.017l-6.286 6.288a1.88 1.88 0 0 0-.335.473zm22.37 15.588l2.918 9.022c3.07 9.422-2.16 19.608-11.582 22.679l-27.037 8.762-.387 1.278c-2.211 7.39-8.145 13.003-17.707 16.799.031-2.439-.133-5.81-.762-10.148l-.3-2.12-2.126-.066c-7.61-.198-14.295-5.212-16.621-12.439l-8.404-26.038c-3.07-9.422 2.16-19.609 11.583-22.68l7.51-2.424 34.748-11.232c9.422-3.07 19.608 2.16 22.679 11.582l5.488 17.025zm-43.14 13.87l2.238 7.005.321.992c-6.314-.64-11.971-4.92-14.06-11.335l-.046-.174c-2.7-8.615 2.068-17.822 10.669-20.626 8.658-2.821 17.978 1.965 20.8 10.623 1.878 5.746.386 11.772-3.356 16.005a17.07 17.07 0 0 1-1.596 1.596c-.36.31-.743.6-1.129.883l-.11-.35-2.684-8.334c2.466-4.244 2.245-9.508 2.222-9.751l-.126-3.08-21.468 6.948-.212.067.708 2.251c1.336 4.08 5.662 6.376 7.828 7.28z"/></g></g><g clip-path="url(#a716e)"><path fill="#fff" d="M132.244 96.686a17.065 17.065 0 0 1-1.596 1.596c-.36.31-.74.609-1.129.884l-.11-.351-2.684-8.334c2.476-4.239 2.253-9.51 2.222-9.751l-.126-3.08-21.468 6.949-.212.066.708 2.251c1.336 4.08 5.662 6.376 7.829 7.281l2.25 6.983.32.992c-6.314-.64-11.97-4.92-14.06-11.335l-.046-.174c-2.697-8.607 2.068-17.823 10.669-20.626 8.658-2.821 17.979 1.964 20.8 10.623 1.867 5.767.366 11.796-3.367 16.026zm-16.775-9.737l8.535-2.729c-.054.286-.13.588-.197.887-.296 1.222-.773 2.501-1.562 3.583l-.03.045-.734.975 3.255 10.063.231.707-2.112.665-3.389-10.604-1.159-.38c-.936-.297-3.107-1.245-4.592-2.66l1.754-.552zm18.098-17.406c-5.42-4.551-13.007-6.306-20.224-3.974-.285.09-.566.196-.846.302-10.589 3.921-16.31 15.597-12.801 26.442a21.342 21.342 0 0 0 1.694 3.876c3.247 5.764 8.987 9.597 15.358 10.56l.392 1.248 1.647 5.066s1.228 3.763 4.45 3.889a4.994 4.994 0 0 0 1.69-.237l8.969-2.918s4.487-1.465 2.84-6.531l-1.954-6.099-.069-.22c.445-.436.875-.894 1.28-1.37 4.64-5.43 6.444-13.087 4.091-20.369a21.028 21.028 0 0 0-6.517-9.665z"/></g><g clip-path="url(#a716e)"><g><path fill="#cae861" d="M154.654 92.193a1.73 1.73 0 0 1 1.575 1.817l.005.017a1.732 1.732 0 0 1-1.205 1.526c-.195.061-.401.09-.628.054l-7.8-.522a1.73 1.73 0 0 1-1.58-1.834l.041-.237c.179-.8.924-1.393 1.791-1.343l7.801.522zm-.025-17.236c.264.24.475.568.603.948l.042.22a1.922 1.922 0 0 1-1.32 2.217l-8.013 2.475c-1.003.316-2.127-.263-2.401-1.28a1.966 1.966 0 0 1-.007-1.162c.183-.587.64-1.071 1.276-1.271l7.981-2.465a1.703 1.703 0 0 1 1.687.204l.152.114zm-15.908-7.465a1.96 1.96 0 0 1-1.936-.457c-.628-.628-.72-1.549-.343-2.286.092-.163.2-.332.336-.473l6.286-6.288a1.968 1.968 0 0 1 2.764-.017c.56.558.699 1.366.449 2.054a1.956 1.956 0 0 1-.44.712l-6.296 6.255c-.248.24-.526.408-.82.5zm-37.263 39.458a1.732 1.732 0 0 1-.247 2.408l-6.097 4.893c-.165.16-.35.254-.547.316l-.265.038c-.58.093-1.191-.11-1.596-.6a1.73 1.73 0 0 1 .246-2.408l6.098-4.893a1.73 1.73 0 0 1 2.408.246zm-7.883-9.674l-7.988 2.557a1.92 1.92 0 0 1-2.238-.847 2.07 2.07 0 0 1-.196-.423c-.325-1.036.096-2.145 1.27-2.433l7.955-2.547a1.923 1.923 0 0 1 2.434 1.27c.207.57.093 1.18-.231 1.658a1.888 1.888 0 0 1-1.006.765zm-1.942-18.803a1.982 1.982 0 0 1 1.576 2.274c-.088.404-.308.76-.6 1.03-.206.2-.452.358-.729.445a2.083 2.083 0 0 1-.958.06l-8.744-1.526a1.982 1.982 0 0 1-1.538-1.443 1.82 1.82 0 0 1-.037-.83 1.968 1.968 0 0 1 2.276-1.568l8.754 1.558z"/></g></g><g clip-path="url(#a716e)"><g><path fill="#d8dbdb" d="M66.005 155.842c3.253-2.224 6.424-2.657 9.457-1.648-.698 2.398-2.473 6.442-6.877 9.082-1.356.82-2.97 1.499-4.871 1.953-.682.17-1.404.298-2.16.401-.615-1.67-.542-3.262.049-4.747.673-1.709 2.043-3.278 3.849-4.634.18-.138.361-.275.553-.407zm11.156-.919l-.065.191.033-.207z"/></g></g><g clip-path="url(#a716e)"><g><path fill="#96989c" d="M59.335 153.53c.38-1.868.383-3.088.385-3.08a36.583 36.583 0 0 0 4.353-.436c.323-.057.627-.117.94-.179l-.861.8-4.515 4.198-.827.762c.232-.746.398-1.443.525-2.066zm15.427-27.384l-2.495-3.06c-3.212-4-9.053-4.647-13.053-1.435s-4.646 9.053-1.434 13.053l2.513 3.117 2.885-2.225-2.51-3.11c-1.387-1.732-2.162-5.02.668-7.594 2.587-2.347 5.524-1.9 7.546.683l2.582 3.194zm-28.623 24.668l-2.495-3.06c-3.212-4-9.052-4.647-13.052-1.435s-4.647 9.053-1.435 13.053l2.349 3.106 2.885-2.225-2.348-3.106c-1.388-1.733-2.162-5.02.668-7.596 2.587-2.346 5.524-1.898 7.546.684l2.582 3.194zm-1.006-37.543c12.602-3.963 25.765-.439 34.714 8.04l-2.312 2.053s9.55 12.073 6.33 26.512a28.48 28.48 0 0 1-2.768 7.36c-.41.774-.875 1.547-1.386 2.317l-.093.074-.017.033c-.74 1.182-2.073 1.673-2.996 1.103-.634-.392-.894-1.189-.763-2.028l.017-.086c.069-.353.199-.708.413-1.053l.221-.293c.26-.683.468-1.42.627-2.196l.066-.191-.032-.017.042-.264c1.184-4.074.829-8.453-1.012-12.338a12.3 12.3 0 0 0 .58-1.49c.601-1.937.705-3.888.596-5.574-.18-2.794-.937-4.86-.937-4.86-1.508 3.585-6.035 5.86-8.59 6.887-1.075.428-1.803.648-1.803.648-3.647.26-5.952 1.594-7.412 3.165-2.438 2.622-2.5 5.903-2.5 5.903-13.493 1.869-10.774 13.194-10.774 13.194 1.458 5.977-4.655 10.848-4.655 10.848 4.692-.956 8.223-2.694 10.887-4.768 2.98 1.267 6.385 1.693 9.784 1.27.658-.073 1.32-.191 1.966-.331.461-.1.912-.207 1.363-.34l.473-.148a24.825 24.825 0 0 0 2.217-.76l-.207.11.059.017c.87-.283 1.776-.11 2.298.523.717.886.439 2.31-.636 3.194l-.192.132a4.838 4.838 0 0 1-.425.33l.081.002c-.292.182-.593.366-.896.542-6.378 3.744-15.836 7.185-25.89 3.49-3.13-1.149-6.306-2.983-9.472-5.724l-2.331 1.79a34.875 34.875 0 0 1-7.559-13.12c-5.807-18.465 4.459-38.149 22.924-43.956zm100.08 26.222c5.302 2.07 7.951 7.985 5.923 13.194a9.862 9.862 0 0 1-.722 1.464c-1.485 2.52-3.958 4.203-6.729 4.77-1.886.386-3.909.251-5.84-.503a10.349 10.349 0 0 1-4.003-2.784c-2.009-2.254-2.963-5.315-2.481-8.344.104-.696.289-1.39.557-2.075 2.04-5.23 7.992-7.792 13.294-5.722zm-13.831 21.002a16.264 16.264 0 0 0 4.563 2.768 15.83 15.83 0 0 0 5.198 1.054 38.02 38.02 0 0 1-6.6 8.538l-8.039-6.694a26.502 26.502 0 0 0 4.878-5.666z"/></g></g><g clip-path="url(#a716e)"><g><path fill="#4c4d4f" d="M51.57 166.26c4.243-3.296 6.272-7.448 7.249-10.668.223-.743.397-1.443.524-2.065.375-1.857.383-3.087.383-3.087a35.876 35.876 0 0 0 4.353-.437c.323-.057.635-.119.939-.179 6.403-1.27 9.623-4.254 11.142-7.519.23-.494.423-.993.58-1.49.6-1.938.704-3.888.595-5.575-.182-2.802-.936-4.859-.936-4.859-1.506 3.593-6.036 5.86-8.59 6.887-1.073.436-1.804.648-1.804.648-3.647.26-5.952 1.594-7.412 3.164-2.427 2.628-2.488 5.91-2.488 5.91-13.494 1.868-10.775 13.193-10.775 13.193 1.459 5.977-4.655 10.848-4.655 10.848 4.692-.955 8.232-2.696 10.896-4.77zm28.714-45.328l-.448.4-2.312 2.054s9.55 12.072 6.33 26.511c-.536 2.4-1.428 4.868-2.768 7.36a34.94 34.94 0 0 1-1.386 2.318l-.094.074-.016.032c-.732 1.18-2.073 1.674-2.996 1.103-.635-.392-.894-1.188-.764-2.027-1.499 2.927-3.86 4.88-6.23 6.18-.467.255-.939.493-1.396.69-.275.123-.553.237-.823.349l-.207.11.059.017c.87-.282 1.773-.118 2.298.524.726.883.439 2.308-.636 3.193l-.192.132c-.129.103-.263.217-.425.33l.082.002c-.293.182-.585.363-.897.542-6.378 3.744-15.844 7.187-25.89 3.49-3.122-1.151-6.308-2.99-9.471-5.724l-2.332 1.79.223.253.135.146c.226.234.547.572.973.984l.375.367c.258.25.522.49.793.727.128.121.264.24.408.356a45.126 45.126 0 0 0 5.155 3.882c7.953 5.108 21.058 9.788 36.045.245a39.748 39.748 0 0 0 2.542-1.75 57.383 57.383 0 0 0 6.552-5.7s1.931-2.067 3.98-5.67a38.112 38.112 0 0 0 2.376-4.986l.034-.091c3.506-9.143 4.737-23.1-9.077-38.213z"/></g></g><g clip-path="url(#a716e)"><path fill="#373737" d="M89.348 159.104l-.034.091a38.116 38.116 0 0 1-2.376 4.986c-2.04 3.6-3.98 5.671-3.98 5.671a60.418 60.418 0 0 1-4.743 4.297c-.609.487-1.212.964-1.809 1.402-.851.627-1.7 1.207-2.542 1.75-14.987 9.544-28.092 4.864-36.044-.245a43.16 43.16 0 0 1-5.156-3.882l-.407-.356a47.01 47.01 0 0 1-.794-.727l-.375-.366c-.426-.413-.747-.751-.973-.985l-.135-.146-.223-.252a34.904 34.904 0 0 1-7.559-13.12c-5.807-18.466 4.46-38.15 22.925-43.956 12.601-3.963 25.764-.44 34.702 8.06l.448-.4c13.825 15.12 12.594 29.076 9.075 38.178zm42.034 1.39a15.667 15.667 0 0 0 4.571 2.767c1.706.664 3.469.997 5.198 1.054a38.38 38.38 0 0 1-6.6 8.538l-8.039-6.695a26.897 26.897 0 0 0 4.87-5.663zm.53-15.269c2.04-5.23 7.992-7.792 13.295-5.722 5.302 2.07 7.957 7.975 5.918 13.206a9.86 9.86 0 0 1-.723 1.464 10.17 10.17 0 0 1-6.728 4.769c-1.886.386-3.909.252-5.84-.503a10.438 10.438 0 0 1-4.004-2.783c-2.008-2.255-2.962-5.316-2.48-8.344.117-.71.302-1.404.563-2.087zm18.228-33.185l-27.037 8.763-.387 1.278c-2.21 7.39-8.145 13.003-17.707 16.798.023-2.436-.141-5.808-.762-10.148l-.3-2.12-2.126-.066c-7.598-.192-14.292-5.203-16.621-12.438l-8.403-26.039c-3.071-9.422 2.16-19.609 11.582-22.68l7.51-2.424 34.759-11.226c9.422-3.07 19.608 2.16 22.679 11.582l5.488 17.025 2.907 9.016c3.07 9.422-2.168 19.611-11.582 22.68zm8.057-50.305c-3.89-12.06-16.903-18.723-29.008-14.808L86.88 60.599c-.505.159-.993.348-1.472.534-11.122 4.448-17.091 16.874-13.336 28.474l7.157 22.218a42.33 42.33 0 0 0-4.05-2.419c-12.672-6.609-28.502-6.641-41.62 1.437-1.363.85-2.72 1.751-3.94 2.718a34.46 34.46 0 0 0-3.405 3.078c-12.626 12.35-16.327 31.593-8.684 47.859a40.035 40.035 0 0 0 2.283 4.238 41.88 41.88 0 0 0 19.829 16.853c-3.8 4.162-11.182 13.806-8.394 23.415 1.612 5.552 6.628 11.1 17.71 15.556l-2.216-10.094-.57-2.581-2.486-11.327a2.55 2.55 0 0 1 1.304-2.723c.207-.11.42-.203.653-.259 1.328-.31 2.644.54 2.977 1.914l2.904 13.338 6.241 28.654-4.253 1.382.003.008 68.513-22.226-.377-.715-16.359-30.815a43.86 43.86 0 0 0 3.44-.033c17.56-.88 32.042-10.946 38.738-25.85 3.817-1.514 6.997-4.513 8.597-8.601 3.074-7.895-.935-16.825-8.962-19.948-8.027-3.122-17.019.746-20.096 8.632-1.68 4.32-1.226 8.955.834 12.77-4.204 7.865-12.383 11.809-20.113 12.169-4.3.205-8.957-1.665-13.424-4.867 4.48-10.38 4.74-22.41.073-33.257a22.557 22.557 0 0 0 5.246 1.29c.773 6.82.232 10.629.247 10.678l-.58 4.027 3.827-1.257c12.685-4.096 20.736-10.841 24.042-20.108l24.576-7.953c6.931-2.242 12.075-7.49 14.457-13.85a22.956 22.956 0 0 0 .357-15.17l-8.355-26.053z"/></g><g clip-path="url(#a716e)"><path d="M45.65 197.565c1.327-.31 2.643.54 2.974 1.906l2.904 13.338 6.241 28.654-4.253 1.382-.478.16-.075-.237-4-18.218-2.215-10.095-.57-2.581-2.486-11.327c-.222-1.104.332-2.193 1.304-2.722.2-.108.42-.204.654-.26zm22.929-34.278c4.404-2.64 6.188-6.687 6.87-9.08-3.025-1.011-6.205-.576-9.45 1.645-.191.132-.372.27-.553.407-1.803 1.365-3.168 2.924-3.849 4.635-.59 1.485-.66 3.085-.048 4.747.756-.103 1.475-.24 2.159-.401 1.906-.465 3.513-1.14 4.871-1.953zm-3.57-13.46c6.404-1.27 9.632-4.257 11.154-7.54 1.832 3.887 2.195 8.263 1.012 12.337l-.043.264-.033.208c-.16.776-.367 1.513-.627 2.195-.077.096-.157.184-.221.294-.217.337-.345.7-.413 1.053l-.018.086c-1.507 2.93-3.86 4.88-6.23 6.181-.467.254-.933.482-1.397.69a22.194 22.194 0 0 1-3.04 1.108l-.472.149c-.451.133-.91.241-1.363.34a18.92 18.92 0 0 1-1.966.33c-3.396.432-6.812 0-9.784-1.27 4.242-3.297 6.271-7.448 7.248-10.668l.827-.762 4.515-4.198.852-.797zm-4.727-12.011l-2.502-3.112c-3.212-4-2.574-9.839 1.418-13.048 4.003-3.204 9.84-2.566 13.053 1.434l2.495 3.06-3.293 2.614-2.582-3.195c-2.03-2.58-4.959-3.03-7.546-.683-2.827 2.583-2.053 5.87-.668 7.595l2.51 3.11-2.885 2.225zm-29.701 8.497c4.003-3.203 9.849-2.568 13.053 1.435l2.495 3.06-3.293 2.613-2.582-3.195c-2.03-2.579-4.959-3.029-7.546-.683-2.827 2.583-2.053 5.871-.668 7.596l2.34 3.109-2.885 2.225-2.348-3.107c-3.204-4.003-2.566-9.84 1.434-13.053z"/></g></g></g></svg>