<svg xmlns="http://www.w3.org/2000/svg" xmlns:xlink="http://www.w3.org/1999/xlink" width="201" height="37" viewBox="0 0 201 37"><defs><path id="65rya" d="M224.774 49.729c-1.011-.546-3.912-.21-7.394.839-6.095 4.047-11.239 10.009-11.597 19.584-.066.23-.668-.032-.786-.102-1.646-3.065-2.299-6.291-.924-10.946.256-.415-.582-.926-.732-.78-.302.294-1.56 1.595-2.394 3.002-4.14 6.977-1.433 15.917 5.81 19.829 7.242 3.918 16.386 1.391 20.418-5.646 4.665-8.122.334-24.297-2.4-25.78z"/><path id="65ryb" d="M250.695 58.2c4.656 0 7.644 2.882 7.827 7.535h-16.606c.436-4.305 4.183-7.535 8.78-7.535zm0-4.574c-8.587 0-14.818 6.201-14.818 14.744 0 8.614 6.216 14.63 15.117 14.63 4.497 0 8.056-1.365 10.887-4.177.846-.887.937-1.742.937-2.068 0-1.393-1.066-2.405-2.536-2.405-.74 0-1.36.272-2.07.91-1.603 1.451-3.713 2.933-7.218 2.933-4.872 0-8.835-3.554-9.085-8.118h19.393c2.109 0 3.132-.958 3.132-2.927 0-.58 0-.998-.12-1.823-1.044-7.326-6.135-11.7-13.619-11.7z"/><path id="65ryc" d="M282.953 53.626c-3.9 0-7.762 2.179-9.27 5.205v-1.87c0-2.897-2.313-3.043-2.775-3.043-1.369 0-2.833.8-2.833 3.043V79.55c0 3.008 2.46 3.159 2.953 3.159.493 0 2.954-.151 2.954-3.16V67.44c0-5.268 3.073-8.947 7.474-8.947 4.261 0 6.333 2.717 6.333 8.307v12.75c0 3.008 2.462 3.159 2.955 3.159.493 0 2.953-.151 2.953-3.16V64.995c0-5.496-2.822-11.368-10.744-11.368z"/><path id="65ryd" d="M320.425 53.918c-1.364 0-2.354.773-2.945 2.295L309.4 75.957l-8.021-19.744c-.628-1.545-1.611-2.295-3.005-2.295-1.63 0-2.955 1.234-2.955 2.752 0 .375.045.862.371 1.624l9.289 21.306c1.107 2.57 2.927 3.108 4.26 3.108 1.333 0 3.154-.538 4.264-3.108l9.348-21.424c.32-.751.369-1.303.369-1.564 0-1.535-1.245-2.694-2.894-2.694z"/><path id="65rye" d="M342.695 69.086h1.243v1.322c0 4.836-3.17 7.96-8.074 7.96-1.33 0-5.675-.301-5.675-4.177 0-4.576 7.137-5.105 12.506-5.105zm-5.093-15.46c-3.778 0-7.297 1.022-9.907 2.877-.885.592-1.316 1.333-1.316 2.264a2.266 2.266 0 0 0 2.296 2.285c.556 0 1.18-.215 1.752-.604 2.244-1.454 4.353-2.131 6.636-2.131 4.368 0 6.875 2.157 6.875 5.92v.624c-9.805.01-19.777 1.16-19.777 9.447 0 5.963 5.247 8.633 10.446 8.633 4.14 0 7.447-1.593 9.57-4.61v1.45c0 2.162 1.493 2.927 2.774 2.927.27 0 2.653-.082 2.653-2.927V64.587c0-6.864-4.487-10.961-12.002-10.961z"/><path id="65ryf" d="M364.987 59.131c2.585 0 2.716-1.953 2.716-2.345 0-1.162-.713-2.403-2.716-2.403h-5.314V49.16c0-2.334-1.558-3.161-2.893-3.161-.493 0-2.954.152-2.954 3.16v24.8c0 5.724 2.906 8.748 8.406 8.748 1.423 0 2.809-.244 3.715-.654 1.04-.504 1.636-1.333 1.636-2.273 0-1.326-.99-2.288-2.355-2.288-.264 0-.64.064-1.053.18-.506.122-.848.17-1.223.17-2.238 0-3.279-1.419-3.279-4.465V59.13z"/><path id="65ryg" d="M384.522 78.134c-6.127 0-9.331-4.97-9.331-9.88 0-6.748 4.837-9.82 9.331-9.82 4.495 0 9.331 3.072 9.331 9.82 0 6.789-4.836 9.88-9.33 9.88zm0-24.508c-8.934 0-15.418 6.152-15.418 14.628 0 4.126 1.572 7.887 4.422 10.589 2.83 2.68 6.733 4.157 10.996 4.157C393.345 83 400 76.66 400 68.254c0-8.476-6.51-14.628-15.478-14.628z"/></defs><g><g transform="translate(-199 -46)"><g><use fill="#82b541" xlink:href="#65rya"/></g><g><g><use fill="#fff" xlink:href="#65ryb"/></g><g><use fill="#fff" xlink:href="#65ryc"/></g><g><use fill="#fff" xlink:href="#65ryd"/></g><g><use fill="#fff" xlink:href="#65rye"/></g><g><use fill="#fff" xlink:href="#65ryf"/></g><g><use fill="#fff" xlink:href="#65ryg"/></g></g></g></g></svg>