<svg xmlns="http://www.w3.org/2000/svg" xmlns:xlink="http://www.w3.org/1999/xlink" width="198" height="211" viewBox="0 0 198 211"><defs><path id="s33ja" d="M225 1424v-211h198v211z"/><path id="s33jc" d="M258.562 1291.588l-2.857 23.707-2.847-23.707-22.449-2.983 22.449-2.983 2.857-23.77 2.858 23.77 22.449 2.983zm-16.438 16.99a4.53 4.53 0 0 1-4.524-4.539 4.53 4.53 0 0 1 4.524-4.538 4.53 4.53 0 0 1 4.523 4.538 4.523 4.523 0 0 1-4.523 4.538zm25.991-39.321a4.53 4.53 0 0 1 4.524 4.538 4.53 4.53 0 0 1-4.524 4.538 4.53 4.53 0 0 1-4.523-4.538 4.53 4.53 0 0 1 4.523-4.538zm23.008-18.365c.042-2.824 1.097-5.511 3.037-7.965v-23.707c.126-.127.253-.19.369-.254a5.004 5.004 0 0 1-.37-1.925c-40.067 12.758-69.159 50.407-69.159 94.953 0 9.13 1.223 17.963 3.511 26.362 2.942-7.744 11.093-12.578 19.655-11.118a17.918 17.918 0 0 1 13.159 9.901l.875-1.713c-1.012-7.67 1.666-16.81 13.286-26.13l.158-.306c-3.733-4.485-6.917-1.45-8.53-3.544-1.614-2.052 2.362-8.03 2.362-8.03.622-.867 1.55-1.554 2.604-1.618 3.1-.18 6.074 1.46 8.52 3.449l18.125-35.597c-1.212-.878-2.309-1.798-3.258-2.793-2.91-2.993-4.397-6.474-4.344-9.965zm106.56 55.453l-2.109 17.614-2.108-17.614-16.681-2.242 16.68-2.243 2.11-17.613 2.108 17.613 16.745 2.243zm-24.125-18.11l-1.424-12.388-11.788-1.555 11.788-1.618 1.424-12.388 1.487 12.388 11.788 1.618-11.788 1.555zm11.103-30.18a4.53 4.53 0 0 1 4.524 4.537 4.53 4.53 0 0 1-4.524 4.538 4.53 4.53 0 0 1-4.523-4.538 4.53 4.53 0 0 1 4.523-4.538zm-25.053-38.962v24.51c2.088 2.645 3.174 5.544 3.1 8.538-.116 5.289-3.585 9.922-9.31 13.34l27.393 68.718a17.908 17.908 0 0 1 11.388-6.972c9.722-1.66 18.927 4.792 20.561 14.419.833 4.94-.495 9.743-3.3 13.488.264 2.2.38 4.4.359 6.59 8.393-14.63 13.201-31.609 13.201-49.72-.01-42.377-26.308-78.598-63.392-92.91z"/><path id="s33jd" d="M294.655 1320.34a13.264 13.264 0 0 0-1.297-.01c7.297-7.51 17.493-12.186 28.776-12.186 13.064 0 24.673 6.252 32.012 15.941l-.127-.01-15.257-.994c-7.202-.434-13.402 4.982-13.834 12.197l-.01.169-2.837-.254c.422-6.96-5.156-13.424-12.158-13.858zm48.314 39.004l-40.996-1.862c.833 4.665 3.575 8.865 7.37 12.06l.443.38c.96.773 1.993 1.481 3.069 2.095 1.413.836 3.268 1.777 5.42 2.454 1.465.455 3.068.794 4.744.878 1.044.053 2.13.01 3.227-.148.38-.053.76-.127 1.139-.211 1.76-.402 3.564-1.143 5.346-2.328h.01l.211-.137.063-.043c4.956-2.665 8.657-7.426 9.954-13.138zm18.368-5.998c.285-.254.538-.508.791-.772-1.297 12.916-8.667 24.034-19.201 30.434-.517.307-1.044.614-1.582.91l-.042.021a42.463 42.463 0 0 1-4.386 2.042 39.67 39.67 0 0 1-6.685 2.01 40.33 40.33 0 0 1-7.466.804l-.622.02c-1.613 0-3.205-.105-4.776-.295a39.928 39.928 0 0 1-7.909-1.767 39.37 39.37 0 0 1-4.744-1.915c-1.898-.92-3.723-2-5.441-3.195-10.47-7.278-17.324-19.411-17.324-33.153 0-.783.031-1.565.073-2.338a12.935 12.935 0 0 0 5.388 5.258 13.65 13.65 0 0 0 5.146 1.428l15.258.994c3.469.19 6.822-.93 9.426-3.237 2.605-2.306 4.155-5.48 4.408-8.96l.042-.592 2.836.254-.031.402c-.306 5.162 2.425 10.07 7.011 12.44 1.614.868 3.343 1.365 5.146 1.428l15.258.995c3.48.18 6.822-.942 9.426-3.216zm45.467-10.685c.095.582.137 1.153.148 1.735.063 3.449-1.424 6.675-3.912 8.907a11.855 11.855 0 0 1-5.958 2.878c-1.95.328-3.88.158-5.641-.402a11.604 11.604 0 0 1-2.499-1.132c-2.12-1.28-3.828-3.195-4.787-5.554a11.75 11.75 0 0 1-.706-2.454 11.508 11.508 0 0 1 .284-5.067 11.855 11.855 0 0 1 9.437-8.452c6.453-1.1 12.558 3.173 13.634 9.541zm-14.92 19.37zm0 0c1.993.36 4.08.402 6.19.032a17.914 17.914 0 0 0 5.63-1.979 43.88 43.88 0 0 1-1.466 12.197l-6.685-1.026-5.103-.783a30.835 30.835 0 0 0 1.434-8.441zm-134.861-16.386c-.021.349-.063.687-.116 1.026-.148.857-.38 1.66-.696 2.433a11.533 11.533 0 0 1-3.195 4.432 11.986 11.986 0 0 1-4.144 2.296c-1.75.55-3.659.709-5.599.38a11.92 11.92 0 0 1-6-2.92c-2.456-2.22-3.922-5.415-3.87-8.832.011-.593.043-1.185.148-1.777 1.076-6.369 7.181-10.642 13.634-9.542 6.105 1.036 10.323 6.516 9.838 12.504zm-8.562 16.894a30.386 30.386 0 0 0 1.413 7.955l-5.378.825-.548.084-5.873.9a43.955 43.955 0 0 1-1.466-12.208 18.084 18.084 0 0 0 5.673 2c2.098.359 4.165.317 6.147-.032 0 .148 0 .306.032.476z"/><path id="s33je" d="M330.179 1368.082a11.741 11.741 0 0 1 1.782 2.644l-.148.085c-2.383 1.248-6.527 2.761-11.546 1.83l-.19-.032c-2.678-.529-5.588-1.766-8.614-4.104.453-.942 1.033-1.724 1.719-2.349 2.33-2.136 5.883-2.57 9.827-1.82 1.697.318 3.153.868 4.418 1.588a11.37 11.37 0 0 1 2.752 2.158zm-19.444 2.517l.359.265-.37-.243z"/><path id="s33jf" d="M360.41 1337.637l-.433 6.41c-.127 1.926-.991 3.671-2.415 4.983-1.423 1.311-3.29 1.925-5.209 1.809l-15.257-.995c-3.912-.306-7.012-3.86-6.759-7.711l.432-6.411c.253-3.978 3.66-7.035 7.634-6.781l15.258.994c.991.064 1.982.37 2.857.804 1.466.751 2.563 1.99 3.227 3.438.2.445.369.9.485 1.365.137.677.21 1.386.18 2.095zm-46.954 8.526c-1.424 1.312-3.29 1.925-5.21 1.809l-15.257-.995c-3.964-.253-7.012-3.797-6.759-7.658l.433-6.411c.126-1.925.99-3.734 2.414-4.982 1.424-1.312 3.29-1.926 5.21-1.81l15.257.995c.991.063 1.982.37 2.857.804 2.541 1.365 4.091 4.04 3.912 6.844l-.432 6.41c-.127 1.947-1.002 3.693-2.425 4.994zm40.69-22.078l-.127-.01-15.257-.994c-7.191-.434-13.402 4.982-13.834 12.197l-.01.169-2.837-.254c.422-6.96-5.156-13.414-12.158-13.858l-15.257-.994a17.72 17.72 0 0 0-1.297-.01 12.996 12.996 0 0 0-8.024 3.162l-.106.085a12.992 12.992 0 0 0-4.07 6.844 14.043 14.043 0 0 0-.337 2.116l-.433 6.41a13.128 13.128 0 0 0 1.624 7.183 12.814 12.814 0 0 0 5.388 5.258c1.614.804 3.353 1.312 5.146 1.428l15.258.994c3.469.19 6.822-.93 9.426-3.237 2.605-2.306 4.155-5.48 4.408-8.96l.042-.592 2.836.254-.031.402c-.306 5.162 2.414 10.081 7.011 12.44 1.614.867 3.354 1.365 5.146 1.428l15.258.995c3.469.19 6.822-.931 9.426-3.238.274-.243.538-.507.791-.772 2.13-2.221 3.395-5.077 3.617-8.198l.432-6.41c.432-6.898-5.082-13.33-12.031-13.837z"/><path id="s33jg" d="M345.52 1331.173c-5.83-.687-11.102 3.48-11.788 9.33l-.559 4.539 4.092.56.559-4.538c.253-2.486 2.298-5.786 6.695-5.543 3.965.19 5.894 2.983 5.462 6.717l-.496 4.729 4.777.56.559-4.538c.685-5.85-3.47-11.139-9.3-11.816zm-38.633 7.521l-.496 4.73 4.777.56.558-4.538c.675-5.85-3.48-11.14-9.31-11.827-5.831-.688-11.103 3.48-11.789 9.33l-.622 4.485 4.091.561.623-4.485c.253-2.486 2.298-5.787 6.695-5.544 3.975.201 5.905 2.994 5.473 6.728zm3.848 31.905l.359.265-.37-.243zm2.447-4.443c2.33-2.136 5.873-2.57 9.827-1.82 1.708.318 3.153.868 4.418 1.588a10.866 10.866 0 0 1 2.73 2.158 11.08 11.08 0 0 1 1.783 2.644l-.148.085c-2.383 1.248-6.527 2.761-11.546 1.83l-.19-.032c-2.678-.529-5.588-1.766-8.614-4.104.474-.952 1.054-1.724 1.74-2.349zm-3.828 3.396l.443.381c.97.772 1.993 1.47 3.068 2.095 1.403.846 3.269 1.787 5.42 2.454 1.466.455 3.068.793 4.745.878 1.044.053 2.13.01 3.226-.148.38-.053.75-.127 1.14-.212 1.76-.402 3.563-1.142 5.345-2.327l.01-.01.212-.138.063-.043a20.008 20.008 0 0 0 9.964-13.128l-40.996-1.861c.823 4.665 3.564 8.864 7.36 12.06zm93.686-16.249a11.855 11.855 0 0 1-5.958 2.878c-1.961.338-3.88.17-5.641-.402a12.4 12.4 0 0 1-2.499-1.132 11.672 11.672 0 0 1-4.787-5.554 11.75 11.75 0 0 1-.707-2.454 11.5 11.5 0 0 1 .285-5.067 11.854 11.854 0 0 1 9.437-8.452c6.453-1.1 12.558 3.173 13.634 9.541.095.582.137 1.164.148 1.735.063 3.449-1.424 6.675-3.912 8.907zm-.791 18.989l-6.685-1.026-5.104-.783c.844-2.666 1.35-5.5 1.434-8.442v-.01c1.993.36 4.081.402 6.19.042a17.915 17.915 0 0 0 5.63-1.978 43.88 43.88 0 0 1-1.465 12.197zm-59.322 10.695c-.517.317-1.044.624-1.582.91l-.042.02a38.461 38.461 0 0 1-4.386 2.042 40.365 40.365 0 0 1-6.685 2.01 40.332 40.332 0 0 1-7.466.804l-.622.022c-1.613 0-3.205-.106-4.776-.297a40.093 40.093 0 0 1-7.909-1.766 39.368 39.368 0 0 1-4.744-1.915c-1.909-.92-3.723-2-5.441-3.195-10.46-7.278-17.324-19.411-17.324-33.153 0-.783.031-1.566.073-2.338a13.315 13.315 0 0 1-1.623-7.183l.432-6.41c.053-.72.169-1.428.337-2.116a12.952 12.952 0 0 1 4.07-6.844l.106-.085a12.947 12.947 0 0 1 8.024-3.163c7.297-7.51 17.493-12.186 28.775-12.186 13.065 0 24.674 6.262 32.013 15.941 6.948.508 12.463 6.94 12.03 13.858l-.432 6.411c-.221 3.11-1.486 5.977-3.616 8.198-1.308 12.917-8.678 24.035-19.212 30.435zm-89.91-29.461a11.816 11.816 0 0 1-4.145 2.295c-1.75.55-3.659.72-5.599.381a11.92 11.92 0 0 1-6-2.92c-2.456-2.221-3.922-5.416-3.87-8.833.011-.592.043-1.185.148-1.777 1.076-6.368 7.181-10.642 13.634-9.542 6.105 1.037 10.323 6.517 9.838 12.504-.032.339-.063.677-.116 1.026a11.613 11.613 0 0 1-3.89 6.865zm-8.531 17.782l-.549.085-5.873.899a43.907 43.907 0 0 1-1.465-12.208 18.083 18.083 0 0 0 5.673 2c2.098.36 4.175.317 6.147-.032l.01.465a31.364 31.364 0 0 0 1.413 7.955l-5.356.836zm168.244-29.662c-1.634-9.627-10.84-16.08-20.561-14.419a17.934 17.934 0 0 0-11.388 6.972c-2.784 3.734-4.112 8.526-3.269 13.456.896 5.31 4.112 9.637 8.435 12.197.486 10.23-5.25 18.925-12.642 23.907-4.524 3.004-10.945 3.808-17.946 2.941l-.464-2.782a48.269 48.269 0 0 0 14.076-23.94c2.172-8.77 1.803-17.55-.685-25.578-3.29-10.843-10.344-20.364-20.034-26.616-19.307-42.325-53.502-15.614-64.447-5.448a30.082 30.082 0 0 0-3.205-3.078c-2.446-1.99-5.42-3.629-8.52-3.449-1.054.063-1.982.751-2.604 1.619 0 0-3.965 5.976-2.362 8.029 1.613 2.084 4.797-.942 8.53 3.543l.095.106-.243.19c-11.62 9.31-14.298 18.46-13.285 26.13 1.56 11.816 11.915 20.13 11.915 20.13l.137-.962a48.605 48.605 0 0 0 16.354 30.477l-.169.645c-9.047 2.095-17.714 1.799-23.387-1.978-7.391-4.972-13.128-13.668-12.643-23.897 4.313-2.55 7.519-6.876 8.415-12.176a17.413 17.413 0 0 0-1.497-10.526 17.918 17.918 0 0 0-13.16-9.901c-8.562-1.46-16.712 3.374-19.654 11.118a17.92 17.92 0 0 0-.907 3.3c-.844 4.951.506 9.764 3.31 13.51-2.224 18.67 6.064 37.162 22.86 48.428a55.759 55.759 0 0 0 7.508 4.168c6.812 3.142 14.372 4.982 21.9 5.416L280.337 1424h81.254l-1.845-11.033c6.675-.667 13.296-2.423 19.328-5.205a55.758 55.758 0 0 0 7.507-4.168c14.825-9.944 23.018-25.516 23.208-41.88.021-2.19-.095-4.39-.358-6.591 2.804-3.734 4.143-8.537 3.3-13.477z"/><path id="s33jh" d="M359.355 1218.977c-10.977-4.232-22.892-6.538-35.355-6.538-8.309 0-16.375 1.058-24.125 2.983-1.92.498-3.849.995-5.705 1.619 0 .688.127 1.312.37 1.925-.127.064-.254.127-.37.254v23.707a20.572 20.572 0 0 1 3.722-3.608l.928-.624c6.517-4.538 16.439-7.098 27.352-7.098h1.118c9.616.19 18.79 2.423 25.243 6.22h.432l.749.624c2.435 1.545 4.418 3.29 5.894 5.152v-24.5a.545.545 0 0 0-.253-.116z"/><path id="s33ji" d="M326.541 1261.228c10.302 0 22.206-2.306 22.206-8.897 0-6.59-11.967-8.896-22.206-8.896-10.238 0-22.206 2.295-22.206 8.896 0 6.59 11.978 8.897 22.206 8.897zm24.252-17.18c3.722 2.433 5.704 5.29 5.683 8.03-.074 2.591-2.024 5.257-5.451 7.51-4.987 3.28-13.096 5.68-23.134 5.68h-1.308c-6.632-.105-12.948-1.322-18.051-3.332-3.628-1.428-6.643-3.247-8.678-5.373-1.803-1.81-2.668-3.682-2.605-5.544.063-2.052 1.181-4.104 3.596-6.156l.748-.624c5.4-3.989 14.52-6.411 24.442-6.411h1.054c8.931.127 17.314 2.243 22.892 5.723l.749.497h.063zm-24.189 10.96c-8.13 0-13.465-1.556-15.447-2.677 1.993-1.185 7.318-2.676 15.447-2.676 8.13 0 13.465 1.555 15.448 2.676-1.983 1.121-7.381 2.676-15.448 2.676z"/><path id="s33jj" d="M326.604 1265.269c-6.632-.106-12.958-1.333-18.051-3.333-3.628-1.428-6.643-3.258-8.678-5.373-1.803-1.81-2.668-3.671-2.605-5.544.064-2.052 1.181-4.104 3.596-6.156l.749-.625c5.398-3.977 14.508-6.41 24.441-6.41h1.055c8.93.127 17.303 2.243 22.891 5.723l.749.497h.063c3.722 2.423 5.704 5.29 5.704 8.03-.073 2.58-2.024 5.257-5.45 7.51-4.988 3.28-13.107 5.68-23.135 5.68zm33.004-21.665c-1.476-1.873-3.448-3.608-5.894-5.152l-.749-.624h-.432c-6.453-3.798-15.627-6.04-25.243-6.22h-1.118c-10.913 0-20.835 2.55-27.352 7.098l-.928.624a20.571 20.571 0 0 0-3.722 3.607c-1.94 2.455-2.994 5.142-3.036 7.966-.064 3.48 1.423 6.971 4.344 9.954.938.995 2.045 1.926 3.258 2.793 6.548 4.718 16.776 7.638 27.816 7.85h1.36c10.249 0 19.222-2.264 25.485-6.01 5.715-3.416 9.184-8.06 9.31-13.339.075-3.004-1.011-5.903-3.1-8.547z"/><path id="s33jk" d="M326.604 1249.655c8.13 0 13.455 1.555 15.448 2.676-1.983 1.121-7.381 2.676-15.448 2.676-8.13 0-13.454-1.555-15.447-2.676 1.993-1.185 7.328-2.676 15.447-2.676zm-.063 11.573c10.291 0 22.206-2.306 22.206-8.897 0-6.59-11.967-8.896-22.206-8.896-10.238 0-22.206 2.306-22.206 8.896 0 6.59 11.978 8.897 22.206 8.897zm-50.886 47.783l-.159.307.243-.19zm-1.392 45.594l-.137.962s-10.355-8.304-11.915-20.13l-.876 1.713a17.56 17.56 0 0 1 1.498 10.526c-.896 5.3-4.102 9.626-8.415 12.176-.474 10.218 5.251 18.914 12.643 23.897 5.673 3.776 14.34 4.072 23.387 1.978l.169-.646a48.682 48.682 0 0 1-16.354-30.476zm111.695 5.247c-4.323-2.55-7.54-6.887-8.435-12.197-.833-4.93.485-9.722 3.268-13.456l-27.394-68.719c-6.263 3.745-15.236 6.009-25.485 6.009h-1.36c-11.04-.212-21.268-3.131-27.816-7.85l-18.126 35.64c1.224.994 2.299 2.084 3.206 3.078 10.934-10.166 45.13-36.887 64.446 5.448 9.69 6.252 16.745 15.773 20.034 26.616 2.478 8.029 2.858 16.798.686 25.579a48.361 48.361 0 0 1-14.077 23.939l.464 2.782c7.002.857 13.434.064 17.946-2.94 7.392-5.004 13.117-13.71 12.643-23.93z"/><path id="s33jl" d="M386.833 1274.292l-11.788 1.555-1.487 12.388-1.424-12.388-11.788-1.555 11.788-1.618 1.424-12.377 1.487 12.377zm27.605 29.81l-16.755 2.243-2.109 17.603-2.108-17.603-16.681-2.242 16.68-2.243 2.11-17.613 2.108 17.613zm-155.876-18.48l22.46 2.983-22.46 2.983-2.847 23.717-2.857-23.717-22.449-2.983 22.449-2.983 2.857-23.77zm96.27 57.367c.674-5.85-3.48-11.139-9.3-11.816-5.832-.688-11.104 3.48-11.79 9.33l-.558 4.539 4.091.56.559-4.538c.243-2.496 2.288-5.797 6.696-5.543 3.975.18 5.894 2.983 5.462 6.717l-.496 4.729 4.777.56.558-4.538zm5.356-7.468c.158.688.232 1.386.2 2.105l-.432 6.41c-.116 1.937-.991 3.671-2.415 4.983-1.423 1.312-3.29 1.936-5.209 1.81l-15.257-.995c-3.902-.307-7.012-3.85-6.759-7.712l.432-6.41c.253-3.978 3.67-7.035 7.634-6.782l15.258.995c1.002.053 1.993.37 2.857.804 1.466.75 2.573 1.989 3.227 3.438.2.444.369.899.464 1.354zm-48.472 3.925c.685-5.85-3.47-11.14-9.3-11.817-5.831-.687-11.103 3.48-11.789 9.33l-.622 4.486 4.091.56.623-4.485c.242-2.496 2.288-5.797 6.695-5.543 3.975.18 5.894 2.983 5.462 6.717l-.495 4.73 4.776.56.559-4.538zm.685-11.51c2.541 1.365 4.091 4.041 3.902 6.855l-.433 6.41c-.116 1.936-.99 3.671-2.414 4.983-1.424 1.312-3.29 1.936-5.21 1.809l-15.257-.994c-3.964-.254-7.012-3.798-6.759-7.66l.433-6.41a7.197 7.197 0 0 1 2.414-4.982c1.424-1.312 3.29-1.936 5.21-1.81l15.257.995c1.002.053 1.993.37 2.857.804z"/><path id="s33jm" d="M263.592 1273.795a4.53 4.53 0 0 1 4.523-4.538 4.53 4.53 0 0 1 4.524 4.538 4.53 4.53 0 0 1-4.524 4.538 4.53 4.53 0 0 1-4.523-4.538z"/><path id="s33jn" d="M380.138 1262.592a4.53 4.53 0 0 1 4.523-4.538 4.53 4.53 0 0 1 4.524 4.538 4.53 4.53 0 0 1-4.524 4.538 4.53 4.53 0 0 1-4.523-4.538z"/><path id="s33jo" d="M237.6 1304.04a4.53 4.53 0 0 1 4.524-4.54 4.53 4.53 0 0 1 4.523 4.54 4.53 4.53 0 0 1-4.523 4.537 4.53 4.53 0 0 1-4.524-4.538z"/><clipPath id="s33jb"><use xlink:href="#s33ja"/></clipPath></defs><g><g transform="translate(-225 -1213)"><g/><g clip-path="url(#s33jb)"><g><use fill="#fcb017" xlink:href="#s33jc"/></g></g><g clip-path="url(#s33jb)"><g><use fill="#e6e7e8" xlink:href="#s33jd"/></g></g><g clip-path="url(#s33jb)"><g><use fill="#b1b3b3" xlink:href="#s33je"/></g></g><g clip-path="url(#s33jb)"><use xlink:href="#s33jf"/></g><g clip-path="url(#s33jb)"><g><use fill="#373737" xlink:href="#s33jg"/></g></g><g clip-path="url(#s33jb)"><use fill="#808184" xlink:href="#s33jh"/></g><g clip-path="url(#s33jb)"><g><use fill="#ffce13" xlink:href="#s33ji"/></g></g><g clip-path="url(#s33jb)"><use fill="#6d6e70" xlink:href="#s33jj"/></g><g clip-path="url(#s33jb)"><g><use fill="#ffe99e" xlink:href="#s33jk"/></g></g><g clip-path="url(#s33jb)"><g><use fill="#fff" xlink:href="#s33jl"/></g><g><use fill="#fff" xlink:href="#s33jm"/></g><g><use fill="#fff" xlink:href="#s33jn"/></g><g><use fill="#fff" xlink:href="#s33jo"/></g></g></g></g></svg>