<svg xmlns="http://www.w3.org/2000/svg" width="198" height="198" viewBox="0 0 198 198"><defs><clipPath id="wzqba"><path d="M0 198V0h198v198z"/></clipPath></defs><g><g><g/><g clip-path="url(#wzqba)"><g><path fill="#f58345" d="M192.337 82.784zm0 0l.475 55.697c.06 6-3.84 11.88-9.434 14.85l-44.313 23.879-31.64 17.018-1.693.871a18.918 18.918 0 0 1-3.257 1.406l-7.366-39.719c1.268.436 2.535.832 3.812 1.159 19.7 5.128 39.194-.96 51.767-15.098 4.742-.346 9.306-2.554 12.484-6.514 6.138-7.643 4.811-18.91-2.97-25.146-7.782-6.247-19.058-5.099-25.196 2.554-3.356 4.188-4.465 9.455-3.514 14.395-7.376 7.237-17.77 8.741-26.443 6.454-4.821-1.267-9.316-4.95-13.137-10.038 8.543-9.91 13.008-23.107 11.632-36.71a26.564 26.564 0 0 0 5.346 3.248c-1.515 7.801-3.435 11.82-3.435 11.88l-2.04 4.247 4.663-.06c15.434-.118 26.67-4.771 33.542-13.86l29.937-.237c8.435-.07 15.94-4.079 20.78-10.276zM93.19 62.37c-1.139-1.426-2.337-2.802-3.634-4.079-11.701-11.702-29.175-17.236-46.47-12.87-1.802.465-3.604.99-5.297 1.634a42.244 42.244 0 0 0-4.83 2.217C14.73 58.53 3.96 78.507 6.751 99.12a46.358 46.358 0 0 0 1.05 5.474 48.552 48.552 0 0 0 16.047 25.503c-5.643 3.277-17.147 11.365-17.404 22.948C2.435 149.936 0 145.372 0 140.412V58.529c-.06-6 3.138-11.88 8.732-14.85L53.054 19.8l31.61-16.998 1.694-.871c5.593-3.09 12.573-3.149 18.226-.179l3.088 1.634 9.95 5.148C103.802 9.584 92.892 21.236 93 35.353z"/></g></g><g clip-path="url(#wzqba)"><g><path fill="#bbd758" d="M143.887 52.034c-.921-.653-3-2.455-4.149-4.534l2.129-.01 10.375-.05c-.158.298-.336.605-.524.912-.753 1.237-1.723 2.494-2.97 3.415l-.05.04-1.148.821.099 12.247.01.861h-2.565l-.059-12.89zm43.48-.703a2.21 2.21 0 0 0 2.218-2l.03-.257c0-.455-.12-.88-.327-1.247l-.129-.178c-.376-.525-.99-.862-1.792-.812l-9.672-.05c-.772 0-1.445.377-1.851.96a2.276 2.276 0 0 0-.396 1.288c-.04 1.217.99 2.247 2.208 2.247l9.711.05zm-2.92 18.108a2.016 2.016 0 0 0-1.119-2.555l-8.435-3.286c-.94-.367-1.97.04-2.445.86l-.129.248a2.004 2.004 0 0 0 1.11 2.574l8.434 3.287c.238.119.475.159.713.159.792 0 1.544-.476 1.861-1.268zm-44.421 13.89a5.738 5.738 0 0 0 1.95.326l10.92-.109s5.464-.06 5.405-6.227l-.04-7.415v-.267a23.733 23.733 0 0 0 1.891-1.07c7.02-4.385 11.662-12.216 11.593-21.077a24.356 24.356 0 0 0-3.841-12.949c-4.406-6.91-12.177-11.484-20.958-11.415-.347.01-.693.02-1.04.04-13.058.644-23.433 11.563-23.324 24.76.01 1.673.188 3.297.524 4.87 1.584 7.495 6.594 13.722 13.296 16.999v1.515l.06 6.167s.05 4.584 3.564 5.851zM118.335 67.28c.227-.089.425-.227.594-.386a2.005 2.005 0 0 0 .505-2.188 2.004 2.004 0 0 0-2.574-1.108l-8.435 3.286a2.004 2.004 0 0 0-1.109 2.574 1.997 1.997 0 0 0 1.554 1.218l.307.05c.238 0 .475-.04.713-.159l8.445-3.287zm-4.218-15.998c.515 0 .99-.188 1.366-.495.515-.416.862-1.05.832-1.752 0-1.258-.99-2.248-2.247-2.248l-9.673.05c-1.395-.09-2.247.99-2.247 2.247 0 .188.03.366.07.535a2.206 2.206 0 0 0 2.177 1.713zm-4.762-26.205a2.294 2.294 0 0 0-3.069.94 2.295 2.295 0 0 0 .95 3.06l9.129 4.722c.356.178.722.267 1.079.267.336 0 .663-.1.96-.238a2.313 2.313 0 0 0 1.02-.93 2.28 2.28 0 0 0-.94-3.06l-9.129-4.761zm63.39 5.177a2.27 2.27 0 0 0-.416 2.654 2.281 2.281 0 0 0 1.98 1.168c.357 0 .723-.09 1.08-.267l9.127-4.723c.297-.158.545-.376.733-.633a2.258 2.258 0 0 0 .218-2.426 2.28 2.28 0 0 0-3.06-.94l-9.127 4.762a2.178 2.178 0 0 0-.535.405zm19.295 24.988l.09 10.98c.118 11.473-9.198 20.908-20.672 21.027l-32.907.287-.872 1.277c-5.01 7.395-13.513 11.533-25.393 12.405.88-2.683 1.87-6.465 2.683-11.475l.406-2.445-2.327-.812c-8.336-2.86-13.979-10.721-14.038-19.513l-.238-31.68c-.118-11.474 9.197-20.908 20.672-21.027l9.137-.07 42.283-.336c11.474-.119 20.909 9.197 21.028 20.671l.148 20.711zm-52.47.337l.04 8.514.01 1.207c-6.752-2.9-11.514-9.593-11.593-17.404l.01-.208c.01-10.454 8.474-18.968 18.948-19.077 10.544-.109 19.177 8.415 19.286 18.959.079 6.999-3.663 13.137-9.267 16.513-.742.445-1.515.861-2.316 1.207-.505.218-1.03.406-1.555.585v-.426l-.07-10.138c4.199-3.831 5.783-9.722 5.842-9.999l.93-3.445-26.126.218h-.257v2.732c.06 4.97 4.04 9.01 6.118 10.762z"/></g></g><g clip-path="url(#wzqba)"><path fill="#fff" d="M157.014 64.063c-.742.445-1.515.861-2.317 1.208a17.25 17.25 0 0 1-1.554.584v-.426l-.07-10.137c4.208-3.822 5.792-9.722 5.842-10l.93-3.445-26.126.218h-.257v2.733c.06 4.97 4.04 9.008 6.118 10.76l.06 8.495.01 1.208c-6.752-2.9-11.514-9.593-11.594-17.404l.01-.208c.01-10.445 8.475-18.969 18.949-19.078 10.543-.109 19.176 8.415 19.285 18.959.06 7.019-3.693 13.157-9.286 16.533zM141.867 47.48l10.375-.05c-.158.298-.346.605-.524.912-.753 1.247-1.723 2.495-2.97 3.415l-.05.04-1.148.822.099 12.246.01.861h-2.565l-.059-12.89-1.148-.821c-.931-.654-3-2.456-4.149-4.535zm26.037-12.939c-4.406-6.91-12.177-11.484-20.958-11.415-.347 0-.693.02-1.04.04-13.058.653-23.433 11.563-23.324 24.76a24.71 24.71 0 0 0 .525 4.87c1.584 7.495 6.593 13.722 13.295 16.999v1.515l.06 6.167s.05 4.584 3.564 5.841a5.782 5.782 0 0 0 1.95.327l10.92-.109s5.464-.06 5.405-6.227l-.04-7.415v-.267a23.731 23.731 0 0 0 1.891-1.07c7.01-4.385 11.663-12.216 11.593-21.077a24.348 24.348 0 0 0-3.841-12.939z"/></g><g clip-path="url(#wzqba)"><g><path fill="#cae861" d="M184.437 69.439v.02a2.005 2.005 0 0 1-1.861 1.267c-.238 0-.475-.04-.713-.159l-8.435-3.287a2.004 2.004 0 0 1-1.109-2.574l.13-.247a2.007 2.007 0 0 1 2.444-.861l8.435 3.286a2.003 2.003 0 0 1 1.109 2.555zm4.851-21.602c.208.356.327.792.337 1.257l-.03.257a2.226 2.226 0 0 1-2.228 1.99l-9.712-.05c-1.217 0-2.257-1.029-2.207-2.246 0-.486.148-.921.396-1.287a2.238 2.238 0 0 1 1.851-.96l9.672.049a1.971 1.971 0 0 1 1.792.812l.129.178zm-14.979-13.771a2.27 2.27 0 0 1-1.98-1.178c-.475-.911-.257-1.96.416-2.643.158-.149.337-.298.535-.406l9.127-4.762a2.28 2.28 0 0 1 3.06.94 2.26 2.26 0 0 1-.218 2.426 2.265 2.265 0 0 1-.733.633l-9.128 4.723a2.412 2.412 0 0 1-1.079.267zm-57.44 29.532a2.004 2.004 0 0 1 2.575 1.108 2.005 2.005 0 0 1-1.11 2.574l-8.434 3.287a1.553 1.553 0 0 1-.713.159l-.307-.05a1.977 1.977 0 0 1-1.554-1.218 2.004 2.004 0 0 1 1.109-2.574l8.435-3.286zm-2.772-12.316l-9.711.05c-1.07 0-1.94-.723-2.178-1.713a2.397 2.397 0 0 1-.07-.535c0-1.257.852-2.336 2.248-2.247l9.672-.05c1.257 0 2.247.99 2.247 2.248.03.703-.307 1.336-.831 1.752a2.186 2.186 0 0 1-1.376.495zm4.386-21.443a2.294 2.294 0 0 1 .95 3.059 2.313 2.313 0 0 1-1.02.93 2.152 2.152 0 0 1-.96.238c-.356 0-.722-.09-1.079-.267l-9.127-4.723a2.295 2.295 0 0 1-1.198-2.128c.01-.317.089-.634.247-.93a2.28 2.28 0 0 1 3.06-.941l9.127 4.762z"/></g></g><g clip-path="url(#wzqba)"><g><path fill="#d8dbdb" d="M63.3 106.395c4.366-1.326 8.02-.703 11.02 1.465-1.605 2.406-4.97 6.257-10.752 7.643-1.782.436-3.802.624-6.059.466a23.668 23.668 0 0 1-2.524-.307c-.1-2.06.534-3.792 1.702-5.227 1.337-1.654 3.396-2.911 5.861-3.782.248-.09.495-.178.753-.258zm12.643 2.861l-.139.188.11-.217z"/></g></g><g clip-path="url(#wzqba)"><g><path fill="#96989c" d="M58.232 98.257a42.36 42.36 0 0 0 4.96 1.03c.376.05.732.09 1.099.129l-1.228.584-6.445 3.069-1.178.554c.515-.742.94-1.455 1.297-2.098 1.07-1.931 1.495-3.277 1.495-3.267zm25.057-21.621l-1.693-4.247c-2.158-5.534-8.386-8.277-13.92-6.118-5.534 2.158-8.276 8.385-6.118 13.919l1.693 4.316 3.96-1.455-1.693-4.306c-.93-2.396-.643-6.297 3.376-8.158 3.673-1.693 6.762-.178 8.098 3.376l1.743 4.425zM43.105 93.94l-1.693-4.247c-2.159-5.534-8.386-8.276-13.92-6.118-5.534 2.158-8.276 8.385-6.118 13.92l1.515 4.246 3.96-1.455-1.515-4.247c-.93-2.396-.643-6.297 3.376-8.158 3.673-1.693 6.762-.178 8.098 3.376l1.743 4.425zm11.93-41.818c15.295 0 28.61 8.465 35.55 20.939l-3.267 1.465S93.674 91.18 85.1 106.01a32.976 32.976 0 0 1-5.613 7.168 31.99 31.99 0 0 1-2.336 2.079l-.129.05-.03.029c-1.227 1.05-2.87 1.129-3.692.178-.565-.653-.575-1.623-.139-2.505l.05-.089c.197-.366.465-.712.821-1.02l.347-.247a16.386 16.386 0 0 0 1.455-2.208l.139-.188-.03-.03.139-.277c2.722-4.088 3.85-9.048 3.168-13.978.425-.466.811-.95 1.158-1.446 1.336-1.93 2.128-4.049 2.594-5.95.772-3.148.653-5.692.653-5.692-2.91 3.435-8.702 4.376-11.88 4.623-1.336.1-2.218.09-2.218.09-4.118-.98-7.128-.308-9.286.92-3.603 2.05-4.811 5.653-4.811 5.653-15.553-2.624-16.484 10.83-16.484 10.83-.465 7.109-8.91 10.366-8.91 10.366 5.515.574 10.02-.119 13.682-1.485 2.851 2.435 6.465 4.088 10.365 4.801.753.149 1.525.248 2.287.317.545.05 1.08.09 1.624.1h.574c.822.019 1.743 0 2.713-.07l-.268.05.06.039c1.06-.01 2 .495 2.356 1.376.485 1.228-.317 2.703-1.812 3.307l-.257.079c-.178.079-.366.148-.584.218l.089.03c-.386.098-.782.197-1.178.286-8.346 1.921-19.988 2.436-29.81-5.138-3.058-2.356-5.93-5.484-8.473-9.613l-3.198 1.169a40.381 40.381 0 0 1-3.792-17.118c0-22.413 18.177-40.59 40.59-40.59zm101.434 63.727c5.139 4.128 6.01 11.583 1.96 16.632-.405.505-.84.95-1.306 1.366-2.515 2.267-5.831 3.267-9.088 2.93a11.94 11.94 0 0 1-6.277-2.584 11.983 11.983 0 0 1-3.455-4.464c-1.436-3.188-1.426-6.9.158-10.079.357-.732.802-1.435 1.337-2.098 4.069-5.07 11.533-5.832 16.671-1.703zm-22.571 18.394zm0 0a18.831 18.831 0 0 0 4.078 4.643 18.33 18.33 0 0 0 5.376 2.97 44.023 44.023 0 0 1-10.256 7.138l-6.554-10.187a30.686 30.686 0 0 0 7.356-4.564z"/></g></g><g clip-path="url(#wzqba)"><g><path fill="#4c4d4f" d="M43.738 112.89c5.831-2.168 9.514-6.05 11.712-9.267.505-.742.94-1.455 1.297-2.098 1.06-1.921 1.495-3.277 1.495-3.277 1.772.475 3.415.811 4.96 1.03.376.049.742.088 1.099.128 7.514.822 12.107-1.356 14.919-4.435.425-.466.812-.95 1.158-1.446 1.337-1.93 2.129-4.049 2.594-5.95.772-3.158.653-5.692.653-5.692-2.91 3.445-8.702 4.376-11.88 4.623-1.336.11-2.217.09-2.217.09-4.119-.98-7.128-.308-9.286.92-3.594 2.06-4.802 5.663-4.802 5.663-15.553-2.624-16.483 10.83-16.483 10.83-.466 7.109-8.91 10.366-8.91 10.366 5.514.574 10.028-.12 13.691-1.485zm47.46-40.095l-.633.287-3.267 1.465s6.356 16.652-2.217 31.482c-1.426 2.465-3.267 4.88-5.614 7.168a40.456 40.456 0 0 1-2.336 2.079l-.129.05-.03.029c-1.217 1.05-2.87 1.128-3.692.178-.565-.653-.574-1.624-.139-2.505-2.673 2.713-5.96 4.05-9.029 4.663-.603.119-1.207.218-1.782.277-.346.04-.693.07-1.03.1l-.267.049.06.04c1.06-.01 2 .485 2.356 1.376.495 1.227-.317 2.702-1.812 3.306l-.257.08c-.178.069-.366.148-.584.217l.089.03c-.386.099-.772.198-1.178.287-8.346 1.92-19.998 2.435-29.809-5.138-3.05-2.356-5.93-5.495-8.474-9.613l-3.198 1.168.158.357.1.207c.168.337.405.822.732 1.426l.287.535c.198.366.406.722.624 1.079.099.178.208.356.326.534a52.254 52.254 0 0 0 4.346 6.079c7.01 8.405 19.86 18.127 39.73 12.79a46.026 46.026 0 0 0 3.415-1.049 66.446 66.446 0 0 0 9.217-4.02c0 .001 2.85-1.613 6.365-4.88a44.133 44.133 0 0 0 4.356-4.682l.07-.09c7.048-8.88 13.256-23.868 3.247-45.361z"/></g></g><g clip-path="url(#wzqba)"><path fill="#373737" d="M87.952 118.107l-.07.09c-.396.484-.782.96-1.178 1.405a44.134 44.134 0 0 1-3.178 3.277c-3.504 3.267-6.365 4.88-6.365 4.88a69.954 69.954 0 0 1-6.732 3.1c-.842.326-1.674.643-2.485.92a57.854 57.854 0 0 1-3.416 1.05c-19.87 5.335-32.72-4.386-39.729-12.791a49.975 49.975 0 0 1-4.346-6.08l-.326-.534a54.375 54.375 0 0 1-.624-1.079l-.287-.534c-.327-.604-.564-1.09-.733-1.426l-.099-.208-.158-.356a40.415 40.415 0 0 1-3.792-17.117c0-22.414 18.177-40.59 40.59-40.59 15.296 0 28.611 8.464 35.531 20.958l.634-.287c10.019 21.503 3.811 36.491-3.237 45.322zm45.946 16.137c1.069 1.723 2.415 3.307 4.088 4.643a18.205 18.205 0 0 0 5.376 2.97 44.441 44.441 0 0 1-10.256 7.138l-6.554-10.187a31.144 31.144 0 0 0 7.346-4.564zm5.89-16.681c4.069-5.07 11.533-5.832 16.672-1.703 5.138 4.128 6.019 11.573 1.95 16.642-.406.504-.842.95-1.307 1.366-2.514 2.257-5.831 3.267-9.088 2.93a11.94 11.94 0 0 1-6.277-2.584 12.086 12.086 0 0 1-3.455-4.465c-1.435-3.187-1.425-6.9.159-10.078.376-.742.821-1.445 1.346-2.109zm31.66-30.324l-32.907.287-.872 1.277c-5.009 7.395-13.513 11.534-25.393 12.405.871-2.683 1.861-6.465 2.683-11.474l.406-2.446-2.327-.812C104.712 83.626 99.06 75.765 99 66.964l-.238-31.68c-.118-11.475 9.198-20.91 20.672-21.028l9.137-.07 42.293-.326c11.474-.119 20.909 9.197 21.028 20.671l.148 20.711.08 10.97c.118 11.473-9.208 20.908-20.672 21.027zm26.374-52.767c-.11-14.672-12.167-26.552-26.899-26.433l-51.48.406c-.613 0-1.217.04-1.811.079-13.83 1.05-24.74 12.702-24.622 26.819L93.2 62.37a49.016 49.016 0 0 0-3.634-4.079C77.863 46.59 60.39 41.055 43.095 45.421c-1.802.466-3.614.99-5.297 1.634a39.902 39.902 0 0 0-4.831 2.217C14.731 58.53 3.96 78.497 6.752 99.12a46.358 46.358 0 0 0 1.05 5.474 48.492 48.492 0 0 0 16.047 25.503c-5.643 3.277-17.147 11.365-17.404 22.948-.149 6.693 3.465 14.563 14.157 23.334l1.06-11.92.266-3.048 1.188-13.375c.149-1.297 1.13-2.307 2.386-2.554.268-.05.535-.08.812-.06 1.574.119 2.733 1.515 2.624 3.148l-1.426 15.741-3.059 33.819-5.178.05v.01l83.398-.753-.168-.921-7.366-39.719c1.267.436 2.544.832 3.811 1.158 19.701 5.129 39.195-.96 51.768-15.097 4.742-.347 9.296-2.554 12.484-6.514 6.138-7.653 4.81-18.91-2.97-25.146-7.782-6.237-19.058-5.089-25.196 2.554-3.356 4.188-4.465 9.464-3.514 14.395-7.376 7.227-17.78 8.741-26.443 6.454-4.822-1.267-9.316-4.95-13.138-10.038 8.554-9.91 13.019-23.107 11.633-36.71a26.118 26.118 0 0 0 5.346 3.248c-1.515 7.801-3.436 11.82-3.436 11.88l-2.039 4.247 4.663-.06c15.434-.118 26.67-4.771 33.541-13.86l29.908-.247c8.435-.07 15.94-4.079 20.78-10.276A26.58 26.58 0 0 0 198 66.152l-.178-31.68z"/></g><g clip-path="url(#wzqba)"><path d="M26.324 145.411c1.574.119 2.732 1.515 2.624 3.138l-1.426 15.741-3.06 33.819-5.177.05-.584.01v-.288l1.91-21.513 1.06-11.92.267-3.048 1.188-13.375c.139-1.297 1.129-2.307 2.386-2.554.258-.05.535-.08.812-.06zm47.976-37.54c-2.99-2.169-6.653-2.792-11.01-1.466-.257.08-.504.168-.752.258-2.465.88-4.514 2.128-5.86 3.781-1.169 1.436-1.802 3.178-1.703 5.228.87.148 1.712.247 2.524.307 2.267.148 4.277-.04 6.059-.466 5.782-1.386 9.158-5.237 10.742-7.643zm-10.01-8.465c7.515.822 12.118-1.356 14.94-4.455.673 4.93-.446 9.89-3.168 13.979l-.248.495c-.445.802-.93 1.544-1.455 2.207-.119.08-.238.149-.347.248a3.455 3.455 0 0 0-.821 1.02l-.05.089c-2.683 2.712-5.96 4.049-9.029 4.663-.603.118-1.197.208-1.782.277-.346.04-.693.07-1.03.099-.97.079-1.88.089-2.712.07h-.574c-.545-.01-1.089-.05-1.624-.1a21.908 21.908 0 0 1-2.287-.317c-3.9-.703-7.524-2.366-10.365-4.801 5.831-2.168 9.514-6.05 11.712-9.267l1.178-.554 6.445-3.069 1.218-.584zm-1.049-14.91zm0 0l-1.683-4.306c-2.158-5.534.574-11.761 6.099-13.92 5.534-2.148 11.76.585 13.919 6.119l1.693 4.247-4.544 1.742-1.743-4.425c-1.346-3.554-4.425-5.069-8.098-3.376-4.02 1.871-4.306 5.772-3.376 8.158l1.693 4.306zm-21.84 5.188l1.694 4.247-4.544 1.743-1.743-4.426c-1.346-3.554-4.425-5.069-8.098-3.376-4.02 1.871-4.306 5.772-3.376 8.158l1.505 4.247-3.96 1.455-1.515-4.247c-2.148-5.534.584-11.76 6.118-13.92 5.534-2.147 11.771.585 13.92 6.12z"/></g></g></g></svg>