<svg xmlns="http://www.w3.org/2000/svg" width="200" height="201" viewBox="0 0 200 201"><defs><clipPath id="pmrwa"><path d="M0 201V0h200v201z"/></clipPath></defs><g><g><g/><g clip-path="url(#pmrwa)"><g><g><path fill="#ffce13" d="M61.817 103.352c3.77 4.098 8.222 7.45 13.048 10.122-10.651 4.031-29.977 12.947-40.964 27.715l-2.625.29a3.461 3.461 0 0 0-3.048 3.825c.094.869.506 1.62 1.099 2.17-.095.2-.218.377-.282.59l-4.24 13.693C9.378 144.6 0 122.14 0 97.523c0-35.72 19.743-66.858 49.11-83.848l3.335 30.742.124.644c-.205.545-.394 1.1-.423 1.71l-.422 2.837c-4.31-.887-7.364-1.638-8.926-2.046-2.684-1.39-5.444-2.217-8.404-2.353h-1.033c-7.922 0-11.715 3.884-13.506 7.147-4.48 8.325-.9 20.952 3.1 27.266 8.68 13.805 23.982 20.054 35.216 22.826zm86.71-91.073c30.684 16.654 51.46 48.566 51.473 85.237 0 24.304-9.155 46.515-24.223 63.56-.453-.893-.881-1.803-1.363-2.684l-.006-.012c1.339-1.442 1.75-3.635.664-5.54l-11.034-19.343c1.11-.68 1.802-1.944 1.65-3.328-.218-1.91-1.98-3.305-3.805-3.074l-2.637.29c-.253-.266-.518-.527-.858-.71-.768-.408-17.053-9.015-33.847-13.503 4.685-2.684 8.89-6.007 12.413-9.89 17.781-3.606 31.493-11.93 38.94-23.66 4.064-6.45 7.651-19.285 2.895-27.544-1.933-3.328-5.996-7.283-14.405-6.87-3.448.136-6.753 1.39-9.995 3.607h-.07c-2.414.555-4.757 1.11-7.17 1.596-.107-.325-.253-.627-.377-.946l-.51-3.79 2.266-33.396z"/></g></g><g><path fill="#ababab" d="M111.803 132.61l13.242-12.09c-2.642-.768-5.302-1.454-7.916-1.968-.833-.166-1.509-.65-2.002-1.277-1.227.402-2.408.893-3.682 1.206-9.343 2.288-18.697 1.821-27.242-.875-.393.112-3.623 1.088-8.333 2.957l15.168 14.348z"/></g><g><path fill="#e6d0ba" d="M68.758 137.347c-3.188-2.856-5.795-6.149-7.698-9.79 1.586-.882 3.142-1.709 4.675-2.477l11.11 11.38zm-1.96.217l-7.382-9.08c.552-.32 1.093-.616 1.644-.923 1.909 3.643 4.51 6.935 7.698 9.79z"/></g><g><path fill="#ababab" d="M102.208 81.005c12.889-.278 23.225-2.914 35.698-9.29.934-.49 1.756-.98 2.614-1.471-.229 2.696-.646 5.114-1.369 6.397-2.207 3.954-9.647 3.748-11.58 6.384-.757 1.04-2.137 4.505-4.48 8.324-.623 1.04-1.31 2.152-2.138 3.193l-.476.615c-2.754-3.394-6.911-6.852-13.03-8.502-2.344-.555-5.033 1.94-7.928 1.733h-.482c-2.548.135-4.89-2.43-7.029-1.946-6.46 1.614-10.788 5.274-13.606 8.833l-.523-.668c-.757-.97-1.444-2.08-2.066-3.05-2.344-3.89-3.789-7.497-4.617-8.537-1.93-2.636-9.371-2.43-11.58-6.384-.915-1.614-1.333-5.025-1.514-8.531l1.38 1.176h.205c.552.415 1.033.834 1.515 1.04 13.922 9.016 31.223 10.548 40.318 10.684zm7.522 16.33l6.096 2.6c-2.743 2.093-6.007 3.447-9.89 3.204-1.38-.07-2.619-.555-3.17-2.565-.066-.26-.089-.645-.136-.958zm-20.482.076l6.46 2.081-.048.597c-.276 2.358-1.309 2.98-2.824 3.05-3.846.243-7.059-1.081-9.766-3.127z"/></g><g><g><path fill="#635647" d="M120.958 102.123l3.065 1.278.06.035c-.823.591-1.645 1.023-2.473 1.531-.4.248-.799.515-1.198.745a41.507 41.507 0 0 1-3 1.573l-.588.271c-3.916 1.785-7.563 2.856-10.276 3.364-.898.141-1.656.278-2.343.348-.276 0-.552 0-.827.07-1.17.137-1.791.137-1.791.137v-.07c-1.657.07-3.242.07-4.41 0v.07s-.277 0-.758-.07c-.617-.071-.963-.071-.963-.071v-.07c-3.66-.39-12.72-1.982-21.123-7.574l.522-.22 3.024-1.27 5.191-2.188c2.708 2.04 5.92 3.37 9.766 3.127 1.515-.064 2.548-.692 2.824-3.05l.047-.597.065.018c1.239-1.11 3.194-2.519 3.54-3.908.41 1.318 1.826 2.98 3.065 4.091l.247-.077c.047.313.071.697.136.958.552 2.01 1.791 2.495 3.17 2.565 3.889.243 7.148-1.11 9.89-3.204l5.138 2.188zm-45.14-2.973c-.9 1.59-1.451 2.89-1.762 3.771l-.159.45c-6.312-4.321-12.19-10.919-15.033-21.04 0 0-2.495-6.94-2.26-15.484l.264.22.006.005c.34.343.617.55.957.828.14.136.276.207.276.207.181 3.506.605 6.917 1.515 8.53 2.207 3.955 9.647 3.749 11.58 6.385.822 1.04 2.273 4.653 4.616 8.537.622.97 1.309 2.08 2.066 3.05l.523.668a27.091 27.091 0 0 0-2.59 3.873zm66.157-29.732l.076-.04c-.37 8.093-2.83 14.755-2.83 14.755-1.27 2.992-2.76 5.545-4.335 7.922l-.411.603a43.655 43.655 0 0 1-4.404 5.48c-1.663 1.786-3.377 3.359-5.127 4.683l-.023-.06c-.34-.928-.922-2.252-1.832-3.825a28.387 28.387 0 0 0-2.614-3.783l.476-.615c.829-1.04 1.516-2.153 2.138-3.193 2.343-3.813 3.723-7.284 4.48-8.324 1.932-2.636 9.372-2.43 11.58-6.384.723-1.283 1.14-3.701 1.369-6.397.452-.26.952-.514 1.374-.775l.083-.047z"/></g></g><g><path fill="#373634" d="M123.436 131.328c4.217-1.857 8.685-4.21 12.602-7.077-3.488-1.336-7.216-2.63-10.993-3.73l-13.242 12.09zm-32.404 3.57l-15.168-14.347a128.641 128.641 0 0 0-10.13 4.528l11.11 11.38z"/></g><g><path fill="#38322b" d="M124.951 102.815l-.023-.06a25.54 25.54 0 0 0-1.832-3.825 27.574 27.574 0 0 0-2.614-3.783c-2.76-3.388-6.917-6.846-13.03-8.502-2.343-.555-5.033 1.946-7.928 1.732h-.482c-2.548.137-4.892-2.43-7.029-1.945-6.454 1.614-10.78 5.274-13.606 8.833a27.992 27.992 0 0 0-2.59 3.866c-.903 1.59-1.45 2.891-1.761 3.772l-.159.45c-.076.248-.13.455-.146.567l.587-.248.522-.22 3.024-1.27 5.191-2.187 6.183-2.6 6.46 2.08.064.018c1.239-1.111 3.194-2.518 3.54-3.908.412 1.318 1.826 2.98 3.065 4.09l.247-.076 7.094-2.276 6.096 2.601 5.138 2.188 3.065 1.27.07.03 1.21.503c-.033-.16-.168-.58-.356-1.1z"/></g><g><g><path fill="#a37c49" d="M58.635 37.511l-2.96-27.319C69.047 3.73 84.057 0 99.994 0c14.957 0 29.097 3.287 41.829 9.027l-1.908 28.23-.235 3.494-7.863.047-31.768.189-33.432.2-7.575.048zm82.323 20.976c1.72-.267 3.436-.532 5.157-.857-1.626 1.514-3.071 2.755-4.504 3.766l-.252.189-.006.006-.57.367c-1.886 1.324-3.788 2.376-6.043 3.511-11.44 5.894-20.882 8.395-32.668 8.602l-.111.178-.37-.178c-6.683-.072-23.707-1.177-36.873-9.714-.553-.277-1.104-.762-1.656-1.247l-.963-.763h-.07c-1.328-1.005-2.66-2.146-3.988-3.346l-.117-.1-.029-.03-.117-.09-.159-.117-1.239-1.111 1.626.265.077.019h.018l.047.006c11.163 1.939 26.578 3.736 44.406 3.736 13.09 0 25.897-.97 38.158-3.05l.023-.007.036-.006.187-.029z"/></g></g><g><path fill="#373737" d="M170.097 75.874c-6.477 10.133-17.229 15.613-26.742 18.593a50.6 50.6 0 0 0 6.823-31.156c2.414-2.288 5.238-5.132 8.686-9.086l.205-.207c1.933-1.248 3.723-1.803 5.585-1.874 4.134-.207 6.682.905 8.133 3.4 2.889 4.924.892 14.708-2.69 20.33zm-30.876 8.253c-1.269 2.992-2.76 5.551-4.335 7.922l-.41.603c-2.901 4.233-6.161 7.62-9.526 10.163.188.514.323.94.352 1.111l-1.21-.503c-.828.591-1.65 1.023-2.472 1.531-.4.249-.793.508-1.198.745a44.593 44.593 0 0 1-3 1.572l-.588.272c-3.916 1.79-7.563 2.856-10.276 3.364-.899.136-1.657.277-2.343.348-.276 0-.552 0-.827.07-1.175.137-1.791.137-1.791.137v-.07c-1.657.07-3.242.07-4.41 0v.07s-.277 0-.758-.07c-.622-.071-.963-.071-.963-.071v-.071c-3.658-.39-12.72-1.98-21.123-7.573l-.587.248c.018-.112.07-.313.146-.568-6.312-4.322-12.19-10.92-15.033-21.04 0 0-2.501-6.941-2.26-15.483l.264.22.006.005c.34.343.617.55.957.828.135.136.276.207.276.207l1.374 1.176h.206c.552.414 1.033.834 1.515 1.04 13.923 9.022 31.223 10.548 40.318 10.684h.688c12.89-.278 23.225-2.915 35.703-9.3.928-.49 1.756-.981 2.614-1.471.446-.26.951-.514 1.374-.775l.083-.047.076-.042c-.382 8.105-2.842 14.768-2.842 14.768zM58.006 57.818l.077.012h.018l.047.007c11.163 1.939 26.578 3.736 44.406 3.736 13.084 0 25.896-.97 38.158-3.05l.023-.007.036-.006.187-.03c1.715-.265 3.435-.531 5.15-.863-1.632 1.508-3.071 2.75-4.504 3.766l-.252.189-.007.006-.57.366c-1.885 1.325-3.787 2.377-6.042 3.512-11.44 5.9-20.882 8.395-32.668 8.602l-.111.178-.37-.178c-6.683-.07-23.707-1.177-36.873-9.714-.552-.277-1.103-.762-1.656-1.247l-.963-.763h-.07c-1.328-1.005-2.66-2.146-3.988-3.346l-.117-.101-.023-.018-.117-.09-.159-.117-1.239-1.111zM28.74 75.874c-3.518-5.551-5.514-15.193-2.824-20.189 1.309-2.364 3.723-3.541 7.44-3.541h.693c1.762.118 3.388.574 5.103 1.365l-.053.166 1.162.331c2.954 1.461 5.85 3.678 8.674 6.179v.07c-.552 3.193-.758 6.521-.622 9.921a46.692 46.692 0 0 0 .205 9.785c.206 1.803.622 3.606 1.104 5.758.622 2.566 1.45 5.131 2.548 7.632-8.473-3.117-17.71-8.461-23.43-17.477zm150.043-23.802c-1.933-3.328-5.996-7.283-14.405-6.87-3.448.137-6.753 1.39-9.995 3.607h-.07c-2.414.555-4.757 1.11-7.17 1.596-.106-.326-.253-.627-.377-.947l-.51-3.79 2.266-33.396c-1.099-.597-2.225-1.123-3.347-1.679a100.95 100.95 0 0 0-3.347-1.572l-1.908 28.23-.235 3.493-7.863.048-31.768.189-33.431.2-7.576.048-.406-3.724-2.965-27.313c-1.093.527-2.232.987-3.3 1.55-1.122.59-2.167 1.295-3.259 1.927l3.336 30.742c.023.224.083.425.118.644-.212.55-.4 1.106-.429 1.714l-.417 2.838c-4.31-.887-7.364-1.638-8.926-2.046-2.684-1.389-5.444-2.217-8.404-2.358h-1.04c-7.927 0-11.714 3.883-13.505 7.147-4.48 8.324-.9 20.951 3.1 27.266 8.685 13.81 23.982 20.054 35.216 22.826l3.653.905c3.77 4.097 8.22 7.45 13.048 10.122-10.657 4.038-29.977 12.953-40.964 27.715l4.991-.55 5.15-.567a63.026 63.026 0 0 1 5.549-4.925 86.347 86.347 0 0 1 9.818-6.663c.552-.325 1.099-.615 1.644-.922a105.78 105.78 0 0 1 4.675-2.476 128.262 128.262 0 0 1 10.13-4.528c4.715-1.863 7.945-2.838 8.333-2.957a50.33 50.33 0 0 0 27.242.875c1.274-.313 2.455-.804 3.682-1.206.493.626 1.169 1.11 2.002 1.277 2.614.514 5.274 1.2 7.916 1.968 3.777 1.1 7.505 2.395 10.993 3.73l.34.13 1.316.515a196.422 196.422 0 0 1 9.095 3.866l1.163-.13 7.07-.78 4.222-.468c-.253-.265-.517-.526-.858-.709-.77-.408-17.053-9.021-33.847-13.503 4.686-2.684 8.89-6.007 12.413-9.89 17.781-3.606 31.499-11.936 38.94-23.66 4.07-6.445 7.652-19.28 2.9-27.539z"/></g><g><path fill="#e6d8ca" d="M48.559 181.035a107.459 107.459 0 0 0 5.514 3.003v-5.19zm0 0l-21.733 8.632v11.351h27.247V184.04a108.254 108.254 0 0 1-5.514-3.004z"/></g><g><path fill="#e6b07a" d="M113.09 198.884l-6.09-4.18-34.019-23.37-11.979 4.789h-.059v24.89h52.85z"/></g><g><g><path fill="#614626" d="M84.456 150.465l-.224-1.84c1.24-.324 2.308-.585 3.259-.81l.294 1.934.1.663 2.332-.26 3.106-.35-.14-.892-.147-.922-.406-2.578-.522-3.346-.047-.302 4.363-.48.035.32.364 3.43.34 3.233.03.255.364 3.423-4.91.704-7.78 1.117-.411-3.299zm-.882-7.114l-.082-.644 3.165-.348.088.573.247 1.62c-.628.125-1.256.249-1.873.38l-1.31.306-.211-1.685zm91.48 9.49c1.091 1.904.675 4.092-.666 5.543a50.77 50.77 0 0 0-1.344-2.472s-1.902.119-5.191.349c-7.305.508-21.498 1.554-37.09 3.021-1.115.06-2.23.178-3.405.296-1.116.118-2.29.236-3.465.354a783.45 783.45 0 0 0-16.859 1.88l-33.865 2.176c-.177.006-.323.095-.488.13-.176.011-.346 0-.522.065l-10.864 4.316-.294.118-3.523 1.419-3.406 1.36-12.579 5.001-21.598 8.59-2.09.823c-.072-.615-.066-1.26.146-1.933l6.853-22.122 4.252-13.687c.064-.212.187-.39.282-.59a3.4 3.4 0 0 0 2.32.922l.38-.019 8.756-.963 9.284-1.023a400.219 400.219 0 0 0-11.256 4.977c-4.915 2.253-8.321 3.914-8.321 3.914l-2.86 9.471-4.392 14.555 4.087-.271.447-.03.076-.23 3.43-10.482 2.982-9.122 1.902-.934c10.242-4.979 22.257-10.099 31.118-13.74l10.33-1.141 1.115-.125.041.704.06 1.017.088 1.472a136.391 136.391 0 0 0-9.178 2.785c-20.271 6.976-32.298 16.5-32.298 16.5l2.015 3.405c7.035-4.984 14.263-8.892 21.034-11.983a146.52 146.52 0 0 1 9.161-3.82 150.088 150.088 0 0 1 9.484-3.234v.013l.006.13.112 1.898.463 7.72 17.834-2.163 5.086-.615 2.155-.26-.223-1.615-.94-6.852-.04-.32-.435-3.168-.47-3.429-.059-.437-.053-.379.535-.06 18.709-2.063 6.594-.727 3.835-.42.95 12.776 7.553-.686-.97-12.87-.006-.048 2.99-.325.017.36.98 17.53 7.552-.911-.945-16.66-.064-1.146 3.089-.343.111 1.472.834 11.204 7.552-.686-.264-3.512-.529-7.047-.17-2.259.786-.089.904-.1c.517-.054.98-.243 1.398-.498l11.034 19.344zm-4.957-76.967c-6.477 10.127-17.229 15.607-26.742 18.592a50.568 50.568 0 0 0 6.823-31.156c2.414-2.288 5.238-5.131 8.686-9.086l.205-.207c1.932-1.248 3.724-1.803 5.585-1.874 4.134-.206 6.688.905 8.133 3.4 2.895 4.93.892 14.71-2.69 20.331zM52.175 93.356zm0 0c-8.48-3.122-17.716-8.466-23.442-17.483-3.512-5.551-5.514-15.193-2.824-20.189 1.309-2.358 3.723-3.541 7.446-3.541h.693c1.756.118 3.388.574 5.097 1.365l-.047.166 1.162.337c2.96 1.461 5.85 3.672 8.68 6.179v.07c-.552 3.193-.758 6.522-.622 9.921a46.692 46.692 0 0 0 .205 9.785c.205 1.803.622 3.606 1.104 5.758.616 2.566 1.445 5.131 2.548 7.632zm-8.126 46.716a62.9 62.9 0 0 1 5.55-4.925 86.39 86.39 0 0 1 9.818-6.663l7.381 9.08-21.134 2.33-1.615.178z"/></g></g><g><path fill="#543d21" d="M147.213 183.466l3.552 7.839-6.706 3.605-3.746-8.276-5.162-11.404 6.818-3.322zm20.84-23.305l.935-.213 3.177-.734.177.467v.006c.264.626.775 1.874 1.432 3.589 2.672 6.993 7.887 22.07 9.96 37.735h5.578c-2.373-11.21-6.588-26.255-13.553-39.941-.459-.893-.887-1.803-1.363-2.684l-.006-.012a51.596 51.596 0 0 0-1.344-2.472s-1.902.118-5.191.349c-7.31.508-21.498 1.554-37.09 3.02-1.115.06-2.23.179-3.405.297-1.116.118-2.29.236-3.465.354a824.12 824.12 0 0 0-16.859 1.88l16.86-1.082 3.464-.224 3.406-.22 1.15-.076c1.762-.1 3.043.976 3.471 2.477.07.254.177.49.194.762a3.462 3.462 0 0 1-3.219 3.683l-1.591.1-3.406.22-3.466.226-2.924.19c.887.839 1.873 1.897 2.924 3.157 1.104 1.324 2.267 2.903 3.465 4.765.535.833 1.068 1.656 1.609 2.607 0 0-.593-.408-1.61-1.076-.868-.567-2.066-1.33-3.464-2.187-3.335-2.046-7.892-4.653-12.413-6.658l-2.155.148c2.167 2.128 4.845 5.309 7.558 10.085 0 0-8.24-5.67-16.578-9.506l-16.7 1.075.006.006 33.895 23.2.399.27c.646.415 1.116 1.065 1.35 1.774l1.88 5.498h3.053l-.294-.65-3.352-7.443-4.693-10.41 6.812-3.312 1.233 2.72 3.465 7.685.681 1.513 2.725 6.054.646 1.42-.646.354-3.406 1.832-.47.236h8.574l-4.521-9.991 5.936-2.885.875-.425.035.077 6.014 13.224h10.805c-.992-5.445-2.643-11.972-5.033-18.924-1.42-4.138-3.042-8.395-5.126-12.764.5.597 4.005 4.8 8.045 11.055 3.588 5.563 7.599 12.735 10.335 20.632h14.621c-1.01-9.772-3.282-22.246-8.239-33.201-1.103-2.435-2.29-4.824-3.682-7.06l2.425-.567.095-.025z"/></g><g><g><path fill="#966f4b" d="M150.765 191.31l-6.706 3.607-3.746-8.277-5.156-11.404 6.818-3.322 5.238 11.552zm-12.977-3.517l6.012 13.22h-8.338l-4.522-9.992 5.938-2.885.875-.426zm-7.024 9.376l.646 1.419-.646.355-3.405 1.833-.47.236h-2.702l-.293-.65-3.353-7.437-4.692-10.418 6.811-3.31 1.233 2.72 3.466 7.685.681 1.514z"/></g></g><g><path fill="#9c734d" d="M167.953 160.184l.1-.023.934-.213 3.176-.734.177.467c-.365.124-.746.22-1.151.254l-2.161.166zm1.075-.082l.001.005c.56 2.027 1.046 4.074 1.39 6.171l.06.368c-.41.396-.851.775-1.269 1.165-1.103-2.436-2.296-4.825-3.682-7.06l2.425-.567zm3.313-.415c.263.632.772 1.877 1.43 3.592a99.07 99.07 0 0 1-3.292 3.367l-.06-.368c-.343-2.098-.83-4.145-1.39-6.17l2.16-.166a5.538 5.538 0 0 0 1.152-.255zm1.433 3.6a105.856 105.856 0 0 1-3.294 3.364l-.001-.005c-.412.402-.846.775-1.269 1.165 4.957 10.96 7.235 23.435 8.24 33.201h6.283c-2.073-15.667-7.288-30.742-9.96-37.735l-.002.002.003.009z"/></g><g><g><path fill="#73532d" d="M67.286 144.5c-8.856 3.636-20.876 8.756-31.118 13.74-.645.313-1.274.62-1.902.934l-2.983 9.122-3.43 10.482-.075.23-.447.03-4.081.271 4.38-14.555 2.86-9.47s3.412-1.662 8.32-3.915a448.322 448.322 0 0 1 11.257-4.977zm20.076 2.46l.047.325.083.55c-.951.224-2.014.484-3.259.81l-.206-1.656-.13-1.035-.087-.709c.44-.1.862-.212 1.309-.307.616-.13 1.245-.254 1.873-.379l.276 1.797.094.603zm-8.32 1.495l.1 1.631a149.884 149.884 0 0 0-18.644 7.054c-6.772 3.085-14 6.993-21.035 11.977l-2.015-3.405s12.027-9.524 32.298-16.5c2.888-.994 5.96-1.927 9.178-2.785zm58.646-23.565a197.034 197.034 0 0 1 9.084 3.86l-11.756 1.295-5.08.562-6.506.715c4.217-1.857 8.685-4.203 12.602-7.077l.34.13 1.316.515z"/></g></g><g><g><path fill="#b8916c" d="M150.314 135.348l-7.54.828.017.36.98 17.529 7.552-.91-.945-16.66zm-10.536 1.158l-.452.054-7.076.78.952 12.776 7.552-.692-.976-12.87zm21.85 6.977l-.527-7.047-.17-2.259-6.214.686-1.315.142.111 1.472.829 11.204 7.552-.686zm-74.636 1.07l.276 1.797.094.61.047.318.083.55.294 1.933.105.657 2.326-.26 3.112-.35-.142-.892-.146-.922-.406-2.584-.522-3.346-.047-.301-5.408.597.088.573zm16.648 3.783l-.04-.313-.441-3.175-.47-3.429-.059-.431-.052-.384-4.933.544-1.216.136.035.319.358 3.423.347 3.233.023.255.364 3.423-4.909.709-7.78 1.118-.411-3.299-.224-1.827-.205-1.661-.13-1.029-.087-.71-.212-1.685-.023-.2-.082-.645-.494.054-4.269.472.047.704.058 1.017.089 1.472.123 2.028.1 1.631v.006l.005.136.119 1.892.463 7.728 17.835-2.165 5.08-.62 2.154-.26-.224-1.609z"/></g></g><g><g><path fill="#402e19" d="M161.87 127.095c1.826-.23 3.588 1.158 3.802 3.06.152 1.383-.54 2.648-1.65 3.328a3.42 3.42 0 0 1-1.398.497l-.904.101-.787.09-6.213.685-1.315.141-3.09.343-7.539.833-2.995.331-.452.06-7.076.78-3.835.42-6.594.728-18.71 2.064-.534.06-4.933.543-1.216.136-4.363.479-5.41.597-3.158.348-.494.054-4.269.466-1.116.125-10.33 1.14-17.217 1.899-9.284 1.023-8.755.964-.382.018a3.4 3.4 0 0 1-2.32-.922 3.451 3.451 0 0 1-1.098-2.17 3.462 3.462 0 0 1 3.048-3.825l2.625-.29 4.991-.55 5.15-.567 1.615-.178 21.134-2.329 1.961-.22 8.087-.892 14.187-1.56 20.77-2.288 11.633-1.283 6.506-.715 5.08-.562 11.756-1.295 1.163-.13 7.07-.78 4.222-.467 2.636-.29zm-29.954 33.118c1.761-.1 3.042.976 3.457 2.472.07.248.176.485.194.762a3.464 3.464 0 0 1-3.219 3.683l-1.591.101-3.406.22-3.465.223-2.924.19c.88.84 1.873 1.897 2.924 3.157 1.104 1.324 2.267 2.903 3.465 4.765.534.833 1.07 1.656 1.609 2.607 0 0-.588-.408-1.61-1.076-.868-.567-2.066-1.33-3.464-2.187-3.334-2.052-7.891-4.66-12.413-6.658l-2.15.137c2.168 2.128 4.846 5.309 7.559 10.085 0 0-8.233-5.675-16.578-9.506l-16.7 1.075.006.006 33.895 23.2.399.27c.646.415 1.116 1.065 1.35 1.774l1.88 5.498h-7.34l-.705-2.128-6.09-4.18-34.018-23.37-11.979 4.79h-.06v24.888h-6.87v-22.17l-5.513 2.188-21.733 8.632v11.351h-6.93v-8.572l-1.35.532c-1.704.768-3.7-.119-4.405-1.951-.762-1.714.119-3.724 1.938-4.493l1.703-.709.023-.006 2.09-.822 21.6-8.59 12.578-5.003 3.406-1.359 3.523-1.42.294-.117 10.864-4.316c.176-.065.346-.053.522-.065.165-.035.311-.118.488-.13l33.865-2.176 16.86-1.082 3.464-.224 3.406-.219 1.15-.077zm12.53 9.11zm0 0c.5.598 4.006 4.802 8.046 11.057 3.588 5.562 7.598 12.734 10.335 20.632h-8.221c-.992-5.445-2.643-11.972-5.033-18.924-1.421-4.144-3.042-8.396-5.126-12.764z"/></g></g></g></g></g></svg>