<svg xmlns="http://www.w3.org/2000/svg" xmlns:xlink="http://www.w3.org/1999/xlink" width="232" height="232" viewBox="0 0 232 232"><defs><path id="55laa" d="M569 3919v-232h232v232z"/><path id="55lac" d="M625.943 3846.191l6.736 35.52h-1.382c-1.603 0-3.09.582-4.285 1.536-1.963 1.21-3.891 2.838-5.865 3.64l-7.608 3.106zm-6.527-34.392l-33.82-38.324 26.039-2.733c2.532 13.364 5.063 26.74 7.607 40.103zm106.64-28.391c-5.134-15.248-22.799-18.54-34.808-8.874.337-10.631.86-21.273 1-31.915 0-12.27-7.608-19.54-16.55-21.75l8.617-16.97 28.767 59.923c.813 1.71 2.52 2.872 4.437 3.082l66.606 6.571-39.615 41.022c1.23-3.826 2.044-7.723 1.974-11.596.337-11.852-8.745-19.563-20.429-19.493zm-2.475 74.228c5.598-5.955 9.326-14.597 12.59-22.587l13.797 56.037-32.333-14.143 5.946-19.307z"/><path id="55lad" d="M619.416 3811.799c2.183 11.468 4.355 22.924 6.527 34.38l-12.404 43.802 11.742-4.78a7.03 7.03 0 0 0-.569 1.28l-.07.209-.104.407-.093.453-.047.314a6.58 6.58 0 0 0-.058.826v8.584l-17.014 6.955c-3.984 1.71-8.699-2.152-7.375-6.432l19.674-69.378-49.057-55.688c-2.869-3.327-.65-8.41 3.554-8.828l35.91-3.803c.22 3.629.93 7.071 1.603 10.642l-26.039 2.733 33.82 38.324zm181.514-44.407c.686 1.908.279 4.036-1.184 5.583l-53.83 55.688 17.35 70.541c1.046 4.362-3.635 7.98-7.653 6.153L730.2 3894.25v-5.525h.07c0-3.78-3.194-6.979-6.968-6.979h-7.166c.5-1.581.987-3.175 1.475-4.768l32.333 14.143-13.797-56.037c.882-2.164 1.742-4.292 2.59-6.293 1.916-4.5 4.169-9.316 5.749-14.259l39.615-41.022-66.606-6.571c-1.905-.21-3.612-1.373-4.437-3.083l-28.756-59.933-8.617 16.97-.186-.047c-.337-.082-.674-.151-1.01-.221a21.623 21.623 0 0 0-8.247-.221c-.975.128-1.94.325-2.891.581l16.457-31.729c2.02-3.896 7.955-3.71 9.837.21l32.1 67.051 74.608 7.386c2.044.21 3.891 1.57 4.576 3.49z"/><path id="55lae" d="M726.055 3783.408c-5.133-15.236-22.798-18.54-34.818-8.863.348-10.63.86-21.273.998-31.915 0-12.27-7.595-19.54-16.55-21.75l-.185-.046c-.337-.081-.674-.151-1.01-.22a25.486 25.486 0 0 0-8.247-.222c-.975.14-1.95.337-2.891.582-8.618 2.29-15.865 9.374-16.062 21.296l-.07.558c-.5-.512-1.034-.989-1.568-1.442-.21-.175-.418-.35-.639-.512l-.441-.337-.407-.291a15.434 15.434 0 0 0-.72-.477l-.104-.058c-4.646-2.908-10.15-3.792-15.342-2.803-5.494 1.07-10.592 4.222-13.96 9.095-.244.36-.476.71-.697 1.07l-.232.407c-4.263 7.374-3.02 15.167-1.487 23.262l7.607 40.103.116.64.058.314c1.417 7.478 2.834 14.957 4.251 22.424l2.265 11.956 6.736 35.52h-1.382c-1.603 0-3.101.582-4.286 1.536a7.187 7.187 0 0 0-2.3 3.245l-.069.21-.104.407-.093.453-.047.314a6.429 6.429 0 0 0-.058.826v23.331c0 3.827 3.148 6.979 6.968 6.979h91.96c3.82 0 6.968-3.152 6.968-6.979v-23.33h.07c0-3.78-3.194-6.98-6.969-6.98h-7.165l1.475-4.768 5.946-19.307c.22-.233.441-.5.685-.791 5.215-5.909 8.78-14.143 11.916-21.796.883-2.164 1.742-4.292 2.59-6.293 1.905-4.5 4.17-9.316 5.749-14.259 1.22-3.826 2.044-7.723 1.974-11.596.337-11.863-8.745-19.575-20.429-19.493z"/><path id="55laf" d="M711.642 3893.342c-10.487 0-10.487 16.284 0 16.284 10.488 0 10.488-16.284 0-16.284z"/><path id="55lag" d="M794.438 3795.853l-19.198 85.451-23.495-51.315zM569 3796.19l42.693 34.148-23.437 51.304zm211.78-48.233h-54.655l-13.67-54.735zm-191.293 0l68.325-54.735-12.044 48.245-.116-.093-.639-.512-.441-.337-.407-.29-.72-.478-.104-.058c-4.715-2.966-10.197-3.803-15.342-2.803-5.494 1.07-10.592 4.222-13.96 9.096-.244.348-.476.709-.697 1.07l-.232.407-.279.488z"/><path id="55lah" d="M741.42 3802.052l-.046-.628-.012-.105c-.499-4.885-3.82-8.444-8.408-9.804a14.555 14.555 0 0 0-3.473-.594l1.545.082c1.208.058 2.3.116-.012 0l-1.556-.082h-.023c-2.253-.104-4.634.059-6.713 1.024l-10.766 17.97c9.105 7.083 12.52 20.714 5.819 30.565-.29.43-.604.85-.918 1.256-.174.21-.348.42-.534.617l-.465.547-.627.64-.441.453-.674.593-.464.407-.662.512-.546.419-.57.383-.696.466-.43.255c-.29.175-.58.361-.883.524l-.243.128c-.372.198-.744.395-1.115.581l-.024.012c-.87.43-1.777.814-2.682 1.175l-.151.058c-.86.325-1.743.616-2.625.884l-.349.104c-.836.245-1.672.454-2.52.652l-.464.104c-.848.187-1.696.338-2.544.477l-.383.07c.186.314.395.617.615.907l.058.07c1.139 1.477 2.579 2.582 4.205 3.361 2.532 1.222 5.493 1.664 8.304 1.559 7.85-.303 11.172-7.781 14.482-13.783.29-.523.593-1.058.883-1.593 6.19-11.073 13.96-24.018 15.83-36.707.127-.849.232-1.686.302-2.524 0-.337-.012-.686-.024-1.035zm-34.156 61.597c-8.397-.244-15.133-4.524-18.304-10.933-8.2.837-31.032 7.49-36.595-.756 14.622-1.92 29.279-3.582 43.9-5.478.395-.023.779-.07 1.162-.105l.313-.035.883-.116.267-.047c.337-.058.662-.116.987-.186l.082-.023c9.64-1.989 18.071-8.99 16.91-19.598-.047-.384-.093-.767-.163-1.151l-.186-.954c-1.173-5.746-3.751-9.223-7.2-11.363-5.494-3.397-13.182-3.385-20.917-3.676l-4.123-.163c-.94-.034-1.87-.07-2.81-.116a4632.79 4632.79 0 0 1-21.986-.977c-5.656-.267-11.323-.535-16.991-.767 1.638-2.268 4.402-3.56 7.177-3.56 10.557.21 21.115.629 31.672.954 8.49.268 18.79-.884 26.665 2.873l11.452-19.11c-.709-12.468-14.588-17.213-23.333-8.455-5.726 5.606-10.371 12.654-13.519 20.017.662-19.691 1.615-39.394 1.975-59.085 0-18.784-29.105-18.865-29.105 0l-3.135 45.302c-.07 1.059-1.394.896-1.568.14l-6.969-30.857-.209.07c-.093-.547-.209-1.07-.337-1.57l-.139-.442c-.104-.35-.209-.686-.337-1.012l-.174-.396c-.14-.325-.279-.65-.43-.953l-.15-.256a11.4 11.4 0 0 0-.581-.977l-.07-.093c-3.647-5.327-10.65-6.7-16.399-4.687l-.232.081-.441.174c-5.018 2.024-8.908 6.7-8.374 13.643l.023.361.105.733-.21.07 23.879 121.576h70.357c2.044-6.431 4.088-12.863 6.144-19.295-2.462.896-5.064 1.233-7.677 1.233h-1.29z"/><clipPath id="55lab"><use xlink:href="#55laa"/></clipPath></defs><g><g transform="translate(-569 -3687)"><g/><g clip-path="url(#55lab)"><g><use fill="#ff9d00" xlink:href="#55lac"/></g></g><g clip-path="url(#55lab)"><g><use fill="#ffce13" xlink:href="#55lad"/></g></g><g clip-path="url(#55lab)"><use fill="#373737" xlink:href="#55lae"/></g><g clip-path="url(#55lab)"><use fill="#eceff0" xlink:href="#55laf"/></g><g clip-path="url(#55lab)"><g><use fill="#ffe994" xlink:href="#55lag"/></g></g><g clip-path="url(#55lab)"><g><use fill="#e6e7e8" xlink:href="#55lah"/></g></g></g></g></svg>