<svg xmlns="http://www.w3.org/2000/svg" xmlns:xlink="http://www.w3.org/1999/xlink" width="34" height="33" viewBox="0 0 34 33"><defs><path id="1j32a" d="M659.743 3573.398s1.775.21 1.775-1.385c0-1.597-2.133-1.314-2.133-1.314l-2.273-.012v2.726l2.631-.015zm2.025 3.549c0-1.667-2.014-1.526-2.01-1.526-1.066 0-2.651-.01-2.651-.01l.01 3.283 2.606.01s2.045.24 2.045-1.757zm8.07-3.655c-1.834 0-1.984 1.898-1.984 1.898l4-.03s-.046-1.868-2.016-1.868zm4.361 3.404l-6.39.03s-.076 2.199 2.195 2.199c1.383.015 1.76-1.04 1.76-1.04h2.33s-.526 2.992-4.15 2.992c-4.707 0-4.451-4.739-4.451-4.739s-.226-4.813 4.36-4.813c5.008 0 4.346 5.37 4.346 5.37zm-1.894-6.104h-4.792v-1.375h4.792zm-8.336 1.15c0 1.947-1.504 2.492-1.504 2.492s1.895.564 1.895 2.914c-.04 4.035-4.534 3.689-4.534 3.689l-5.223.035-.007-12.323 5.598-.002s3.775-.28 3.775 3.194zm15.187 2.651c0-8.49-6.873-15.372-15.35-15.372-8.478 0-15.35 6.882-15.35 15.372s6.872 15.371 15.35 15.371c8.477 0 15.35-6.882 15.35-15.37z"/><mask id="1j32c" width="2" height="2" x="-1" y="-1"><path fill="#fff" d="M648 3559h32v31h-32z"/><use xlink:href="#1j32a"/></mask><filter id="1j32b" width="54" height="54" x="637" y="3548" filterUnits="userSpaceOnUse"><feOffset dy="1" in="SourceGraphic" result="FeOffset1063Out"/><feGaussianBlur in="FeOffset1063Out" result="FeGaussianBlur1064Out" stdDeviation="0.4 0.4"/></filter></defs><g><g transform="translate(-647 -3559)"><g filter="url(#1j32b)"><use fill="none" stroke-opacity=".25" stroke-width="0" mask="url(&quot;#1j32c&quot;)" xlink:href="#1j32a"/><use fill-opacity=".25" xlink:href="#1j32a"/></g><use fill="#fff" xlink:href="#1j32a"/></g></g></svg>