<svg xmlns="http://www.w3.org/2000/svg" xmlns:xlink="http://www.w3.org/1999/xlink" width="33" height="33" viewBox="0 0 33 33"><defs><path id="igura" d="M703.771 3570.625c.123-.046 3.027-1.16 5.217-3.388-2.278-1.986-4.757-2.402-6.435-2.402-1.297 0-2.237.243-2.494.318l-.01.004c.024.025 2.42 2.532 3.721 5.468zm-10.865 2.016c4.948-.129 8.52-1.202 8.91-1.324l.008-.003c-.012-.025-1.297-2.498-3.72-5.42a10.044 10.044 0 0 0-4.281 4.242c-.72 1.362-.91 2.458-.918 2.504zm12.499 1.57c.93-.18 2.032-.27 3.274-.27 2.038 0 3.69.241 3.708.252-.172-3.365-1.994-5.5-2.205-5.734-.02.023-2.095 2.386-5.63 3.75.276.598.555 1.252.852 2v.001zm-10.363 6.926c1.928-2.915 4.109-4.525 5.6-5.362 1.61-.906 2.79-1.129 2.8-1.131l-.8-1.763c-.032.012-3.332 1.24-9.94 1.447l-.001.01c-.027.387-.188 3.864 2.34 6.799zm12.926 1.853c.038-.022.961-.552 1.939-1.648a9.926 9.926 0 0 0 2.424-5.36 20.346 20.346 0 0 0-3.259-.25 21.32 21.32 0 0 0-3.005.202l-.015.003c.013.035 1.297 3.451 1.914 7.052v.001zm-1.888.968l.004-.002c-.008-.05-.869-5.048-1.963-7.588-4.502 1.26-7.131 5.334-7.613 6.138-.01.016-.012.02-.013.024 1.818 1.381 3.852 2.082 6.046 2.082 1.96 0 3.383-.587 3.539-.654zm8.418-9.234c0 6.612-5.362 11.992-11.952 11.992s-11.95-5.38-11.95-11.992c0-6.613 5.36-11.993 11.95-11.993 6.59 0 11.952 5.38 11.952 11.993zm-1.004 10.784a15.28 15.28 0 0 0 4.496-10.868 15.28 15.28 0 0 0-4.496-10.868 15.24 15.24 0 0 0-10.854-4.501 15.24 15.24 0 0 0-10.854 4.501 15.278 15.278 0 0 0-4.496 10.868 15.28 15.28 0 0 0 4.496 10.868 15.24 15.24 0 0 0 10.854 4.502c4.1 0 7.955-1.599 10.854-4.502z"/><mask id="igurc" width="2" height="2" x="-1" y="-1"><path fill="#fff" d="M687 3559h31v31h-31z"/><use xlink:href="#igura"/></mask><filter id="igurb" width="53" height="54" x="676" y="3548" filterUnits="userSpaceOnUse"><feOffset dy="1" in="SourceGraphic" result="FeOffset1083Out"/><feGaussianBlur in="FeOffset1083Out" result="FeGaussianBlur1084Out" stdDeviation="0.4 0.4"/></filter></defs><g><g transform="translate(-686 -3559)"><g filter="url(#igurb)"><use fill="none" stroke-opacity=".25" stroke-width="0" mask="url(&quot;#igurc&quot;)" xlink:href="#igura"/><use fill-opacity=".25" xlink:href="#igura"/></g><use fill="#fff" xlink:href="#igura"/></g></g></svg>