<svg xmlns="http://www.w3.org/2000/svg" xmlns:xlink="http://www.w3.org/1999/xlink" width="33" height="33" viewBox="0 0 33 33"><defs><path id="hj7aa" d="M582.922 3574.385v9.835h3.512l-.007-9.835h2.352l.461-2.81-2.806.03c0-.229-.002-.448-.004-.625-.01-1.03-.015-1.652.287-1.956.152-.154.383-.225.728-.225l1.807-.004.003-2.826h-3.534c-.815 0-1.457.233-1.908.692-.937.957-.903 2.699-.878 3.97.007.378.014.704-.006.959-.006.003-.153.005-.55.005-.356 0-.901-.002-1.535-.005h-.035v2.795zm2.428 15.375c-4.1 0-7.955-1.599-10.854-4.502A15.28 15.28 0 0 1 570 3574.39a15.28 15.28 0 0 1 4.496-10.868 15.239 15.239 0 0 1 10.854-4.502c4.1 0 7.955 1.599 10.854 4.502a15.28 15.28 0 0 1 4.496 10.868 15.28 15.28 0 0 1-4.496 10.868 15.239 15.239 0 0 1-10.854 4.502z"/><mask id="hj7ac" width="2" height="2" x="-1" y="-1"><path fill="#fff" d="M570 3559h31v31h-31z"/><use xlink:href="#hj7aa"/></mask><filter id="hj7ab" width="53" height="54" x="559" y="3548" filterUnits="userSpaceOnUse"><feOffset dy="1" in="SourceGraphic" result="FeOffset1023Out"/><feGaussianBlur in="FeOffset1023Out" result="FeGaussianBlur1024Out" stdDeviation="0.4 0.4"/></filter></defs><g><g transform="translate(-569 -3559)"><g filter="url(#hj7ab)"><use fill="none" stroke-opacity=".25" stroke-width="0" mask="url(&quot;#hj7ac&quot;)" xlink:href="#hj7aa"/><use fill-opacity=".25" xlink:href="#hj7aa"/></g><use fill="#fff" xlink:href="#hj7aa"/></g></g></svg>