<svg xmlns="http://www.w3.org/2000/svg" xmlns:xlink="http://www.w3.org/1999/xlink" width="47" height="47" viewBox="0 0 47 47"><defs><path id="gteya" d="M742.147 7259.106c1.166-1.462.628-3.893.622-3.916-.01-.045-1.044-4.538-3.926-4.538-.086 0-.185.006-.312.018-1.026.012-1.81.349-2.328 1.002-1.12 1.412-.654 3.829-.597 4.1.009.042.972 4.28 3.832 4.437 1.212 0 2.124-.371 2.71-1.103zm-2.452 14.656c2.198-.082 4.85-.755 4.995-3.494l.003-.04a.374.374 0 0 1 .014-.106c-.022-1.375-1.002-2.473-1.82-3.152-.978-.818-2.072-1.32-2.647-1.393-5.37.17-6.485 2.306-6.474 4.068 0 .41.167 4.018 5.93 4.117zm9.606-19.162v-2.121h3.169v-3.168h2.12v3.168h3.169v2.12h-3.168v3.171h-2.121v-3.17zm-10.12 10.097h.004l.2-.019.037-.003.124-.012c.102-.01.202-.019.301-.03-.74-.87-1.004-1.465-1.004-2.274.02-.497.124-.813.333-1.295-.395.032-.605.04-.786.046h-.026l-.045.002-.048.002a7.574 7.574 0 0 0-.168.007c-4.033-.017-5.536-3.273-5.536-5.322-.033-2.093.986-3.408 2.092-4.518.989-.843 2.572-1.81 6.064-1.81h6.96l-2.174 1.209h-2.098c.542.349 2.321 1.706 2.442 4.517 0 2.321-1.307 3.461-2.357 4.377-.769.671-1.433 1.25-1.433 2.112-.002.816.645 1.278 1.331 1.768.247.176.527.376.764.594 1.77 1.279 2.631 2.816 2.631 4.7 0 1.665-.775 3.224-2.183 4.389-1.584 1.308-3.839 2.012-6.521 2.038a.915.915 0 0 1-.178.007c-.214 0-2.144-.02-3.956-.737-2.09-.825-3.196-2.209-3.287-4.113-.001-.004-.076-.572.234-1.37.284-.723.954-1.788 2.534-2.756 1.703-1.126 3.85-1.33 5.746-1.509zm21.199 13.663c4.25-4.25 6.59-9.9 6.59-15.91s-2.34-11.66-6.59-15.91-9.9-6.59-15.91-6.59a22.35 22.35 0 0 0-15.91 6.59c-4.25 4.25-6.59 9.9-6.59 15.91s2.34 11.66 6.59 15.91a22.35 22.35 0 0 0 15.91 6.59c6.01 0 11.66-2.34 15.91-6.59z"/><mask id="gteyc" width="2" height="2" x="-1" y="-1"><path fill="#fff" d="M722 7239h45v46h-45z"/><use xlink:href="#gteya"/></mask><filter id="gteyb" width="67" height="69" x="711" y="7228" filterUnits="userSpaceOnUse"><feOffset dy="1" in="SourceGraphic" result="FeOffset1127Out"/><feGaussianBlur in="FeOffset1127Out" result="FeGaussianBlur1128Out" stdDeviation="0.4 0.4"/></filter></defs><g><g transform="translate(-721 -7240)"><g filter="url(#gteyb)"><use fill="none" stroke-opacity=".25" stroke-width="0" mask="url(&quot;#gteyc&quot;)" xlink:href="#gteya"/><use fill-opacity=".25" xlink:href="#gteya"/></g><use fill="#fff" xlink:href="#gteya"/></g></g></svg>