<svg xmlns="http://www.w3.org/2000/svg" xmlns:xlink="http://www.w3.org/1999/xlink" width="47" height="47" viewBox="0 0 47 47"><defs><path id="g5hna" d="M677.49 7254.35a2.624 2.624 0 0 1-2.62 2.621 2.624 2.624 0 0 1-2.62-2.622 2.623 2.623 0 0 1 2.62-2.62 2.623 2.623 0 0 1 2.62 2.62zm13.817 11.126c-.002.014-.003.016-.004.016a2.16 2.16 0 0 1 .002-.173c.002.002.002.026.005.095.005-.229-.004-1.41-.717-2.176-.4-.43-.95-.649-1.636-.649-.922 0-1.633.272-2.11.81-.824.924-.67 2.332-.669 2.346v8.182h-5.152v-15.396h5.156v2.28l.073-.113.024-.037c.495-.773 1.526-2.383 4.455-2.412 2.41 0 4.085 1.099 4.978 3.265.71 1.725.71 3.654.71 4.38v.021l-.062 8.06-5.059-.017v-.086c.004-1.714.017-7.382.008-8.396zm-13.658-6.856v15.37h-5.088v-15.37zm22.8 19.86c4.25-4.25 6.59-9.9 6.59-15.91s-2.34-11.66-6.59-15.91a22.35 22.35 0 0 0-15.909-6.59c-6.01 0-11.66 2.34-15.91 6.59a22.35 22.35 0 0 0-6.59 15.91c0 6.01 2.34 11.66 6.59 15.91s9.9 6.59 15.91 6.59 11.66-2.34 15.91-6.59z"/><mask id="g5hnc" width="2" height="2" x="-1" y="-1"><path fill="#fff" d="M662 7240h45v46h-45z"/><use xlink:href="#g5hna"/></mask><filter id="g5hnb" width="67" height="69" x="651" y="7229" filterUnits="userSpaceOnUse"><feOffset dy="1" in="SourceGraphic" result="FeOffset1107Out"/><feGaussianBlur in="FeOffset1107Out" result="FeGaussianBlur1108Out" stdDeviation="0.4 0.4"/></filter></defs><g><g transform="translate(-661 -7240)"><g filter="url(#g5hnb)"><use fill="none" stroke-opacity=".25" stroke-width="0" mask="url(&quot;#g5hnc&quot;)" xlink:href="#g5hna"/><use fill-opacity=".25" xlink:href="#g5hna"/></g><use fill="#fff" xlink:href="#g5hna"/></g></g></svg>