<svg xmlns="http://www.w3.org/2000/svg" xmlns:xlink="http://www.w3.org/1999/xlink" width="33" height="33" viewBox="0 0 33 33"><defs><path id="kb2va" d="M1130.958 1796.075v5.814h4.379l-.03-5.814h5.924l-.017-4.484-5.858.04v-5.835l-4.398-.018v5.86h-5.875v4.437zm2.552 13.915a16.393 16.393 0 0 1-11.667-4.833 16.392 16.392 0 0 1-4.833-11.667c0-4.407 1.716-8.551 4.833-11.667a16.393 16.393 0 0 1 11.667-4.833c4.408 0 8.551 1.716 11.667 4.833a16.393 16.393 0 0 1 4.833 11.667c0 4.407-1.716 8.55-4.833 11.667a16.392 16.392 0 0 1-11.667 4.833z"/></defs><g><g transform="translate(-1117 -1777)"><use fill="#fff" xlink:href="#kb2va"/></g></g></svg>