<svg xmlns="http://www.w3.org/2000/svg" xmlns:xlink="http://www.w3.org/1999/xlink" width="47" height="47" viewBox="0 0 47 47"><defs><path id="sswsa" d="M801 7261.97v9.02c0 2.442 2.127 3.624 4.119 3.916.492.072 1.026.108 1.586.108 1.656 0 3.584-.322 5.29-.882v-3.995c-1.435.661-2.639.996-3.577.996-.795 0-1.404-.24-1.81-.717-.41-.48-.619-1.206-.619-2.156l.002-6.268H811v-4.011l-5.014.004v-6.027h-3.399c-.101 1.515-.419 2.54-1.062 3.429-.692.957-1.775 1.765-3.512 2.618 0 1.13-.004 3.965-.004 3.965zm3.5 23.03c-6.01 0-11.66-2.34-15.91-6.59a22.35 22.35 0 0 1-6.59-15.91c0-6.01 2.34-11.66 6.59-15.91s9.9-6.59 15.91-6.59 11.66 2.34 15.91 6.59 6.59 9.9 6.59 15.91-2.34 11.66-6.59 15.91a22.35 22.35 0 0 1-15.91 6.59z"/><mask id="sswsc" width="2" height="2" x="-1" y="-1"><path fill="#fff" d="M782 7240h45v45h-45z"/><use xlink:href="#sswsa"/></mask><filter id="sswsb" width="67" height="68" x="771" y="7229" filterUnits="userSpaceOnUse"><feOffset dy="1" in="SourceGraphic" result="FeOffset1147Out"/><feGaussianBlur in="FeOffset1147Out" result="FeGaussianBlur1148Out" stdDeviation="0.4 0.4"/></filter></defs><g><g transform="translate(-781 -7240)"><g filter="url(#sswsb)"><use fill="none" stroke-opacity=".25" stroke-width="0" mask="url(&quot;#sswsc&quot;)" xlink:href="#sswsa"/><use fill-opacity=".25" xlink:href="#sswsa"/></g><use fill="#fff" xlink:href="#sswsa"/></g></g></svg>