<svg xmlns="http://www.w3.org/2000/svg" xmlns:xlink="http://www.w3.org/1999/xlink" width="33" height="33" viewBox="0 0 33 33"><defs><path id="h6wna" d="M613.351 3577.98h-.001c.202 1.161 1.047 2.236 2.38 3.025 1.498.888 3.516 1.357 5.833 1.358.908 0 1.869-.073 2.857-.216 2.835-.451 4.653-2.302 5.68-3.774 1.116-1.602 1.559-3.104 1.563-3.12.004 0 .062.004.157.004.5 0 2.151-.088 2.367-1.226a3.031 3.031 0 0 1-.535.042c-.589 0-1.192-.122-1.198-.123.017-.007 1.746-.775 1.825-1.665-.64.495-1.475.599-2.062.599a4.581 4.581 0 0 1-.519-.029c-.612-2.135-1.676-3.145-2.461-3.616-.85-.511-1.566-.517-1.573-.517.012-.007 1.209-.69 1.174-1.106a.435.435 0 0 0-.26-.075c-.281 0-.617.184-.798.283a.596.596 0 0 1-.123.06c.065-.046.099-.125.094-.224a.552.552 0 0 0-.262-.429c-.351.034-.661.672-.675.7-.002-.004-.177-.327-.336-.327-1.9.522-3.232 4.89-3.243 4.934v.001l-.002.004c-4.45-3.01-5.932-3.46-6.42-3.46-.19 0-.218.07-.218.07-.48 1.076 1.388 2.466 1.407 2.48l-.543.016h-.016c-.07 0-.429.01-.571.202-.065.088-.077.203-.035.341.167.687 1.03 1.407 1.127 1.487.142.07.31.104.497.104.296 0 .54-.086.551-.09-.022.012-.628.33-1.005.567-.21.135-.322.28-.336.428-.018.198.146.352.208.41a.936.936 0 0 1 .017.016c.746.799 1.882.84 2.102.84l.05-.001c-.006.007-.611.736-.616 1.012 0 .271.141.524.42.75.01.01.018.016.022.019.362.25.901.28.906.28-.99 1.05-2.137 1.582-3.408 1.582-2.197 0-3.984-1.576-4.02-1.616zm10.189 11.77c-4.1 0-7.955-1.599-10.854-4.502a15.28 15.28 0 0 1-4.496-10.868 15.28 15.28 0 0 1 4.496-10.868 15.24 15.24 0 0 1 10.854-4.502c4.1 0 7.955 1.599 10.854 4.502a15.279 15.279 0 0 1 4.496 10.868 15.28 15.28 0 0 1-4.496 10.868 15.24 15.24 0 0 1-10.854 4.502z"/><mask id="h6wnc" width="2" height="2" x="-1" y="-1"><path fill="#fff" d="M608 3559h31v31h-31z"/><use xlink:href="#h6wna"/></mask><filter id="h6wnb" width="53" height="54" x="597" y="3548" filterUnits="userSpaceOnUse"><feOffset dy="1" in="SourceGraphic" result="FeOffset1043Out"/><feGaussianBlur in="FeOffset1043Out" result="FeGaussianBlur1044Out" stdDeviation="0.4 0.4"/></filter></defs><g><g transform="translate(-607 -3559)"><g filter="url(#h6wnb)"><use fill="none" stroke-opacity=".25" stroke-width="0" mask="url(&quot;#h6wnc&quot;)" xlink:href="#h6wna"/><use fill-opacity=".25" xlink:href="#h6wna"/></g><use fill="#fff" xlink:href="#h6wna"/></g></g></svg>