<svg xmlns="http://www.w3.org/2000/svg" xmlns:xlink="http://www.w3.org/1999/xlink" width="132" height="140" viewBox="0 0 132 140"><defs><path id="oxnca" d="M369 6822v-140h132v140z"/><path id="oxncc" d="M459.252 6775.455c.306 1.08.535 2.189.689 3.325a26.05 26.05 0 0 0-.69-3.325zm.918 6.797c0-1.178-.083-2.336-.236-3.472.16 1.136.236 2.294.236 3.472zm-64.32 7.898c-5.246-7.084-8.314-15.578-8.314-24.703 0-9.659 2.707-17.661 8.315-24.514zm98.908-77.364c3.883 2.125 6.241 6.004 6.241 10.254v58.377c.042 4.25-2.358 8.172-6.248 10.255l-3.924 2.139c5.358-8.29 8.433-17.92 8.433-28.161.042-.498.452-4.875-1.823-7.463-2.067-2.335-6.123-2.335-8.315-.042-2.442 2.54-2.317 6.88-2.317 7.295 0 11.285-4.682 21.589-12.371 29.458v-71.156c0-5.752-4.634-10.423-10.34-10.423h-18.612v-2.083c0-5.752-4.634-10.423-10.34-10.423-5.385 0-9.81 4.16-10.29 9.462a65.95 65.95 0 0 0-11.057 3.044h-7.605c-5.636 0-10.214 4.545-10.332 10.198-12.692 10.318-20.693 25.293-20.693 41.923 0 12.028 4.188 23.195 11.306 32.355l-11.223-6.123c-3.89-2.126-6.248-6.004-6.248-10.255v-58.377c0-4.208 2.4-8.129 6.248-10.254l53.493-29.192a13.112 13.112 0 0 1 12.531 0l53.486 29.192zm-47.063 62.76zm.068.377c.126.701.24 1.417.328 2.149a45.586 45.586 0 0 0-.328-2.149zm-17.032 45.817h8.544a13.113 13.113 0 0 1-8.544 0z"/><path id="oxncd" d="M379.305 6765.447c0 14.16 6.318 27.017 16.546 36.423v-5.211c-7.772-8.466-12.448-19.352-12.448-31.212 0-11.756 3.597-21.309 11.042-29.228.07-.105.543-.757 1.406-1.753v-5.443c-10.228 9.406-16.546 22.262-16.546 36.424zm115.036-4.461c-.334-.379-1.531-.625-2.234.084-.953 1.003-1.197 3.339-1.155 4.292 0 13.825-6.339 26.31-16.504 35.217v4.749a55.997 55.997 0 0 0 7.201-6.495c8.413-9.048 13.485-20.691 13.485-33.38.118-1.213.076-3.548-.793-4.467z"/><path id="oxnce" d="M460.135 6782.876c-.25 11.966-8.85 21.849-20.185 23.974l-2.741 3.254-1.726 2.048-1.704 2.02-2.624 3.115-.243.287h33.196c2.77 0 5.108-1.823 5.908-4.341.188-.604.299-1.242.299-1.915v-40.464l-10.18 12.022zm-49.805-.624c0-13.888 11.168-25.145 24.945-25.145a24.42 24.42 0 0 1 14.563 4.798l9.115-11.047h-58.97v60.46a6.234 6.234 0 0 0 4.106 5.877l2.373-2.875 1.336-1.62 1.377-1.67.48-.582 1.768-2.146 1.363-1.656 1.364-1.655 3.869-4.685a24.902 24.902 0 0 1-7.689-18.054z"/><path id="oxncf" d="M464.101 6717.492H445.49v6.257c0 .442-.035.87-.09 1.297a12.54 12.54 0 0 1 2.156 7.042c0 6.909-5.559 12.513-12.413 12.513-6.853 0-12.406-5.604-12.406-12.513 0-2.616.8-5.036 2.157-7.042a9.99 9.99 0 0 1-.09-1.297v-6.257H406.19a6.179 6.179 0 0 0-4.154 1.62 6.228 6.228 0 0 0-1.983 3.788c-.034.28-.062.561-.062.856v22.935h70.324v-22.935c-.007-3.465-2.776-6.264-6.214-6.264z"/><path id="oxncg" d="M441.245 6710.093c-.536-2.911-3.055-5.107-6.096-5.107-2.88 0-5.288 1.971-5.99 4.644a6.444 6.444 0 0 0-.216 1.613v12.513c0 3.458 2.77 6.256 6.206 6.256 3.438 0 6.207-2.791 6.207-6.256v-12.513c0-.393-.042-.779-.112-1.15z"/><path id="oxnch" d="M439.943 6806.857c11.335-2.125 19.935-12.008 20.185-23.974zm4.39-39.699c.21.126.411.337.62.582l4.885-5.835a24.42 24.42 0 0 0-14.563-4.798c-13.777 0-24.945 11.257-24.945 25.145a24.88 24.88 0 0 0 7.696 18.054l6.081-7.295c-3.312-4.173-4.015-10.135-1.197-15.01.787-1.332 1.9-2.545 2.15-2.791.167-.168.912.337.661.708-1.196 4.335-.619 7.337.828 10.22.126.042.661.294.745.084.292-8.922 4.92-14.47 10.423-18.264 3.096-.968 5.705-1.298 6.617-.8z"/><path id="oxnci" d="M444.334 6767.158c-.912-.498-3.514-.168-6.617.793-5.504 3.794-10.138 9.342-10.423 18.264-.084.21-.62-.042-.745-.084-1.447-2.876-2.024-5.878-.828-10.22.25-.378-.494-.876-.66-.708-.251.252-1.364 1.459-2.15 2.792-2.812 4.881-2.109 10.843 1.196 15.01l20.846-25.272c-.209-.238-.417-.449-.62-.575z"/><path id="oxncj" d="M460.135 6782.876l.035-.252.007-.253v-.126c0-3.142-.57-6.151-1.614-8.922a24.951 24.951 0 0 0-8.725-11.419l-4.885 5.836c.988 1.305 2.074 4.272 2.742 7.807.153.813.285 1.662.396 2.525.07.575.125 1.157.174 1.74.042.581.077 1.17.09 1.76.014.589.014 1.178-.006 1.76a24.935 24.935 0 0 1-.348 3.409c-.098.547-.216 1.08-.362 1.6a14.572 14.572 0 0 1-.501 1.5c-.188.484-.41.94-.647 1.375-3.597 6.544-11.829 8.922-18.327 5.253a13.17 13.17 0 0 1-4.057-3.458l-6.081 7.295c4.467 4.377 10.506 7.049 17.249 7.049 1.238 0 2.477-.084 3.68-.295.327-.042.661-.126.995-.21z"/><path id="oxnck" d="M448.265 6779.811a35.887 35.887 0 0 0-.174-1.74 35.398 35.398 0 0 0-.396-2.524c-.675-3.535-1.754-6.502-2.742-7.807l-20.846 25.271c1.079 1.375 2.442 2.589 4.057 3.458 6.491 3.669 14.723 1.29 18.327-5.253.243-.435.459-.898.647-1.375.188-.484.355-.982.5-1.5.147-.52.265-1.053.363-1.6.097-.547.174-1.108.23-1.676.055-.569.097-1.15.118-1.733.02-.582.02-1.171.007-1.76a50.575 50.575 0 0 0-.09-1.76z"/><path id="oxncl" d="M458.953 6750.85l-9.115 11.048a25.013 25.013 0 0 1 7.528 8.732c.452.87.849 1.767 1.197 2.686a25.265 25.265 0 0 1 1.614 8.922v.126l-.007.253-.035.252 10.173-12.022v-19.996h-11.355zm-23.678 56.505c-6.743 0-12.782-2.665-17.25-7.05l-3.868 4.686-1.364 1.655-1.363 1.656-1.768 2.146-.48.582-1.377 1.67-1.336 1.62-2.373 2.875a6.132 6.132 0 0 0 2.101.372h24.715l.243-.287 2.624-3.115 1.704-2.02 1.726-2.048 2.741-3.254c-.334.084-.66.168-.995.21-1.203.218-2.442.302-3.68.302z"/><path id="oxncm" d="M395.85 6790.15c-5.246-7.084-8.314-15.578-8.314-24.703 0-9.659 2.707-17.661 8.315-24.514zm33.093-78.907c0-.561.076-1.094.216-1.613.702-2.68 3.11-4.644 5.99-4.644 3.048 0 5.567 2.196 6.096 5.107.07.371.11.757.11 1.143v12.513c0 3.458-2.768 6.256-6.206 6.256-3.437 0-6.206-2.791-6.206-6.256zm-26.907 7.87a6.247 6.247 0 0 1 2.08-1.256 6.139 6.139 0 0 1 2.074-.365h18.613v6.257c0 .442.035.87.09 1.297a12.54 12.54 0 0 0-2.157 7.042c0 6.909 5.56 12.513 12.413 12.513 6.854 0 12.413-5.604 12.413-12.513 0-2.616-.8-5.036-2.157-7.042.056-.428.09-.855.09-1.297v-6.257h18.613c3.43 0 6.207 2.792 6.207 6.257v22.935h-70.331v-22.935c0-.288.028-.575.062-.856a6.274 6.274 0 0 1 1.99-3.78zm-6.185 9.91v5.443c-.863.996-1.336 1.648-1.406 1.753-7.445 7.926-11.042 17.472-11.042 29.228 0 11.86 4.683 22.746 12.448 31.212v5.211c-10.228-9.406-16.546-22.262-16.546-36.423 0-14.162 6.318-27.018 16.546-36.424zm74.457 82.295c0 .666-.104 1.311-.3 1.915-.8 2.525-3.137 4.341-5.907 4.341h-57.91c-.738 0-1.441-.133-2.102-.372a6.24 6.24 0 0 1-4.105-5.877v-60.46h70.324zm4.14-5.99zm0-4.749c10.165-8.9 16.504-21.392 16.504-35.217-.042-.96.209-3.296 1.155-4.292.703-.708 1.9-.456 2.234-.084.87.919.911 3.254.786 4.46 0 12.689-5.072 24.332-13.485 33.38a55.473 55.473 0 0 1-7.194 6.502zm22.996-42.385c-2.067-2.335-6.123-2.335-8.315-.042-2.442 2.546-2.317 6.88-2.317 7.295 0 11.285-4.676 21.596-12.371 29.458v-71.156c0-5.752-4.634-10.423-10.34-10.423H445.49v-2.083c0-5.752-4.634-10.423-10.34-10.423-5.385 0-9.81 4.16-10.29 9.462a65.95 65.95 0 0 0-11.057 3.044h-7.612c-5.636 0-10.214 4.552-10.332 10.198-12.692 10.318-20.693 25.293-20.693 41.923 0 12.029 4.188 23.195 11.306 32.355a59.157 59.157 0 0 0 9.373 9.56v3.956c0 5.751 4.634 10.422 10.34 10.422h57.91c5.706 0 10.34-4.67 10.34-10.422v-.842c6.61-4.503 12.197-10.17 16.386-16.658 5.358-8.29 8.433-17.92 8.433-28.161.049-.498.466-4.882-1.809-7.463z"/><clipPath id="oxncb"><use xlink:href="#oxnca"/></clipPath></defs><g><g transform="translate(-369 -6682)"><g/><g clip-path="url(#oxncb)"><g><use fill="#bbd758" xlink:href="#oxncc"/></g></g><g clip-path="url(#oxncb)"><g><use fill="#dbdbdb" xlink:href="#oxncd"/></g></g><g clip-path="url(#oxncb)"><g><use fill="#a6a8ab" xlink:href="#oxnce"/></g></g><g clip-path="url(#oxncb)"><use fill="#009435" xlink:href="#oxncf"/></g><g clip-path="url(#oxncb)"><use fill="#e6e7e8" xlink:href="#oxncg"/></g><g clip-path="url(#oxncb)"><g><use fill="#4b4e49" xlink:href="#oxnch"/></g></g><g clip-path="url(#oxncb)"><use fill="#a4cc40" xlink:href="#oxnci"/></g><g clip-path="url(#oxncb)"><use fill="#5b5e58" xlink:href="#oxncj"/></g><g clip-path="url(#oxncb)"><use fill="#b4db53" xlink:href="#oxnck"/></g><g clip-path="url(#oxncb)"><g><use fill="#b5b7ba" xlink:href="#oxncl"/></g></g><g clip-path="url(#oxncb)"><use fill="#373737" xlink:href="#oxncm"/></g></g></g></svg>