<svg xmlns="http://www.w3.org/2000/svg" xmlns:xlink="http://www.w3.org/1999/xlink" width="95" height="75" viewBox="0 0 95 75"><defs><path id="ski1a" d="M662.786 4876v-13.636h-1.357V4876h-13.572v-23.181h-4.07V4846h10.855v9.545h21.715V4876zm36.643 0v-6.817h6.786V4876zM675 4903.272h2.715V4906H675zM732 4921v-40.909h-36.643v-10.908h25.785v-6.819H684.5V4846h-14.93v9.545h6.787v-2.726h1.358v43.636h-9.5v16.363H684.5v-9.546h1.357v9.546H713V4906h-20.358v-9.545H684.5v-27.272h4.072v17.727h36.642v27.273h-81.428v-6.819H637V4921z"/></defs><g><g transform="translate(-637 -4846)"><use fill="#fff" xlink:href="#ski1a"/></g></g></svg>